STARTFONT 2.1
FONT -Efont-Fixed-Bold-I-Normal--24-240-75-75-C-120-ISO10646-1
SIZE 24 75 75
FONTBOUNDINGBOX 19 24 -3 -2
STARTPROPERTIES 18
COPYRIGHT "(c) Copyright 2000-2003 /efont/ The Electronic Font Open Laboratory."
FOUNDRY "Efont"
FAMILY_NAME "Fixed"
WEIGHT_NAME "Bold"
SLANT "I"
SETWIDTH_NAME "Normal"
ADD_STYLE_NAME ""
PIXEL_SIZE 24
POINT_SIZE 240
RESOLUTION_X 75
RESOLUTION_Y 75
AVERAGE_WIDTH 120
CHARSET_REGISTRY "ISO10646"
CHARSET_ENCODING "1"
_MULE_BASELINE_OFFSET -3
FONT_ASCENT 22
FONT_DESCENT 2
DEFAULT_CHAR 32
ENDPROPERTIES
CHARS 2125
STARTCHAR U+0020
ENCODING 32
SWIDTH 500 0
DWIDTH 12 0
BBX 19 24 -3 -2
BITMAP 
000000
000000
000000
000000
000000
000000
000000
000000
000000
000000
000000
000000
000000
000000
000000
000000
000000
000000
000000
000000
000000
000000
000000
000000
ENDCHAR
STARTCHAR U+0021
ENCODING 33
SWIDTH 500 0
DWIDTH 12 0
BBX 19 24 -3 -2
BITMAP 
000000
000000
000000
000000
000000
003800
007000
007000
007000
00e000
00e000
00e000
01c000
01c000
01c000
000000
000000
038000
0f8000
070000
000000
000000
000000
000000
ENDCHAR
STARTCHAR U+0022
ENCODING 34
SWIDTH 500 0
DWIDTH 12 0
BBX 19 24 -3 -2
BITMAP 
000000
000000
000000
000000
00ee00
00ee00
01dc00
01dc00
01dc00
000000
000000
000000
000000
000000
000000
000000
000000
000000
000000
000000
000000
000000
000000
000000
ENDCHAR
STARTCHAR U+0023
ENCODING 35
SWIDTH 500 0
DWIDTH 12 0
BBX 19 24 -3 -2
BITMAP 
000000
000000
000000
000000
000000
007700
00ee00
00ee00
03ff00
07fe00
03b800
03b800
077000
077000
1ff800
3ff000
1dc000
1dc000
3b8000
000000
000000
000000
000000
000000
ENDCHAR
STARTCHAR U+0024
ENCODING 36
SWIDTH 500 0
DWIDTH 12 0
BBX 19 24 -3 -2
BITMAP 
000000
000000
000000
000000
000000
003800
01fc00
03ff00
077700
0ee000
07e000
03f800
01f800
01dc00
01dc00
3bb800
3ff000
1fe000
070000
000000
000000
000000
000000
000000
ENDCHAR
STARTCHAR U+0025
ENCODING 37
SWIDTH 500 0
DWIDTH 12 0
BBX 19 24 -3 -2
BITMAP 
000000
000000
000000
000000
000000
01e700
07ee00
076c00
07ec00
07b000
007000
00e000
01c000
038000
03b800
0ef800
0ed800
1df800
39e000
000000
000000
000000
000000
000000
ENDCHAR
STARTCHAR U+0026
ENCODING 38
SWIDTH 500 0
DWIDTH 12 0
BBX 19 24 -3 -2
BITMAP 
000000
000000
000000
000000
000000
003c00
00fc00
01ee00
01ce00
03b800
01f800
03f000
0fc000
1eec00
1c7c00
38f000
38e000
1ff800
1f7000
000000
000000
000000
000000
000000
ENDCHAR
STARTCHAR U+0027
ENCODING 39
SWIDTH 500 0
DWIDTH 12 0
BBX 19 24 -3 -2
BITMAP 
000000
000000
000000
003800
007c00
007c00
003800
003800
007000
01c000
000000
000000
000000
000000
000000
000000
000000
000000
000000
000000
000000
000000
000000
000000
ENDCHAR
STARTCHAR U+0028
ENCODING 40
SWIDTH 500 0
DWIDTH 12 0
BBX 19 24 -3 -2
BITMAP 
000000
000000
000000
000000
000000
000e00
003800
007800
007000
01e000
01c000
01c000
038000
038000
03c000
038000
03c000
01c000
01c000
000000
000000
000000
000000
000000
ENDCHAR
STARTCHAR U+0029
ENCODING 41
SWIDTH 500 0
DWIDTH 12 0
BBX 19 24 -3 -2
BITMAP 
000000
000000
000000
000000
000000
00e000
00e000
00f000
007000
00f000
007000
007000
00e000
00e000
01e000
038000
078000
070000
1c0000
000000
000000
000000
000000
000000
ENDCHAR
STARTCHAR U+002A
ENCODING 42
SWIDTH 500 0
DWIDTH 12 0
BBX 19 24 -3 -2
BITMAP 
000000
000000
000000
000000
000000
000000
000000
007000
007000
0eee00
0f6e00
03f800
01c000
07f000
1edc00
3bb800
038000
038000
000000
000000
000000
000000
000000
000000
ENDCHAR
STARTCHAR U+002B
ENCODING 43
SWIDTH 500 0
DWIDTH 12 0
BBX 19 24 -3 -2
BITMAP 
000000
000000
000000
000000
000000
000000
000000
000000
007000
00e000
00e000
00e000
1ffc00
1ffc00
01c000
038000
038000
038000
000000
000000
000000
000000
000000
000000
ENDCHAR
STARTCHAR U+002C
ENCODING 44
SWIDTH 500 0
DWIDTH 12 0
BBX 19 24 -3 -2
BITMAP 
000000
000000
000000
000000
000000
000000
000000
000000
000000
000000
000000
000000
000000
000000
000000
038000
07c000
07c000
038000
038000
070000
1c0000
000000
000000
ENDCHAR
STARTCHAR U+002D
ENCODING 45
SWIDTH 500 0
DWIDTH 12 0
BBX 19 24 -3 -2
BITMAP 
000000
000000
000000
000000
000000
000000
000000
000000
000000
000000
000000
000000
1ffc00
1ffc00
000000
000000
000000
000000
000000
000000
000000
000000
000000
000000
ENDCHAR
STARTCHAR U+002E
ENCODING 46
SWIDTH 500 0
DWIDTH 12 0
BBX 19 24 -3 -2
BITMAP 
000000
000000
000000
000000
000000
000000
000000
000000
000000
000000
000000
000000
000000
000000
000000
038000
07c000
07c000
070000
000000
000000
000000
000000
000000
ENDCHAR
STARTCHAR U+002F
ENCODING 47
SWIDTH 500 0
DWIDTH 12 0
BBX 19 24 -3 -2
BITMAP 
000000
000000
000000
000000
000000
000700
000e00
001c00
001c00
007000
007000
00e000
01c000
038000
038000
0e0000
0e0000
1c0000
380000
000000
000000
000000
000000
000000
ENDCHAR
STARTCHAR U+0030
ENCODING 48
SWIDTH 500 0
DWIDTH 12 0
BBX 19 24 -3 -2
BITMAP 
000000
000000
000000
000000
000000
007c00
01fc00
03de00
038e00
073c00
077c00
076c00
0fb800
0f3800
0e3800
1c7000
1ef000
0fe000
0f8000
000000
000000
000000
000000
000000
ENDCHAR
STARTCHAR U+0031
ENCODING 49
SWIDTH 500 0
DWIDTH 12 0
BBX 19 24 -3 -2
BITMAP 
000000
000000
000000
000000
000000
003800
00f000
01f000
03b000
00e000
00e000
00e000
01c000
01c000
01c000
038000
038000
1ff000
3fe000
000000
000000
000000
000000
000000
ENDCHAR
STARTCHAR U+0032
ENCODING 50
SWIDTH 500 0
DWIDTH 12 0
BBX 19 24 -3 -2
BITMAP 
000000
000000
000000
000000
000000
007e00
01fe00
038f00
038700
000e00
001c00
003800
00e000
01c000
038000
0e0000
1c0000
1ff800
3ff000
000000
000000
000000
000000
000000
ENDCHAR
STARTCHAR U+0033
ENCODING 51
SWIDTH 500 0
DWIDTH 12 0
BBX 19 24 -3 -2
BITMAP 
000000
000000
000000
000000
000000
007e00
01fe00
038f00
038700
000e00
001c00
00f800
01f800
001c00
001c00
1c3800
1c7800
0ff000
0fc000
000000
000000
000000
000000
000000
ENDCHAR
STARTCHAR U+0034
ENCODING 52
SWIDTH 500 0
DWIDTH 12 0
BBX 19 24 -3 -2
BITMAP 
000000
000000
000000
000000
000000
001c00
003800
007000
007000
01d800
01d800
03b800
077000
0e7000
0ffc00
1ff800
00e000
00e000
01c000
000000
000000
000000
000000
000000
ENDCHAR
STARTCHAR U+0035
ENCODING 53
SWIDTH 500 0
DWIDTH 12 0
BBX 19 24 -3 -2
BITMAP 
000000
000000
000000
000000
000000
01ff00
03fe00
038000
038000
070000
07f800
07fc00
003c00
001c00
001c00
1c3800
1c7800
0ff000
0fc000
000000
000000
000000
000000
000000
ENDCHAR
STARTCHAR U+0036
ENCODING 54
SWIDTH 500 0
DWIDTH 12 0
BBX 19 24 -3 -2
BITMAP 
000000
000000
000000
000000
000000
007e00
01fe00
03c700
038700
070000
077800
07fc00
0f3c00
0e1c00
0e1c00
1c3800
1e7800
0ff000
0fc000
000000
000000
000000
000000
000000
ENDCHAR
STARTCHAR U+0037
ENCODING 55
SWIDTH 500 0
DWIDTH 12 0
BBX 19 24 -3 -2
BITMAP 
000000
000000
000000
000000
000000
01ff80
03ff00
000e00
000e00
003800
003800
007000
00e000
01c000
01c000
070000
070000
0e0000
1c0000
000000
000000
000000
000000
000000
ENDCHAR
STARTCHAR U+0038
ENCODING 56
SWIDTH 500 0
DWIDTH 12 0
BBX 19 24 -3 -2
BITMAP 
000000
000000
000000
000000
000000
007c00
01fc00
038e00
038e00
071c00
03f800
03f800
0f7800
1e3c00
1c1c00
383800
3c7800
1ff000
1fc000
000000
000000
000000
000000
000000
ENDCHAR
STARTCHAR U+0039
ENCODING 57
SWIDTH 500 0
DWIDTH 12 0
BBX 19 24 -3 -2
BITMAP 
000000
000000
000000
000000
000000
007e00
01fe00
03cf00
038700
070e00
079e00
03fe00
03ec00
001c00
001c00
1c3800
1c7800
0ff000
0fc000
000000
000000
000000
000000
000000
ENDCHAR
STARTCHAR U+003A
ENCODING 58
SWIDTH 500 0
DWIDTH 12 0
BBX 19 24 -3 -2
BITMAP 
000000
000000
000000
000000
000000
000000
000000
000000
007000
01f000
01f000
00e000
000000
000000
000000
038000
07c000
07c000
070000
000000
000000
000000
000000
000000
ENDCHAR
STARTCHAR U+003B
ENCODING 59
SWIDTH 500 0
DWIDTH 12 0
BBX 19 24 -3 -2
BITMAP 
000000
000000
000000
000000
000000
000000
000000
000000
007000
01f000
01f000
00e000
000000
000000
000000
038000
07c000
07c000
038000
038000
070000
1c0000
000000
000000
ENDCHAR
STARTCHAR U+003C
ENCODING 60
SWIDTH 500 0
DWIDTH 12 0
BBX 19 24 -3 -2
BITMAP 
000000
000000
000000
000000
000000
000000
000000
000000
000700
003c00
00f000
03e000
1f0000
1f0000
07c000
03e000
00f000
003800
000000
000000
000000
000000
000000
000000
ENDCHAR
STARTCHAR U+003D
ENCODING 61
SWIDTH 500 0
DWIDTH 12 0
BBX 19 24 -3 -2
BITMAP 
000000
000000
000000
000000
000000
000000
000000
000000
000000
000000
0ffe00
0ffe00
000000
000000
1ffc00
3ff800
000000
000000
000000
000000
000000
000000
000000
000000
ENDCHAR
STARTCHAR U+003E
ENCODING 62
SWIDTH 500 0
DWIDTH 12 0
BBX 19 24 -3 -2
BITMAP 
000000
000000
000000
000000
000000
000000
000000
000000
070000
078000
01e000
00f800
007c00
007c00
01f000
078000
1e0000
380000
000000
000000
000000
000000
000000
000000
ENDCHAR
STARTCHAR U+003F
ENCODING 63
SWIDTH 500 0
DWIDTH 12 0
BBX 19 24 -3 -2
BITMAP 
000000
000000
000000
000000
000000
007c00
01fc00
03de00
030e00
001c00
003800
007000
01c000
01c000
01c000
000000
000000
038000
0f8000
070000
000000
000000
000000
000000
ENDCHAR
STARTCHAR U+0040
ENCODING 64
SWIDTH 500 0
DWIDTH 12 0
BBX 19 24 -3 -2
BITMAP 
000000
000000
000000
000000
000000
007e00
01fe00
03c700
038700
077e00
077e00
076e00
0edc00
0edc00
0efc00
1df000
1e0000
0ff800
0ff000
000000
000000
000000
000000
000000
ENDCHAR
STARTCHAR U+0041
ENCODING 65
SWIDTH 500 0
DWIDTH 12 0
BBX 19 24 -3 -2
BITMAP 
000000
000000
000000
000000
000000
007e00
01fe00
03cf00
038700
070e00
070e00
07fe00
0ffc00
0e1c00
0e1c00
1c3800
1c3800
1c3800
387000
000000
000000
000000
000000
000000
ENDCHAR
STARTCHAR U+0042
ENCODING 66
SWIDTH 500 0
DWIDTH 12 0
BBX 19 24 -3 -2
BITMAP 
000000
000000
000000
000000
000000
01fc00
03fc00
039e00
038e00
071c00
073800
07f800
0ff800
0e3800
0e1c00
1c3800
1c7800
1ff000
3fc000
000000
000000
000000
000000
000000
ENDCHAR
STARTCHAR U+0043
ENCODING 67
SWIDTH 500 0
DWIDTH 12 0
BBX 19 24 -3 -2
BITMAP 
000000
000000
000000
000000
000000
007e00
01fe00
03cf00
038700
070000
070000
070000
0e0000
0e0000
0e0000
1c3800
1e7800
0ff000
0fc000
000000
000000
000000
000000
000000
ENDCHAR
STARTCHAR U+0044
ENCODING 68
SWIDTH 500 0
DWIDTH 12 0
BBX 19 24 -3 -2
BITMAP 
000000
000000
000000
000000
000000
01fe00
03fe00
038f00
038700
070e00
070e00
070e00
0e1c00
0e1c00
0e1c00
1c3800
1c7800
1ff000
3fc000
000000
000000
000000
000000
000000
ENDCHAR
STARTCHAR U+0045
ENCODING 69
SWIDTH 500 0
DWIDTH 12 0
BBX 19 24 -3 -2
BITMAP 
000000
000000
000000
000000
000000
01ff80
03ff00
038000
038000
070000
070000
07f800
0ff000
0e0000
0e0000
1c0000
1c0000
1ff800
3ff000
000000
000000
000000
000000
000000
ENDCHAR
STARTCHAR U+0046
ENCODING 70
SWIDTH 500 0
DWIDTH 12 0
BBX 19 24 -3 -2
BITMAP 
000000
000000
000000
000000
000000
01ff80
03ff00
038000
038000
070000
070000
07f800
0ff000
0e0000
0e0000
1c0000
1c0000
1c0000
380000
000000
000000
000000
000000
000000
ENDCHAR
STARTCHAR U+0047
ENCODING 71
SWIDTH 500 0
DWIDTH 12 0
BBX 19 24 -3 -2
BITMAP 
000000
000000
000000
000000
000000
007e00
01fe00
03cf00
038700
070000
070000
070000
0e7c00
0e7c00
0e1c00
1c3800
1e7800
0ff000
0fc000
000000
000000
000000
000000
000000
ENDCHAR
STARTCHAR U+0048
ENCODING 72
SWIDTH 500 0
DWIDTH 12 0
BBX 19 24 -3 -2
BITMAP 
000000
000000
000000
000000
000000
01c380
038700
038700
038700
070e00
070e00
07fe00
0ffc00
0e1c00
0e1c00
1c3800
1c3800
1c3800
387000
000000
000000
000000
000000
000000
ENDCHAR
STARTCHAR U+0049
ENCODING 73
SWIDTH 500 0
DWIDTH 12 0
BBX 19 24 -3 -2
BITMAP 
000000
000000
000000
000000
000000
00fe00
01fc00
007000
007000
00e000
00e000
00e000
01c000
01c000
01c000
038000
038000
0fe000
1fc000
000000
000000
000000
000000
000000
ENDCHAR
STARTCHAR U+004A
ENCODING 74
SWIDTH 500 0
DWIDTH 12 0
BBX 19 24 -3 -2
BITMAP 
000000
000000
000000
000000
000000
000380
000700
000700
000700
000e00
000e00
000e00
001c00
001c00
001c00
1c3800
1c7800
0ff000
0fc000
000000
000000
000000
000000
000000
ENDCHAR
STARTCHAR U+004B
ENCODING 75
SWIDTH 500 0
DWIDTH 12 0
BBX 19 24 -3 -2
BITMAP 
000000
000000
000000
000000
000000
01c380
038e00
039c00
03b800
076000
07c000
078000
0f8000
0ec000
0ec000
1ce000
1c7000
1c3000
383000
000000
000000
000000
000000
000000
ENDCHAR
STARTCHAR U+004C
ENCODING 76
SWIDTH 500 0
DWIDTH 12 0
BBX 19 24 -3 -2
BITMAP 
000000
000000
000000
000000
000000
01c000
038000
038000
038000
070000
070000
070000
0e0000
0e0000
0e0000
1c0000
1c0000
1ff800
3ff000
000000
000000
000000
000000
000000
ENDCHAR
STARTCHAR U+004D
ENCODING 77
SWIDTH 500 0
DWIDTH 12 0
BBX 19 24 -3 -2
BITMAP 
000000
000000
000000
000000
000000
01c380
03cf00
03cf00
03ef00
07fe00
077600
077600
0edc00
0e1c00
0e1c00
1c3800
1c3800
1c3800
387000
000000
000000
000000
000000
000000
ENDCHAR
STARTCHAR U+004E
ENCODING 78
SWIDTH 500 0
DWIDTH 12 0
BBX 19 24 -3 -2
BITMAP 
000000
000000
000000
000000
000000
01c380
03c700
03c700
03e700
07ce00
076e00
076e00
0eec00
0eec00
0e7c00
1cf800
1c7800
1c7800
387000
000000
000000
000000
000000
000000
ENDCHAR
STARTCHAR U+004F
ENCODING 79
SWIDTH 500 0
DWIDTH 12 0
BBX 19 24 -3 -2
BITMAP 
000000
000000
000000
000000
000000
007e00
01fe00
03cf00
038700
070e00
070e00
070e00
0e1c00
0e1c00
0e1c00
1c3800
1e7800
0ff000
0fc000
000000
000000
000000
000000
000000
ENDCHAR
STARTCHAR U+0050
ENCODING 80
SWIDTH 500 0
DWIDTH 12 0
BBX 19 24 -3 -2
BITMAP 
000000
000000
000000
000000
000000
01fe00
03fe00
038f00
038700
070e00
071e00
07fc00
0ff000
0e0000
0e0000
1c0000
1c0000
1c0000
380000
000000
000000
000000
000000
000000
ENDCHAR
STARTCHAR U+0051
ENCODING 81
SWIDTH 500 0
DWIDTH 12 0
BBX 19 24 -3 -2
BITMAP 
000000
000000
000000
000000
000000
007e00
01fe00
03cf00
038700
070e00
070e00
070e00
0e1c00
0e1c00
0e1c00
1cf800
1ef800
0ff000
0ff800
003800
000000
000000
000000
000000
ENDCHAR
STARTCHAR U+0052
ENCODING 82
SWIDTH 500 0
DWIDTH 12 0
BBX 19 24 -3 -2
BITMAP 
000000
000000
000000
000000
000000
01fe00
03fe00
038f00
038700
070e00
071e00
07fc00
0ff000
0e7000
0e7000
1c7000
1c7000
1c3800
387000
000000
000000
000000
000000
000000
ENDCHAR
STARTCHAR U+0053
ENCODING 83
SWIDTH 500 0
DWIDTH 12 0
BBX 19 24 -3 -2
BITMAP 
000000
000000
000000
000000
000000
007e00
01fe00
038f00
038700
070000
078000
03f800
03f800
003c00
001c00
1c3800
1c7800
1ff000
1fc000
000000
000000
000000
000000
000000
ENDCHAR
STARTCHAR U+0054
ENCODING 84
SWIDTH 500 0
DWIDTH 12 0
BBX 19 24 -3 -2
BITMAP 
000000
000000
000000
000000
000000
03ff80
07ff00
007000
007000
00e000
00e000
00e000
01c000
01c000
01c000
038000
038000
038000
070000
000000
000000
000000
000000
000000
ENDCHAR
STARTCHAR U+0055
ENCODING 85
SWIDTH 500 0
DWIDTH 12 0
BBX 19 24 -3 -2
BITMAP 
000000
000000
000000
000000
000000
01c380
038700
038700
038700
070e00
070e00
070e00
0e1c00
0e1c00
0e1c00
1c3800
1e7800
0ff000
0fc000
000000
000000
000000
000000
000000
ENDCHAR
STARTCHAR U+0056
ENCODING 86
SWIDTH 500 0
DWIDTH 12 0
BBX 19 24 -3 -2
BITMAP 
000000
000000
000000
000000
000000
038380
070700
070700
038e00
071c00
071c00
03b800
077000
077000
036000
07c000
07c000
038000
070000
000000
000000
000000
000000
000000
ENDCHAR
STARTCHAR U+0057
ENCODING 87
SWIDTH 500 0
DWIDTH 12 0
BBX 19 24 -3 -2
BITMAP 
000000
000000
000000
000000
000000
01c380
038700
038700
038700
070e00
070e00
076e00
0eec00
0eec00
0fbc00
1f7800
1e7800
1e7800
387000
000000
000000
000000
000000
000000
ENDCHAR
STARTCHAR U+0058
ENCODING 88
SWIDTH 500 0
DWIDTH 12 0
BBX 19 24 -3 -2
BITMAP 
000000
000000
000000
000000
000000
01c380
038700
01ce00
01ce00
01d800
01d800
00f000
01e000
03b000
03b000
0e7000
0e7000
1c3800
387000
000000
000000
000000
000000
000000
ENDCHAR
STARTCHAR U+0059
ENCODING 89
SWIDTH 500 0
DWIDTH 12 0
BBX 19 24 -3 -2
BITMAP 
000000
000000
000000
000000
000000
038380
070700
038e00
038e00
03b800
03f800
01f000
01c000
01c000
01c000
038000
038000
038000
070000
000000
000000
000000
000000
000000
ENDCHAR
STARTCHAR U+005A
ENCODING 90
SWIDTH 500 0
DWIDTH 12 0
BBX 19 24 -3 -2
BITMAP 
000000
000000
000000
000000
000000
03ff80
07ff00
000700
000f00
003c00
007800
00f000
03c000
078000
0f0000
3c0000
380000
3ff800
7ff000
000000
000000
000000
000000
000000
ENDCHAR
STARTCHAR U+005B
ENCODING 91
SWIDTH 500 0
DWIDTH 12 0
BBX 19 24 -3 -2
BITMAP 
000000
000000
000000
000000
007e00
007e00
00e000
00e000
00e000
01c000
01c000
01c000
038000
038000
038000
070000
070000
07e000
0fc000
000000
000000
000000
000000
000000
ENDCHAR
STARTCHAR U+005C
ENCODING 92
SWIDTH 500 0
DWIDTH 12 0
BBX 19 24 -3 -2
BITMAP 
000000
000000
000000
000000
000000
01c000
038000
01c000
01c000
01c000
01c000
00e000
01c000
00e000
00e000
00e000
00e000
007000
00e000
000000
000000
000000
000000
000000
ENDCHAR
STARTCHAR U+005D
ENCODING 93
SWIDTH 500 0
DWIDTH 12 0
BBX 19 24 -3 -2
BITMAP 
000000
000000
000000
000000
00fc00
00fc00
003800
003800
003800
007000
007000
007000
00e000
00e000
00e000
01c000
01c000
0fc000
1f8000
000000
000000
000000
000000
000000
ENDCHAR
STARTCHAR U+005E
ENCODING 94
SWIDTH 500 0
DWIDTH 12 0
BBX 19 24 -3 -2
BITMAP 
000000
000000
000000
000000
001800
003800
00ec00
01ce00
038700
000000
000000
000000
000000
000000
000000
000000
000000
000000
000000
000000
000000
000000
000000
000000
ENDCHAR
STARTCHAR U+005F
ENCODING 95
SWIDTH 500 0
DWIDTH 12 0
BBX 19 24 -3 -2
BITMAP 
000000
000000
000000
000000
000000
000000
000000
000000
000000
000000
000000
000000
000000
000000
000000
000000
000000
000000
000000
000000
fff800
fff000
000000
000000
ENDCHAR
STARTCHAR U+0060
ENCODING 96
SWIDTH 500 0
DWIDTH 12 0
BBX 19 24 -3 -2
BITMAP 
000000
000000
000000
001c00
003800
007000
00e000
00f800
00f800
00e000
000000
000000
000000
000000
000000
000000
000000
000000
000000
000000
000000
000000
000000
000000
ENDCHAR
STARTCHAR U+0061
ENCODING 97
SWIDTH 500 0
DWIDTH 12 0
BBX 19 24 -3 -2
BITMAP 
000000
000000
000000
000000
000000
000000
000000
000000
007c00
01fc00
038e00
000e00
01fc00
07fc00
0e1c00
1c7800
1cf800
1fd800
1f7000
000000
000000
000000
000000
000000
ENDCHAR
STARTCHAR U+0062
ENCODING 98
SWIDTH 500 0
DWIDTH 12 0
BBX 19 24 -3 -2
BITMAP 
000000
000000
000000
000000
000000
01c000
038000
038000
038000
077800
077c00
07de00
0f1c00
0e1c00
0e1c00
1e3800
1f7800
1df000
3bc000
000000
000000
000000
000000
000000
ENDCHAR
STARTCHAR U+0063
ENCODING 99
SWIDTH 500 0
DWIDTH 12 0
BBX 19 24 -3 -2
BITMAP 
000000
000000
000000
000000
000000
000000
000000
000000
000000
01fc00
03fc00
078e00
0e1c00
0e0000
0e0000
1c0000
1e3800
0ff800
0fe000
000000
000000
000000
000000
000000
ENDCHAR
STARTCHAR U+0064
ENCODING 100
SWIDTH 500 0
DWIDTH 12 0
BBX 19 24 -3 -2
BITMAP 
000000
000000
000000
000000
000000
000380
000700
000700
000700
01f600
03fe00
079e00
0e1c00
0e1c00
0e1c00
1c7800
1cf800
0fd800
0f7000
000000
000000
000000
000000
000000
ENDCHAR
STARTCHAR U+0065
ENCODING 101
SWIDTH 500 0
DWIDTH 12 0
BBX 19 24 -3 -2
BITMAP 
000000
000000
000000
000000
000000
000000
000000
000000
000000
01f800
03fc00
078e00
0e1c00
0ffc00
0ffc00
1c0000
1c3800
0ff800
0fe000
000000
000000
000000
000000
000000
ENDCHAR
STARTCHAR U+0066
ENCODING 102
SWIDTH 500 0
DWIDTH 12 0
BBX 19 24 -3 -2
BITMAP 
000000
000000
000000
000000
000000
001e00
007c00
007000
007000
00e000
03f800
03f800
01c000
01c000
01c000
038000
038000
038000
070000
000000
000000
000000
000000
000000
ENDCHAR
STARTCHAR U+0067
ENCODING 103
SWIDTH 500 0
DWIDTH 12 0
BBX 19 24 -3 -2
BITMAP 
000000
000000
000000
000000
000000
000000
000000
000000
000000
01ee00
03f600
07be00
0e3c00
0e1c00
0e1c00
1c3800
1e7800
0ff800
0fb000
007000
007000
00e000
1fc000
0f8000
ENDCHAR
STARTCHAR U+0068
ENCODING 104
SWIDTH 500 0
DWIDTH 12 0
BBX 19 24 -3 -2
BITMAP 
000000
000000
000000
000000
000000
01c000
038000
038000
038000
077800
077c00
07de00
0f1c00
0e1c00
0e1c00
1c3800
1c3800
1c3800
387000
000000
000000
000000
000000
000000
ENDCHAR
STARTCHAR U+0069
ENCODING 105
SWIDTH 500 0
DWIDTH 12 0
BBX 19 24 -3 -2
BITMAP 
000000
000000
000000
000000
000000
003800
007000
000000
000000
00e000
00e000
00e000
01c000
01c000
01c000
038000
038000
038000
070000
000000
000000
000000
000000
000000
ENDCHAR
STARTCHAR U+006A
ENCODING 106
SWIDTH 500 0
DWIDTH 12 0
BBX 19 24 -3 -2
BITMAP 
000000
000000
000000
000000
000000
003800
007000
000000
000000
00e000
00e000
00e000
01c000
01c000
01c000
038000
038000
038000
070000
070000
070000
7e0000
780000
000000
ENDCHAR
STARTCHAR U+006B
ENCODING 107
SWIDTH 500 0
DWIDTH 12 0
BBX 19 24 -3 -2
BITMAP 
000000
000000
000000
000000
000000
000000
038000
038000
038e00
073c00
077800
077000
0fc000
0f8000
0fc000
1dc000
1de000
1cf000
38e000
000000
000000
000000
000000
000000
ENDCHAR
STARTCHAR U+006C
ENCODING 108
SWIDTH 500 0
DWIDTH 12 0
BBX 19 24 -3 -2
BITMAP 
000000
000000
000000
000000
000000
003800
007000
007000
007000
00e000
00e000
00e000
01c000
01c000
01c000
038000
038000
03e000
03c000
000000
000000
000000
000000
000000
ENDCHAR
STARTCHAR U+006D
ENCODING 109
SWIDTH 500 0
DWIDTH 12 0
BBX 19 24 -3 -2
BITMAP 
000000
000000
000000
000000
000000
000000
000000
000000
000000
0edc00
0ffe00
0eee00
1ddc00
1ddc00
1ddc00
3bb800
3bb800
3bb800
777000
000000
000000
000000
000000
000000
ENDCHAR
STARTCHAR U+006E
ENCODING 110
SWIDTH 500 0
DWIDTH 12 0
BBX 19 24 -3 -2
BITMAP 
000000
000000
000000
000000
000000
000000
000000
000000
000000
077800
077c00
07ce00
0f1c00
0e1c00
0e1c00
1c3800
1c3800
1c3800
387000
000000
000000
000000
000000
000000
ENDCHAR
STARTCHAR U+006F
ENCODING 111
SWIDTH 500 0
DWIDTH 12 0
BBX 19 24 -3 -2
BITMAP 
000000
000000
000000
000000
000000
000000
000000
000000
000000
01f800
03fc00
079e00
0e1c00
0e1c00
0e1c00
1c3800
1e7800
0ff000
0fc000
000000
000000
000000
000000
000000
ENDCHAR
STARTCHAR U+0070
ENCODING 112
SWIDTH 500 0
DWIDTH 12 0
BBX 19 24 -3 -2
BITMAP 
000000
000000
000000
000000
000000
000000
000000
000000
000000
077800
077c00
07de00
0f1c00
0e1c00
0e1c00
1e3800
1f7800
1df000
3bc000
380000
380000
700000
700000
000000
ENDCHAR
STARTCHAR U+0071
ENCODING 113
SWIDTH 500 0
DWIDTH 12 0
BBX 19 24 -3 -2
BITMAP 
000000
000000
000000
000000
000000
000000
000000
000000
000000
01ee00
03f600
07be00
0e3c00
0e1c00
0e1c00
1c7800
1ef800
0fd800
0f7000
007000
007000
00e000
00e000
000000
ENDCHAR
STARTCHAR U+0072
ENCODING 114
SWIDTH 500 0
DWIDTH 12 0
BBX 19 24 -3 -2
BITMAP 
000000
000000
000000
000000
000000
000000
000000
000000
000000
077800
077c00
07ce00
0f1c00
0e0000
0e0000
1c0000
1c0000
1c0000
380000
000000
000000
000000
000000
000000
ENDCHAR
STARTCHAR U+0073
ENCODING 115
SWIDTH 500 0
DWIDTH 12 0
BBX 19 24 -3 -2
BITMAP 
000000
000000
000000
000000
000000
000000
000000
000000
000000
03fc00
07fe00
070600
0e0000
07f000
03f000
003800
1c3800
1ff800
1fe000
000000
000000
000000
000000
000000
ENDCHAR
STARTCHAR U+0074
ENCODING 116
SWIDTH 500 0
DWIDTH 12 0
BBX 19 24 -3 -2
BITMAP 
000000
000000
000000
000000
000000
000000
007000
007000
007000
03f800
03f800
00e000
01c000
01c000
01c000
038000
038000
03e000
03c000
000000
000000
000000
000000
000000
ENDCHAR
STARTCHAR U+0075
ENCODING 117
SWIDTH 500 0
DWIDTH 12 0
BBX 19 24 -3 -2
BITMAP 
000000
000000
000000
000000
000000
000000
000000
000000
000000
070e00
070e00
070e00
0e1c00
0e1c00
0e1c00
1c7800
1ef800
0fd800
0f7000
000000
000000
000000
000000
000000
ENDCHAR
STARTCHAR U+0076
ENCODING 118
SWIDTH 500 0
DWIDTH 12 0
BBX 19 24 -3 -2
BITMAP 
000000
000000
000000
000000
000000
000000
000000
000000
000000
0e0e00
0e0e00
071c00
0e3800
077000
077000
07c000
07c000
038000
070000
000000
000000
000000
000000
000000
ENDCHAR
STARTCHAR U+0077
ENCODING 119
SWIDTH 500 0
DWIDTH 12 0
BBX 19 24 -3 -2
BITMAP 
000000
000000
000000
000000
000000
000000
000000
000000
000000
070e00
070e00
070e00
0e1c00
0edc00
0eec00
1dd800
1f7800
1e7800
387000
000000
000000
000000
000000
000000
ENDCHAR
STARTCHAR U+0078
ENCODING 120
SWIDTH 500 0
DWIDTH 12 0
BBX 19 24 -3 -2
BITMAP 
000000
000000
000000
000000
000000
000000
000000
000000
000000
070e00
070e00
031c00
03b000
01e000
01e000
076000
0e7000
1c3800
387000
000000
000000
000000
000000
000000
ENDCHAR
STARTCHAR U+0079
ENCODING 121
SWIDTH 500 0
DWIDTH 12 0
BBX 19 24 -3 -2
BITMAP 
000000
000000
000000
000000
000000
000000
000000
000000
000000
070e00
070e00
070e00
0e1c00
0e1c00
0e1c00
1c3800
1c7800
0ff800
0fb000
007000
007000
00e000
3fc000
1f8000
ENDCHAR
STARTCHAR U+007A
ENCODING 122
SWIDTH 500 0
DWIDTH 12 0
BBX 19 24 -3 -2
BITMAP 
000000
000000
000000
000000
000000
000000
000000
000000
000000
07fe00
07fe00
001c00
007000
00e000
01c000
070000
0e0000
1ff800
3ff000
000000
000000
000000
000000
000000
ENDCHAR
STARTCHAR U+007B
ENCODING 123
SWIDTH 500 0
DWIDTH 12 0
BBX 19 24 -3 -2
BITMAP 
000000
000000
000000
000000
001e00
003800
007000
007000
007000
00e000
01c000
03c000
038000
01c000
01c000
038000
038000
038000
03c000
000000
000000
000000
000000
000000
ENDCHAR
STARTCHAR U+007C
ENCODING 124
SWIDTH 500 0
DWIDTH 12 0
BBX 19 24 -3 -2
BITMAP 
000000
001c00
001c00
003800
003800
003800
007000
007000
007000
00e000
00e000
00e000
01c000
01c000
01c000
038000
038000
038000
070000
070000
070000
0e0000
0e0000
000000
ENDCHAR
STARTCHAR U+007D
ENCODING 125
SWIDTH 500 0
DWIDTH 12 0
BBX 19 24 -3 -2
BITMAP 
000000
000000
000000
000000
00f000
003800
007000
007000
007000
00e000
007000
007800
00e000
01c000
01c000
038000
038000
038000
1e0000
000000
000000
000000
000000
000000
ENDCHAR
STARTCHAR U+007E
ENCODING 126
SWIDTH 500 0
DWIDTH 12 0
BBX 19 24 -3 -2
BITMAP 
000000
000000
000000
000000
00f180
01fb80
037f00
071e00
000000
000000
000000
000000
000000
000000
000000
000000
000000
000000
000000
000000
000000
000000
000000
000000
ENDCHAR
STARTCHAR U+00A0
ENCODING 160
SWIDTH 500 0
DWIDTH 12 0
BBX 19 24 -3 -2
BITMAP 
000000
000000
000000
000000
000000
000000
000000
000000
000000
000000
000000
000000
000000
000000
000000
000000
000000
000000
000000
000000
000000
000000
000000
000000
ENDCHAR
STARTCHAR U+00A1
ENCODING 161
SWIDTH 500 0
DWIDTH 12 0
BBX 19 24 -3 -2
BITMAP 
000000
000000
000000
000000
003800
007c00
007000
000000
000000
00e000
00e000
00e000
01c000
01c000
01c000
038000
038000
038000
070000
000000
000000
000000
000000
000000
ENDCHAR
STARTCHAR U+00A2
ENCODING 162
SWIDTH 500 0
DWIDTH 12 0
BBX 19 24 -3 -2
BITMAP 
000000
000000
000000
000000
000000
001c00
003800
00fc00
01fc00
07b600
077600
077000
0ee000
0eec00
0f6c00
0ff000
07e000
01c000
038000
000000
000000
000000
000000
000000
ENDCHAR
STARTCHAR U+00A3
ENCODING 163
SWIDTH 500 0
DWIDTH 12 0
BBX 19 24 -3 -2
BITMAP 
000000
000000
000000
000000
000000
003e00
00fe00
01ee00
01c000
038000
03c000
07fc00
0ff800
038000
038000
0fe000
1ff000
1e7800
387000
000000
000000
000000
000000
000000
ENDCHAR
STARTCHAR U+00A4
ENCODING 164
SWIDTH 500 0
DWIDTH 12 0
BBX 19 24 -3 -2
BITMAP 
000000
000000
000000
000000
000000
000000
000000
070700
07b700
07fc00
03b800
071c00
0e3800
077000
0ff800
3db800
383800
000000
000000
000000
000000
000000
000000
000000
ENDCHAR
STARTCHAR U+00A5
ENCODING 165
SWIDTH 500 0
DWIDTH 12 0
BBX 19 24 -3 -2
BITMAP 
000000
000000
000000
000000
000000
01c700
03de00
01dc00
01fc00
01f000
07fc00
07fc00
01c000
0ff800
0ff800
038000
038000
038000
070000
000000
000000
000000
000000
000000
ENDCHAR
STARTCHAR U+00A6
ENCODING 166
SWIDTH 500 0
DWIDTH 12 0
BBX 19 24 -3 -2
BITMAP 
000000
001c00
001c00
003800
003800
003800
007000
007000
007000
00e000
00e000
000000
000000
01c000
01c000
038000
038000
038000
070000
070000
070000
0e0000
0e0000
000000
ENDCHAR
STARTCHAR U+00A7
ENCODING 167
SWIDTH 500 0
DWIDTH 12 0
BBX 19 24 -3 -2
BITMAP 
000000
000000
000000
007e00
00ff00
01e780
038700
03c000
01fc00
03fc00
070e00
070e00
07f800
03f800
003c00
1c3800
1e7800
0ff000
0fc000
000000
000000
000000
000000
000000
ENDCHAR
STARTCHAR U+00A8
ENCODING 168
SWIDTH 500 0
DWIDTH 12 0
BBX 19 24 -3 -2
BITMAP 
000000
007380
007380
000000
000000
000000
000000
000000
000000
000000
000000
000000
000000
000000
000000
000000
000000
000000
000000
000000
000000
000000
000000
000000
ENDCHAR
STARTCHAR U+00A9
ENCODING 169
SWIDTH 500 0
DWIDTH 12 0
BBX 19 24 -3 -2
BITMAP 
000000
000000
003f00
00ff00
01e780
01c380
03bb00
03ff00
03ef00
078e00
078e00
078e00
0fbc00
0ffc00
0eec00
1c3800
1e7800
0ff000
0fc000
000000
000000
000000
000000
000000
ENDCHAR
STARTCHAR U+00AA
ENCODING 170
SWIDTH 500 0
DWIDTH 12 0
BBX 19 24 -3 -2
BITMAP 
003f00
007f80
007380
003f00
007f00
00e700
01fe00
00fe00
000000
03fc00
03fc00
000000
000000
000000
000000
000000
000000
000000
000000
000000
000000
000000
000000
000000
ENDCHAR
STARTCHAR U+00AB
ENCODING 171
SWIDTH 500 0
DWIDTH 12 0
BBX 19 24 -3 -2
BITMAP 
000000
000000
000000
000000
000000
000000
007600
00ec00
00ec00
03b000
03b000
07e000
0ec000
076000
07e000
076000
076000
03b000
000000
000000
000000
000000
000000
000000
ENDCHAR
STARTCHAR U+00AC
ENCODING 172
SWIDTH 500 0
DWIDTH 12 0
BBX 19 24 -3 -2
BITMAP 
000000
000000
000000
000000
000000
000000
000000
000000
000000
000000
000000
0ffe00
1ffc00
001c00
001c00
003800
000000
000000
000000
000000
000000
000000
000000
000000
ENDCHAR
STARTCHAR U+00AD
ENCODING 173
SWIDTH 500 0
DWIDTH 12 0
BBX 19 24 -3 -2
BITMAP 
000000
000000
000000
000000
000000
000000
000000
000000
000000
000000
000000
000000
1ffc00
1ffc00
000000
000000
000000
000000
000000
000000
000000
000000
000000
000000
ENDCHAR
STARTCHAR U+00AE
ENCODING 174
SWIDTH 500 0
DWIDTH 12 0
BBX 19 24 -3 -2
BITMAP 
000000
000000
003f00
00ff00
01e780
01c380
03fb00
03ff00
03db00
079e00
07fe00
07f600
0f6c00
0f7c00
0f7c00
1c3800
1e7800
0ff000
0fc000
000000
000000
000000
000000
000000
ENDCHAR
STARTCHAR U+00AF
ENCODING 175
SWIDTH 500 0
DWIDTH 12 0
BBX 19 24 -3 -2
BITMAP 
01ffc0
01ffc0
000000
000000
000000
000000
000000
000000
000000
000000
000000
000000
000000
000000
000000
000000
000000
000000
000000
000000
000000
000000
000000
000000
ENDCHAR
STARTCHAR U+00B0
ENCODING 176
SWIDTH 500 0
DWIDTH 12 0
BBX 19 24 -3 -2
BITMAP 
001e00
003b00
003b00
003c00
000000
000000
000000
000000
000000
000000
000000
000000
000000
000000
000000
000000
000000
000000
000000
000000
000000
000000
000000
000000
ENDCHAR
STARTCHAR U+00B1
ENCODING 177
SWIDTH 500 0
DWIDTH 12 0
BBX 19 24 -3 -2
BITMAP 
000000
000000
000000
000000
000000
000000
007000
007000
007000
07fc00
07fc00
00e000
01c000
01c000
000000
000000
1ff000
1ff000
000000
000000
000000
000000
000000
000000
ENDCHAR
STARTCHAR U+00B2
ENCODING 178
SWIDTH 500 0
DWIDTH 12 0
BBX 19 24 -3 -2
BITMAP 
003f00
007f80
007380
000f00
001e00
003c00
00f000
01e000
01fe00
03fc00
000000
000000
000000
000000
000000
000000
000000
000000
000000
000000
000000
000000
000000
000000
ENDCHAR
STARTCHAR U+00B3
ENCODING 179
SWIDTH 500 0
DWIDTH 12 0
BBX 19 24 -3 -2
BITMAP 
003f00
007f80
007380
000700
003f00
003f00
000e00
01ce00
01fe00
01f800
000000
000000
000000
000000
000000
000000
000000
000000
000000
000000
000000
000000
000000
000000
ENDCHAR
STARTCHAR U+00B4
ENCODING 180
SWIDTH 500 0
DWIDTH 12 0
BBX 19 24 -3 -2
BITMAP 
000e00
001e00
003800
000000
000000
000000
000000
000000
000000
000000
000000
000000
000000
000000
000000
000000
000000
000000
000000
000000
000000
000000
000000
000000
ENDCHAR
STARTCHAR U+00B5
ENCODING 181
SWIDTH 500 0
DWIDTH 12 0
BBX 19 24 -3 -2
BITMAP 
000000
000000
000000
000000
000000
000000
000000
000000
000000
00ee00
00ee00
00ee00
01dc00
03d800
03b800
077000
07f800
0ff800
1c7000
1c0000
3c0000
700000
700000
700000
ENDCHAR
STARTCHAR U+00B6
ENCODING 182
SWIDTH 500 0
DWIDTH 12 0
BBX 19 24 -3 -2
BITMAP 
000000
000000
000000
000000
000000
007f80
01fd00
03fd00
03fd00
07fa00
07fa00
03fa00
03f400
003400
003400
006800
006800
006800
00f000
000000
000000
000000
000000
000000
ENDCHAR
STARTCHAR U+00B7
ENCODING 183
SWIDTH 500 0
DWIDTH 12 0
BBX 19 24 -3 -2
BITMAP 
000000
000000
000000
000000
000000
000000
000000
000000
000000
000000
00e000
01f000
03e000
01c000
000000
000000
000000
000000
000000
000000
000000
000000
000000
000000
ENDCHAR
STARTCHAR U+00B8
ENCODING 184
SWIDTH 500 0
DWIDTH 12 0
BBX 19 24 -3 -2
BITMAP 
000000
000000
000000
000000
000000
000000
000000
000000
000000
000000
000000
000000
000000
000000
000000
000000
000000
000000
070000
070000
070000
038000
1f8000
1f0000
ENDCHAR
STARTCHAR U+00B9
ENCODING 185
SWIDTH 500 0
DWIDTH 12 0
BBX 19 24 -3 -2
BITMAP 
001c00
003c00
007c00
003800
003800
003800
007000
007000
01fc00
03f800
000000
000000
000000
000000
000000
000000
000000
000000
000000
000000
000000
000000
000000
000000
ENDCHAR
STARTCHAR U+00BA
ENCODING 186
SWIDTH 500 0
DWIDTH 12 0
BBX 19 24 -3 -2
BITMAP 
003f00
007f80
007380
00e700
00e700
00e700
01fe00
00fc00
000000
03fc00
03fc00
000000
000000
000000
000000
000000
000000
000000
000000
000000
000000
000000
000000
000000
ENDCHAR
STARTCHAR U+00BB
ENCODING 187
SWIDTH 500 0
DWIDTH 12 0
BBX 19 24 -3 -2
BITMAP 
000000
000000
000000
000000
000000
000000
01d800
00ec00
00fc00
00ec00
00ec00
007600
00dc00
01d800
01d800
076000
076000
0ec000
000000
000000
000000
000000
000000
000000
ENDCHAR
STARTCHAR U+00BC
ENCODING 188
SWIDTH 500 0
DWIDTH 12 0
BBX 19 24 -3 -2
BITMAP 
000000
000000
007000
01e000
00e000
00e000
01c000
01c700
03ef00
07bc00
007800
00f000
03c000
07b800
0f7800
3df000
3bb000
03f800
07f000
00e000
00e000
000000
000000
000000
ENDCHAR
STARTCHAR U+00BD
ENCODING 189
SWIDTH 500 0
DWIDTH 12 0
BBX 19 24 -3 -2
BITMAP 
000000
000000
007000
01e000
00e000
00e000
01c000
01c700
03ef00
07bc00
007800
00f000
03c000
07b800
0ffc00
3dd800
383800
007000
01c000
03f000
03f000
000000
000000
000000
ENDCHAR
STARTCHAR U+00BE
ENCODING 190
SWIDTH 500 0
DWIDTH 12 0
BBX 19 24 -3 -2
BITMAP 
000000
000000
00f800
01f800
003800
00f000
01e000
007700
03f700
07dc00
007800
00f000
03c000
07b800
0f7800
3df000
3bb000
03f800
07f000
00e000
00e000
000000
000000
000000
ENDCHAR
STARTCHAR U+00BF
ENCODING 191
SWIDTH 500 0
DWIDTH 12 0
BBX 19 24 -3 -2
BITMAP 
000000
000000
000000
000000
003800
007c00
007000
000000
000000
00e000
00e000
00e000
038000
070000
0e0000
1c3000
1ef000
0fe000
0f8000
000000
000000
000000
000000
000000
ENDCHAR
STARTCHAR U+00C0
ENCODING 192
SWIDTH 500 0
DWIDTH 12 0
BBX 19 24 -3 -2
BITMAP 
001c00
001e00
000700
000000
000000
007e00
01fe00
03cf00
038700
070e00
070e00
07fe00
0ffc00
0e1c00
0e1c00
1c3800
1c3800
1c3800
387000
000000
000000
000000
000000
000000
ENDCHAR
STARTCHAR U+00C1
ENCODING 193
SWIDTH 500 0
DWIDTH 12 0
BBX 19 24 -3 -2
BITMAP 
000e00
001e00
003800
000000
000000
007e00
01fe00
03cf00
038700
070e00
070e00
07fe00
0ffc00
0e1c00
0e1c00
1c3800
1c3800
1c3800
387000
000000
000000
000000
000000
000000
ENDCHAR
STARTCHAR U+00C2
ENCODING 194
SWIDTH 500 0
DWIDTH 12 0
BBX 19 24 -3 -2
BITMAP 
001e00
003f00
007380
000000
000000
007e00
01fe00
03cf00
038700
070e00
070e00
07fe00
0ffc00
0e1c00
0e1c00
1c3800
1c3800
1c3800
387000
000000
000000
000000
000000
000000
ENDCHAR
STARTCHAR U+00C3
ENCODING 195
SWIDTH 500 0
DWIDTH 12 0
BBX 19 24 -3 -2
BITMAP 
0078c0
00edc0
00cf80
000000
000000
007e00
01fe00
03cf00
038700
070e00
070e00
07fe00
0ffc00
0e1c00
0e1c00
1c3800
1c3800
1c3800
387000
000000
000000
000000
000000
000000
ENDCHAR
STARTCHAR U+00C4
ENCODING 196
SWIDTH 500 0
DWIDTH 12 0
BBX 19 24 -3 -2
BITMAP 
000000
007380
007380
000000
000000
007e00
01fe00
03cf00
038700
070e00
070e00
07fe00
0ffc00
0e1c00
0e1c00
1c3800
1c3800
1c3800
387000
000000
000000
000000
000000
000000
ENDCHAR
STARTCHAR U+00C5
ENCODING 197
SWIDTH 500 0
DWIDTH 12 0
BBX 19 24 -3 -2
BITMAP 
001e00
003b00
003b00
003c00
000000
007e00
01fe00
03cf00
038700
070e00
070e00
07fe00
0ffc00
0e1c00
0e1c00
1c3800
1c3800
1c3800
387000
000000
000000
000000
000000
000000
ENDCHAR
STARTCHAR U+00C6
ENCODING 198
SWIDTH 500 0
DWIDTH 12 0
BBX 19 24 -3 -2
BITMAP 
000000
000000
000000
000000
000000
00ff80
01ff00
03b800
03b800
0e7000
0e7e00
0ffe00
1fe000
1ce000
1ce000
39c000
39c000
39f800
73f000
000000
000000
000000
000000
000000
ENDCHAR
STARTCHAR U+00C7
ENCODING 199
SWIDTH 500 0
DWIDTH 12 0
BBX 19 24 -3 -2
BITMAP 
000000
000000
000000
000000
000000
007e00
01fe00
03cf00
038700
070000
070000
070000
0e0000
0e0000
0e0000
1c3800
1e7800
0ff000
0fc000
070000
070000
038000
1f8000
1f0000
ENDCHAR
STARTCHAR U+00C8
ENCODING 200
SWIDTH 500 0
DWIDTH 12 0
BBX 19 24 -3 -2
BITMAP 
001c00
001e00
000700
000000
000000
01ff80
03ff00
038000
038000
070000
070000
07f800
0ff000
0e0000
0e0000
1c0000
1c0000
1ff800
3ff000
000000
000000
000000
000000
000000
ENDCHAR
STARTCHAR U+00C9
ENCODING 201
SWIDTH 500 0
DWIDTH 12 0
BBX 19 24 -3 -2
BITMAP 
000e00
001e00
003800
000000
000000
01ff80
03ff00
038000
038000
070000
070000
07f800
0ff000
0e0000
0e0000
1c0000
1c0000
1ff800
3ff000
000000
000000
000000
000000
000000
ENDCHAR
STARTCHAR U+00CA
ENCODING 202
SWIDTH 500 0
DWIDTH 12 0
BBX 19 24 -3 -2
BITMAP 
001e00
003f00
007380
000000
000000
01ff80
03ff00
038000
038000
070000
070000
07f800
0ff000
0e0000
0e0000
1c0000
1c0000
1ff800
3ff000
000000
000000
000000
000000
000000
ENDCHAR
STARTCHAR U+00CB
ENCODING 203
SWIDTH 500 0
DWIDTH 12 0
BBX 19 24 -3 -2
BITMAP 
000000
007380
007380
000000
000000
01ff80
03ff00
038000
038000
070000
070000
07f800
0ff000
0e0000
0e0000
1c0000
1c0000
1ff800
3ff000
000000
000000
000000
000000
000000
ENDCHAR
STARTCHAR U+00CC
ENCODING 204
SWIDTH 500 0
DWIDTH 12 0
BBX 19 24 -3 -2
BITMAP 
003800
003c00
000e00
000000
000000
00fe00
01fc00
007000
007000
00e000
00e000
00e000
01c000
01c000
01c000
038000
038000
0fe000
1fc000
000000
000000
000000
000000
000000
ENDCHAR
STARTCHAR U+00CD
ENCODING 205
SWIDTH 500 0
DWIDTH 12 0
BBX 19 24 -3 -2
BITMAP 
000e00
001e00
003800
000000
000000
00fe00
01fc00
007000
007000
00e000
00e000
00e000
01c000
01c000
01c000
038000
038000
0fe000
1fc000
000000
000000
000000
000000
000000
ENDCHAR
STARTCHAR U+00CE
ENCODING 206
SWIDTH 500 0
DWIDTH 12 0
BBX 19 24 -3 -2
BITMAP 
001c00
003e00
007700
000000
000000
00fe00
01fc00
007000
007000
00e000
00e000
00e000
01c000
01c000
01c000
038000
038000
0fe000
1fc000
000000
000000
000000
000000
000000
ENDCHAR
STARTCHAR U+00CF
ENCODING 207
SWIDTH 500 0
DWIDTH 12 0
BBX 19 24 -3 -2
BITMAP 
000000
007700
007700
000000
000000
00fe00
01fc00
007000
007000
00e000
00e000
00e000
01c000
01c000
01c000
038000
038000
0fe000
1fc000
000000
000000
000000
000000
000000
ENDCHAR
STARTCHAR U+00D0
ENCODING 208
SWIDTH 500 0
DWIDTH 12 0
BBX 19 24 -3 -2
BITMAP 
000000
000000
000000
000000
000000
01fe00
03fe00
038f00
038700
070e00
070e00
0fee00
1fdc00
0e1c00
0e1c00
1c3800
1c7800
1ff000
3fc000
000000
000000
000000
000000
000000
ENDCHAR
STARTCHAR U+00D1
ENCODING 209
SWIDTH 500 0
DWIDTH 12 0
BBX 19 24 -3 -2
BITMAP 
0078c0
00edc0
00cf80
000000
000000
01c380
03c700
03c700
03e700
07ce00
076e00
076e00
0eec00
0eec00
0e7c00
1cf800
1c7800
1c7800
387000
000000
000000
000000
000000
000000
ENDCHAR
STARTCHAR U+00D2
ENCODING 210
SWIDTH 500 0
DWIDTH 12 0
BBX 19 24 -3 -2
BITMAP 
001c00
001e00
000700
000000
000000
007e00
01fe00
03cf00
038700
070e00
070e00
070e00
0e1c00
0e1c00
0e1c00
1c3800
1e7800
0ff000
0fc000
000000
000000
000000
000000
000000
ENDCHAR
STARTCHAR U+00D3
ENCODING 211
SWIDTH 500 0
DWIDTH 12 0
BBX 19 24 -3 -2
BITMAP 
000e00
001e00
003800
000000
000000
007e00
01fe00
03cf00
038700
070e00
070e00
070e00
0e1c00
0e1c00
0e1c00
1c3800
1e7800
0ff000
0fc000
000000
000000
000000
000000
000000
ENDCHAR
STARTCHAR U+00D4
ENCODING 212
SWIDTH 500 0
DWIDTH 12 0
BBX 19 24 -3 -2
BITMAP 
001e00
003f00
007380
000000
000000
007e00
01fe00
03cf00
038700
070e00
070e00
070e00
0e1c00
0e1c00
0e1c00
1c3800
1e7800
0ff000
0fc000
000000
000000
000000
000000
000000
ENDCHAR
STARTCHAR U+00D5
ENCODING 213
SWIDTH 500 0
DWIDTH 12 0
BBX 19 24 -3 -2
BITMAP 
0078c0
00edc0
00cf80
000000
000000
007e00
01fe00
03cf00
038700
070e00
070e00
070e00
0e1c00
0e1c00
0e1c00
1c3800
1e7800
0ff000
0fc000
000000
000000
000000
000000
000000
ENDCHAR
STARTCHAR U+00D6
ENCODING 214
SWIDTH 500 0
DWIDTH 12 0
BBX 19 24 -3 -2
BITMAP 
000000
007380
007380
000000
000000
007e00
01fe00
03cf00
038700
070e00
070e00
070e00
0e1c00
0e1c00
0e1c00
1c3800
1e7800
0ff000
0fc000
000000
000000
000000
000000
000000
ENDCHAR
STARTCHAR U+00D7
ENCODING 215
SWIDTH 500 0
DWIDTH 12 0
BBX 19 24 -3 -2
BITMAP 
000000
000000
000000
000000
000000
000000
000000
000000
038700
079e00
03dc00
01f800
01e000
03f000
07b800
1e7800
1c3800
000000
000000
000000
000000
000000
000000
000000
ENDCHAR
STARTCHAR U+00D8
ENCODING 216
SWIDTH 500 0
DWIDTH 12 0
BBX 19 24 -3 -2
BITMAP 
000000
000000
000000
000000
000000
007e80
01ff00
03cf00
038f00
071e00
073600
077600
0edc00
0e9c00
0f9c00
1e3800
1e7800
1ff000
37c000
000000
000000
000000
000000
000000
ENDCHAR
STARTCHAR U+00D9
ENCODING 217
SWIDTH 500 0
DWIDTH 12 0
BBX 19 24 -3 -2
BITMAP 
001c00
001e00
000700
000000
000000
01c380
038700
038700
038700
070e00
070e00
070e00
0e1c00
0e1c00
0e1c00
1c3800
1e7800
0ff000
0fc000
000000
000000
000000
000000
000000
ENDCHAR
STARTCHAR U+00DA
ENCODING 218
SWIDTH 500 0
DWIDTH 12 0
BBX 19 24 -3 -2
BITMAP 
000e00
001e00
003800
000000
000000
01c380
038700
038700
038700
070e00
070e00
070e00
0e1c00
0e1c00
0e1c00
1c3800
1e7800
0ff000
0fc000
000000
000000
000000
000000
000000
ENDCHAR
STARTCHAR U+00DB
ENCODING 219
SWIDTH 500 0
DWIDTH 12 0
BBX 19 24 -3 -2
BITMAP 
001e00
003f00
007380
000000
000000
01c380
038700
038700
038700
070e00
070e00
070e00
0e1c00
0e1c00
0e1c00
1c3800
1e7800
0ff000
0fc000
000000
000000
000000
000000
000000
ENDCHAR
STARTCHAR U+00DC
ENCODING 220
SWIDTH 500 0
DWIDTH 12 0
BBX 19 24 -3 -2
BITMAP 
000000
007380
007380
000000
000000
01c380
038700
038700
038700
070e00
070e00
070e00
0e1c00
0e1c00
0e1c00
1c3800
1e7800
0ff000
0fc000
000000
000000
000000
000000
000000
ENDCHAR
STARTCHAR U+00DD
ENCODING 221
SWIDTH 500 0
DWIDTH 12 0
BBX 19 24 -3 -2
BITMAP 
000e00
001e00
003800
000000
000000
038380
070700
038e00
038e00
03b800
03f800
01f000
01c000
01c000
01c000
038000
038000
038000
070000
000000
000000
000000
000000
000000
ENDCHAR
STARTCHAR U+00DE
ENCODING 222
SWIDTH 500 0
DWIDTH 12 0
BBX 19 24 -3 -2
BITMAP 
000000
000000
000000
000000
000000
01ce00
03be00
03b700
03e700
078e00
070e00
070e00
0f1c00
0f9c00
0e9c00
1df000
1ce000
1c0000
380000
700000
600000
000000
000000
000000
ENDCHAR
STARTCHAR U+00DF
ENCODING 223
SWIDTH 500 0
DWIDTH 12 0
BBX 19 24 -3 -2
BITMAP 
000000
000000
000000
000000
000000
007e00
01fe00
03cf00
038700
070e00
071e00
077c00
0efc00
0e3c00
0e1c00
1c3800
1c7800
1df000
3bc000
000000
000000
000000
000000
000000
ENDCHAR
STARTCHAR U+00E0
ENCODING 224
SWIDTH 500 0
DWIDTH 12 0
BBX 19 24 -3 -2
BITMAP 
000000
000000
000000
003800
003c00
000e00
000000
000000
007c00
01fc00
038e00
000e00
01fc00
07fc00
0e1c00
1c7800
1cf800
1fd800
1f7000
000000
000000
000000
000000
000000
ENDCHAR
STARTCHAR U+00E1
ENCODING 225
SWIDTH 500 0
DWIDTH 12 0
BBX 19 24 -3 -2
BITMAP 
000000
000000
000000
000e00
001e00
003800
000000
000000
007c00
01fc00
038e00
000e00
01fc00
07fc00
0e1c00
1c7800
1cf800
1fd800
1f7000
000000
000000
000000
000000
000000
ENDCHAR
STARTCHAR U+00E2
ENCODING 226
SWIDTH 500 0
DWIDTH 12 0
BBX 19 24 -3 -2
BITMAP 
000000
000000
000000
003c00
007e00
00e700
000000
000000
007c00
01fc00
038e00
000e00
01fc00
07fc00
0e1c00
1c7800
1cf800
1fd800
1f7000
000000
000000
000000
000000
000000
ENDCHAR
STARTCHAR U+00E3
ENCODING 227
SWIDTH 500 0
DWIDTH 12 0
BBX 19 24 -3 -2
BITMAP 
000000
000000
000000
00f180
01db80
019f00
000000
000000
007c00
01fc00
038e00
000e00
01fc00
07fc00
0e1c00
1c7800
1cf800
1fd800
1f7000
000000
000000
000000
000000
000000
ENDCHAR
STARTCHAR U+00E4
ENCODING 228
SWIDTH 500 0
DWIDTH 12 0
BBX 19 24 -3 -2
BITMAP 
000000
000000
000000
000000
007700
007700
000000
000000
007c00
01fc00
038e00
000e00
01fc00
07fc00
0e1c00
1c7800
1cf800
1fd800
1f7000
000000
000000
000000
000000
000000
ENDCHAR
STARTCHAR U+00E5
ENCODING 229
SWIDTH 500 0
DWIDTH 12 0
BBX 19 24 -3 -2
BITMAP 
000000
000000
000000
003c00
007600
007600
007800
000000
007c00
01fc00
038e00
000e00
01fc00
07fc00
0e1c00
1c7800
1cf800
1fd800
1f7000
000000
000000
000000
000000
000000
ENDCHAR
STARTCHAR U+00E6
ENCODING 230
SWIDTH 500 0
DWIDTH 12 0
BBX 19 24 -3 -2
BITMAP 
000000
000000
000000
000000
000000
000000
000000
000000
03de00
07fe00
0cee00
00ee00
07fc00
0ff800
1dc000
3b8000
3bb800
3ff800
3fe000
000000
000000
000000
000000
000000
ENDCHAR
STARTCHAR U+00E7
ENCODING 231
SWIDTH 500 0
DWIDTH 12 0
BBX 19 24 -3 -2
BITMAP 
000000
000000
000000
000000
000000
000000
000000
000000
000000
00fc00
03fc00
078e00
0e1c00
0e0000
0e0000
1c0000
1e3800
0ff800
0fe000
070000
070000
038000
1f8000
1f0000
ENDCHAR
STARTCHAR U+00E8
ENCODING 232
SWIDTH 500 0
DWIDTH 12 0
BBX 19 24 -3 -2
BITMAP 
000000
000000
000000
000000
003800
003800
001c00
000000
000000
01f800
03fc00
078e00
0e1c00
0ffc00
0ffc00
1c0000
1c3800
0ff800
0fe000
000000
000000
000000
000000
000000
ENDCHAR
STARTCHAR U+00E9
ENCODING 233
SWIDTH 500 0
DWIDTH 12 0
BBX 19 24 -3 -2
BITMAP 
000000
000000
000000
000000
001c00
003c00
00e000
000000
000000
01f800
03fc00
078e00
0e1c00
0ffc00
0ffc00
1c0000
1c3800
0ff800
0fe000
000000
000000
000000
000000
000000
ENDCHAR
STARTCHAR U+00EA
ENCODING 234
SWIDTH 500 0
DWIDTH 12 0
BBX 19 24 -3 -2
BITMAP 
000000
000000
000000
000000
003c00
007c00
01ce00
000000
000000
01f800
03fc00
078e00
0e1c00
0ffc00
0ffc00
1c0000
1c3800
0ff800
0fe000
000000
000000
000000
000000
000000
ENDCHAR
STARTCHAR U+00EB
ENCODING 235
SWIDTH 500 0
DWIDTH 12 0
BBX 19 24 -3 -2
BITMAP 
000000
000000
000000
000000
000000
00e700
01ce00
000000
000000
01f800
03fc00
078e00
0e1c00
0ffc00
0ffc00
1c0000
1c3800
0ff800
0fe000
000000
000000
000000
000000
000000
ENDCHAR
STARTCHAR U+00EC
ENCODING 236
SWIDTH 500 0
DWIDTH 12 0
BBX 19 24 -3 -2
BITMAP 
000000
000000
000000
000000
007000
007000
003800
000000
000000
00e000
00e000
00e000
01c000
01c000
01c000
038000
038000
038000
070000
000000
000000
000000
000000
000000
ENDCHAR
STARTCHAR U+00ED
ENCODING 237
SWIDTH 500 0
DWIDTH 12 0
BBX 19 24 -3 -2
BITMAP 
000000
000000
000000
000000
001c00
003c00
00e000
000000
000000
00e000
00e000
00e000
01c000
01c000
01c000
038000
038000
038000
070000
000000
000000
000000
000000
000000
ENDCHAR
STARTCHAR U+00EE
ENCODING 238
SWIDTH 500 0
DWIDTH 12 0
BBX 19 24 -3 -2
BITMAP 
000000
000000
000000
000000
003800
007800
01dc00
000000
000000
00e000
00e000
00e000
01c000
01c000
01c000
038000
038000
038000
070000
000000
000000
000000
000000
000000
ENDCHAR
STARTCHAR U+00EF
ENCODING 239
SWIDTH 500 0
DWIDTH 12 0
BBX 19 24 -3 -2
BITMAP 
000000
000000
000000
000000
000000
00ee00
01dc00
000000
000000
00e000
00e000
00e000
01c000
01c000
01c000
038000
038000
038000
070000
000000
000000
000000
000000
000000
ENDCHAR
STARTCHAR U+00F0
ENCODING 240
SWIDTH 500 0
DWIDTH 12 0
BBX 19 24 -3 -2
BITMAP 
000000
000000
000000
000000
000000
00f780
01ff00
003c00
00fe00
07de00
070e00
01fe00
07fc00
0f1c00
0e1c00
1c3800
1e7800
0ff000
0fc000
000000
000000
000000
000000
000000
ENDCHAR
STARTCHAR U+00F1
ENCODING 241
SWIDTH 500 0
DWIDTH 12 0
BBX 19 24 -3 -2
BITMAP 
000000
000000
000000
000000
00f180
01d380
033e00
000000
000000
077800
077c00
07ce00
0f1c00
0e1c00
0e1c00
1c3800
1c3800
1c3800
387000
000000
000000
000000
000000
000000
ENDCHAR
STARTCHAR U+00F2
ENCODING 242
SWIDTH 500 0
DWIDTH 12 0
BBX 19 24 -3 -2
BITMAP 
000000
000000
000000
000000
003800
003800
001c00
000000
000000
01f800
03fc00
079e00
0e1c00
0e1c00
0e1c00
1c3800
1e7800
0ff000
0fc000
000000
000000
000000
000000
000000
ENDCHAR
STARTCHAR U+00F3
ENCODING 243
SWIDTH 500 0
DWIDTH 12 0
BBX 19 24 -3 -2
BITMAP 
000000
000000
000000
000000
001c00
003c00
00e000
000000
000000
01f800
03fc00
079e00
0e1c00
0e1c00
0e1c00
1c3800
1e7800
0ff000
0fc000
000000
000000
000000
000000
000000
ENDCHAR
STARTCHAR U+00F4
ENCODING 244
SWIDTH 500 0
DWIDTH 12 0
BBX 19 24 -3 -2
BITMAP 
000000
000000
000000
000000
003c00
007c00
01ce00
000000
000000
01f800
03fc00
079e00
0e1c00
0e1c00
0e1c00
1c3800
1e7800
0ff000
0fc000
000000
000000
000000
000000
000000
ENDCHAR
STARTCHAR U+00F5
ENCODING 245
SWIDTH 500 0
DWIDTH 12 0
BBX 19 24 -3 -2
BITMAP 
000000
000000
000000
000000
00f180
01d380
033e00
000000
000000
01f800
03fc00
079e00
0e1c00
0e1c00
0e1c00
1c3800
1e7800
0ff000
0fc000
000000
000000
000000
000000
000000
ENDCHAR
STARTCHAR U+00F6
ENCODING 246
SWIDTH 500 0
DWIDTH 12 0
BBX 19 24 -3 -2
BITMAP 
000000
000000
000000
000000
000000
00e700
01ce00
000000
000000
01f800
03fc00
079e00
0e1c00
0e1c00
0e1c00
1c3800
1e7800
0ff000
0fc000
000000
000000
000000
000000
000000
ENDCHAR
STARTCHAR U+00F7
ENCODING 247
SWIDTH 500 0
DWIDTH 12 0
BBX 19 24 -3 -2
BITMAP 
000000
000000
000000
000000
000000
000000
000000
000000
007000
01f000
00e000
000000
1ffc00
1ffc00
000000
038000
07c000
038000
000000
000000
000000
000000
000000
000000
ENDCHAR
STARTCHAR U+00F8
ENCODING 248
SWIDTH 500 0
DWIDTH 12 0
BBX 19 24 -3 -2
BITMAP 
000000
000000
000000
000000
000000
000000
000000
000000
000000
01f600
03fe00
07bc00
0efc00
0eec00
0eec00
1fb800
0f7800
1ff000
3bc000
000000
000000
000000
000000
000000
ENDCHAR
STARTCHAR U+00F9
ENCODING 249
SWIDTH 500 0
DWIDTH 12 0
BBX 19 24 -3 -2
BITMAP 
000000
000000
000000
000000
003800
003800
001c00
000000
000000
070e00
070e00
070e00
0e1c00
0e1c00
0e1c00
1c7800
1ef800
0fd800
0f7000
000000
000000
000000
000000
000000
ENDCHAR
STARTCHAR U+00FA
ENCODING 250
SWIDTH 500 0
DWIDTH 12 0
BBX 19 24 -3 -2
BITMAP 
000000
000000
000000
000000
001c00
003c00
00e000
000000
000000
070e00
070e00
070e00
0e1c00
0e1c00
0e1c00
1c7800
1ef800
0fd800
0f7000
000000
000000
000000
000000
000000
ENDCHAR
STARTCHAR U+00FB
ENCODING 251
SWIDTH 500 0
DWIDTH 12 0
BBX 19 24 -3 -2
BITMAP 
000000
000000
000000
000000
003c00
007c00
01ce00
000000
000000
070e00
070e00
070e00
0e1c00
0e1c00
0e1c00
1c7800
1ef800
0fd800
0f7000
000000
000000
000000
000000
000000
ENDCHAR
STARTCHAR U+00FC
ENCODING 252
SWIDTH 500 0
DWIDTH 12 0
BBX 19 24 -3 -2
BITMAP 
000000
000000
000000
000000
000000
00e700
01ce00
000000
000000
070e00
070e00
070e00
0e1c00
0e1c00
0e1c00
1c7800
1ef800
0fd800
0f7000
000000
000000
000000
000000
000000
ENDCHAR
STARTCHAR U+00FD
ENCODING 253
SWIDTH 500 0
DWIDTH 12 0
BBX 19 24 -3 -2
BITMAP 
000000
000000
000000
000000
000e00
001e00
007000
000000
000000
070e00
070e00
070e00
0e1c00
0e1c00
0e1c00
1c3800
1e7800
0ff800
0fb000
007000
007000
01e000
3fc000
1f8000
ENDCHAR
STARTCHAR U+00FE
ENCODING 254
SWIDTH 500 0
DWIDTH 12 0
BBX 19 24 -3 -2
BITMAP 
000000
000000
000000
000000
000000
01c000
038000
038000
038000
077800
077c00
07de00
0f1c00
0e1c00
0e1c00
1c7800
1cf000
1fe000
3f8000
380000
380000
700000
700000
700000
ENDCHAR
STARTCHAR U+00FF
ENCODING 255
SWIDTH 500 0
DWIDTH 12 0
BBX 19 24 -3 -2
BITMAP 
000000
000000
000000
000000
000000
00e700
01ce00
000000
000000
070e00
070e00
070e00
0e1c00
0e1c00
0e1c00
1c3800
1e7800
0ff800
0fb000
007000
007000
01e000
3fc000
1f8000
ENDCHAR
STARTCHAR U+0100
ENCODING 256
SWIDTH 500 0
DWIDTH 12 0
BBX 19 24 -3 -2
BITMAP 
000000
007f80
007f80
000000
000000
007e00
01fe00
03cf00
038700
070e00
070e00
07fe00
0ffc00
0e1c00
0e1c00
1c3800
1c3800
1c3800
387000
000000
000000
000000
000000
000000
ENDCHAR
STARTCHAR U+0101
ENCODING 257
SWIDTH 500 0
DWIDTH 12 0
BBX 19 24 -3 -2
BITMAP 
000000
000000
000000
000000
00ff00
00ff00
000000
000000
007c00
01fc00
038e00
000e00
01fc00
07fc00
0e1c00
1c7800
1cf800
1fd800
1f7000
000000
000000
000000
000000
000000
ENDCHAR
STARTCHAR U+0102
ENCODING 258
SWIDTH 500 0
DWIDTH 12 0
BBX 19 24 -3 -2
BITMAP 
007380
007380
003f00
000000
000000
007e00
01fe00
03cf00
038700
070e00
070e00
07fe00
0ffc00
0e1c00
0e1c00
1c3800
1c3800
1c3800
387000
000000
000000
000000
000000
000000
ENDCHAR
STARTCHAR U+0103
ENCODING 259
SWIDTH 500 0
DWIDTH 12 0
BBX 19 24 -3 -2
BITMAP 
000000
000000
000000
007700
007700
003e00
000000
000000
007c00
01fc00
038e00
000e00
01fc00
07fc00
0e1c00
1c7800
1cf800
1fd800
1f7000
000000
000000
000000
000000
000000
ENDCHAR
STARTCHAR U+0104
ENCODING 260
SWIDTH 500 0
DWIDTH 12 0
BBX 19 24 -3 -2
BITMAP 
000000
000000
000000
000000
000000
007e00
01fe00
03cf00
038700
070e00
070e00
07fe00
0ffc00
0e1c00
0e1c00
1c3800
1c3800
1c3800
387000
01f000
03c000
0e0000
0fc000
07c000
ENDCHAR
STARTCHAR U+0105
ENCODING 261
SWIDTH 500 0
DWIDTH 12 0
BBX 19 24 -3 -2
BITMAP 
000000
000000
000000
000000
000000
000000
000000
000000
007c00
01fc00
038e00
000e00
01fc00
07fc00
0e1c00
1c7800
1cf800
1fd800
1f7000
01f000
03c000
0e0000
0fc000
07c000
ENDCHAR
STARTCHAR U+0106
ENCODING 262
SWIDTH 500 0
DWIDTH 12 0
BBX 19 24 -3 -2
BITMAP 
000e00
001e00
003800
000000
000000
007e00
01fe00
03cf00
038700
070000
070000
070000
0e0000
0e0000
0e0000
1c0000
1c3800
0c7800
0fe000
07c000
000000
000000
000000
000000
ENDCHAR
STARTCHAR U+0107
ENCODING 263
SWIDTH 500 0
DWIDTH 12 0
BBX 19 24 -3 -2
BITMAP 
000000
000000
000000
000000
001c00
003c00
00e000
000000
000000
00fc00
03fc00
078e00
0e1c00
0e0000
0e0000
1c0000
1e3800
0ff800
0fe000
000000
000000
000000
000000
000000
ENDCHAR
STARTCHAR U+0108
ENCODING 264
SWIDTH 500 0
DWIDTH 12 0
BBX 19 24 -3 -2
BITMAP 
001e00
003f00
007380
000000
000000
007e00
01fe00
03cf00
038700
070000
070000
070000
0e0000
0e0000
0e0000
1c3800
1e7800
0ff000
0fc000
000000
000000
000000
000000
000000
ENDCHAR
STARTCHAR U+0109
ENCODING 265
SWIDTH 500 0
DWIDTH 12 0
BBX 19 24 -3 -2
BITMAP 
000000
000000
000000
000000
003c00
007c00
01ce00
000000
000000
00fc00
03fc00
078e00
0e1c00
0e0000
0e0000
1c0000
1e3800
0ff800
0fe000
000000
000000
000000
000000
000000
ENDCHAR
STARTCHAR U+010A
ENCODING 266
SWIDTH 500 0
DWIDTH 12 0
BBX 19 24 -3 -2
BITMAP 
000000
001c00
001c00
000000
000000
007e00
01fe00
03cf00
038700
070000
070000
070000
0e0000
0e0000
0e0000
1c3800
1e7800
0ff000
0fc000
000000
000000
000000
000000
000000
ENDCHAR
STARTCHAR U+010B
ENCODING 267
SWIDTH 500 0
DWIDTH 12 0
BBX 19 24 -3 -2
BITMAP 
000000
000000
000000
000000
000000
001c00
003800
000000
000000
00fc00
03fc00
078e00
0e1c00
0e0000
0e0000
1c0000
1e3800
0ff800
0fe000
000000
000000
000000
000000
000000
ENDCHAR
STARTCHAR U+010C
ENCODING 268
SWIDTH 500 0
DWIDTH 12 0
BBX 19 24 -3 -2
BITMAP 
007700
003e00
001c00
000000
000000
007e00
01fe00
03cf00
038700
070000
070000
070000
0e0000
0e0000
0e0000
1c0000
1c3800
1e7800
1fe000
0fc000
000000
000000
000000
000000
ENDCHAR
STARTCHAR U+010D
ENCODING 269
SWIDTH 500 0
DWIDTH 12 0
BBX 19 24 -3 -2
BITMAP 
000000
000000
000000
000000
007700
003e00
003800
000000
000000
00fc00
03fc00
078e00
0e1c00
0e0000
0e0000
1c0000
1e3800
0ff800
0fe000
000000
000000
000000
000000
000000
ENDCHAR
STARTCHAR U+010E
ENCODING 270
SWIDTH 500 0
DWIDTH 12 0
BBX 19 24 -3 -2
BITMAP 
007700
003e00
001c00
000000
000000
01fe00
03fe00
038e00
038700
070e00
070e00
070e00
0e1c00
0e1c00
0e1c00
1c3800
1c7800
1ff000
3fc000
000000
000000
000000
000000
000000
ENDCHAR
STARTCHAR U+010F
ENCODING 271
SWIDTH 500 0
DWIDTH 12 0
BBX 19 24 -3 -2
BITMAP 
000000
000000
0003c0
000780
000180
001d80
003e00
003800
003800
03b000
07f000
0f7000
1ce000
1ce000
1ce000
39c000
3dc000
1fc000
1d8000
000000
000000
000000
000000
000000
ENDCHAR
STARTCHAR U+0110
ENCODING 272
SWIDTH 500 0
DWIDTH 12 0
BBX 19 24 -3 -2
BITMAP 
000000
000000
000000
000000
000000
01fe00
03fe00
038f00
038700
070e00
070e00
0fee00
1fdc00
0e1c00
0e1c00
1c3800
1c7800
1ff000
3fc000
000000
000000
000000
000000
000000
ENDCHAR
STARTCHAR U+0111
ENCODING 273
SWIDTH 500 0
DWIDTH 12 0
BBX 19 24 -3 -2
BITMAP 
000000
000000
000000
000700
000700
003f80
007f00
000e00
000e00
03ec00
07fc00
0f3c00
1c3800
1c3800
1c3800
38f000
39f000
1fb000
1ee000
000000
000000
000000
000000
000000
ENDCHAR
STARTCHAR U+0112
ENCODING 274
SWIDTH 500 0
DWIDTH 12 0
BBX 19 24 -3 -2
BITMAP 
000000
007f80
007f80
000000
000000
01ff80
03ff00
038000
038000
070000
070000
07f800
0ff000
0e0000
0e0000
1c0000
1c0000
1ff800
3ff000
000000
000000
000000
000000
000000
ENDCHAR
STARTCHAR U+0113
ENCODING 275
SWIDTH 500 0
DWIDTH 12 0
BBX 19 24 -3 -2
BITMAP 
000000
000000
000000
000000
000000
00ff00
01fe00
000000
000000
01f800
03fc00
078e00
0e1c00
0ffc00
0ffc00
1c0000
1c3800
0ff800
0fe000
000000
000000
000000
000000
000000
ENDCHAR
STARTCHAR U+0114
ENCODING 276
SWIDTH 500 0
DWIDTH 12 0
BBX 19 24 -3 -2
BITMAP 
007380
007380
003f00
000000
000000
01ff80
03ff00
038000
038000
070000
070000
07f800
0ff000
0e0000
0e0000
1c0000
1c0000
1ff800
3ff000
000000
000000
000000
000000
000000
ENDCHAR
STARTCHAR U+0115
ENCODING 277
SWIDTH 500 0
DWIDTH 12 0
BBX 19 24 -3 -2
BITMAP 
000000
000000
000000
007700
007700
003e00
000000
000000
000000
01f800
03fc00
078e00
0e1c00
0ffc00
0ffc00
1c0000
1c3800
0ff800
0fe000
000000
000000
000000
000000
000000
ENDCHAR
STARTCHAR U+0116
ENCODING 278
SWIDTH 500 0
DWIDTH 12 0
BBX 19 24 -3 -2
BITMAP 
000000
001c00
001c00
000000
000000
01ff80
03ff00
038000
038000
070000
070000
07f800
0ff000
0e0000
0e0000
1c0000
1c0000
1ff800
3ff000
000000
000000
000000
000000
000000
ENDCHAR
STARTCHAR U+0117
ENCODING 279
SWIDTH 500 0
DWIDTH 12 0
BBX 19 24 -3 -2
BITMAP 
000000
000000
000000
000000
000000
003800
007000
000000
000000
01f800
03fc00
078e00
0e1c00
0ffc00
0ffc00
1c0000
1c3800
0ff800
0fe000
000000
000000
000000
000000
000000
ENDCHAR
STARTCHAR U+0118
ENCODING 280
SWIDTH 500 0
DWIDTH 12 0
BBX 19 24 -3 -2
BITMAP 
000000
000000
000000
000000
000000
01ff80
03ff00
038000
038000
070000
070000
07f800
0ff000
0e0000
0e0000
1c0000
1c0000
1ff800
3ff000
00e000
01e000
070000
07c000
03e000
ENDCHAR
STARTCHAR U+0119
ENCODING 281
SWIDTH 500 0
DWIDTH 12 0
BBX 19 24 -3 -2
BITMAP 
000000
000000
000000
000000
000000
000000
000000
000000
000000
01f800
03fc00
078e00
0e1c00
0ffc00
0ffc00
1c0000
1c3800
0ff800
0fe000
038000
078000
1c0000
1f0000
0f8000
ENDCHAR
STARTCHAR U+011A
ENCODING 282
SWIDTH 500 0
DWIDTH 12 0
BBX 19 24 -3 -2
BITMAP 
007700
003e00
001c00
000000
000000
01ff80
03ff00
038000
038000
070000
070000
07f800
0ff000
0e0000
0e0000
1c0000
1c0000
1ff800
3ff000
000000
000000
000000
000000
000000
ENDCHAR
STARTCHAR U+011B
ENCODING 283
SWIDTH 500 0
DWIDTH 12 0
BBX 19 24 -3 -2
BITMAP 
000000
000000
000000
000000
007700
003e00
003800
000000
000000
01f800
03fc00
078e00
0e1c00
0ffc00
0ffc00
1c0000
1c3800
0ff800
0fe000
000000
000000
000000
000000
000000
ENDCHAR
STARTCHAR U+011C
ENCODING 284
SWIDTH 500 0
DWIDTH 12 0
BBX 19 24 -3 -2
BITMAP 
001e00
003f00
007380
000000
000000
007e00
01fe00
03cf00
038700
070000
070000
070000
0efc00
0efc00
0e1c00
1c3800
1e7800
0ff000
0fc000
000000
000000
000000
000000
000000
ENDCHAR
STARTCHAR U+011D
ENCODING 285
SWIDTH 500 0
DWIDTH 12 0
BBX 19 24 -3 -2
BITMAP 
000000
000000
000000
000000
003c00
007c00
01ce00
000000
000000
01ee00
03f600
07be00
0e3c00
0e1c00
0e1c00
1c3800
1e7800
0ff800
0fb000
007000
007000
00e000
1fc000
0f8000
ENDCHAR
STARTCHAR U+011E
ENCODING 286
SWIDTH 500 0
DWIDTH 12 0
BBX 19 24 -3 -2
BITMAP 
007380
007380
003f00
000000
000000
007e00
01fe00
03cf00
038700
070000
070000
070000
0e7c00
0e7c00
0e1c00
1c3800
1e7800
0ff000
0fc000
000000
000000
000000
000000
000000
ENDCHAR
STARTCHAR U+011F
ENCODING 287
SWIDTH 500 0
DWIDTH 12 0
BBX 19 24 -3 -2
BITMAP 
000000
000000
000000
000000
00ee00
00ee00
00f800
000000
000000
01ee00
03f600
07be00
0e3c00
0e1c00
0e1c00
1c3800
1e7800
0ff800
0fb000
007000
007000
00e000
1fc000
0f8000
ENDCHAR
STARTCHAR U+0120
ENCODING 288
SWIDTH 500 0
DWIDTH 12 0
BBX 19 24 -3 -2
BITMAP 
000000
001c00
001c00
000000
000000
007e00
01fe00
03cf00
038700
070000
070000
070000
0e7c00
0e7c00
0e1c00
1c3800
1e7800
0ff000
0fc000
000000
000000
000000
000000
000000
ENDCHAR
STARTCHAR U+0121
ENCODING 289
SWIDTH 500 0
DWIDTH 12 0
BBX 19 24 -3 -2
BITMAP 
000000
000000
000000
000000
000000
003800
007000
000000
000000
01ee00
03f600
07be00
0e3c00
0e1c00
0e1c00
1c3800
1e7800
0ff800
0fb000
007000
007000
00e000
1fc000
0f8000
ENDCHAR
STARTCHAR U+0122
ENCODING 290
SWIDTH 500 0
DWIDTH 12 0
BBX 19 24 -3 -2
BITMAP 
000000
000000
000000
000000
000000
007e00
01fe00
03cf00
038700
070000
070000
070000
0e7c00
0e7c00
0e1c00
1c3800
1e7800
0ff000
0fc000
070000
070000
038000
1f8000
1f0000
ENDCHAR
STARTCHAR U+0123
ENCODING 291
SWIDTH 500 0
DWIDTH 12 0
BBX 19 24 -3 -2
BITMAP 
000000
000000
001f00
007e00
007000
003c00
003800
000000
000000
01ee00
03f600
07be00
0e3c00
0e1c00
0e1c00
1c3800
1e7800
0ff800
0fb000
007000
007000
00e000
1fc000
0f8000
ENDCHAR
STARTCHAR U+0124
ENCODING 292
SWIDTH 500 0
DWIDTH 12 0
BBX 19 24 -3 -2
BITMAP 
001e00
003f00
007380
000000
000000
01c380
038700
038700
038700
070e00
070e00
07fe00
0ffc00
0e1c00
0e1c00
1c3800
1c3800
1c3800
387000
000000
000000
000000
000000
000000
ENDCHAR
STARTCHAR U+0125
ENCODING 293
SWIDTH 500 0
DWIDTH 12 0
BBX 19 24 -3 -2
BITMAP 
003c00
007e00
00e700
000000
000000
01c000
038000
038000
038000
077800
077c00
07de00
0f1c00
0e1c00
0e1c00
1c3800
1c3800
1c3800
387000
000000
000000
000000
000000
000000
ENDCHAR
STARTCHAR U+0126
ENCODING 294
SWIDTH 500 0
DWIDTH 12 0
BBX 19 24 -3 -2
BITMAP 
000000
000000
000000
000000
000000
01c700
038e00
07ff00
07ff00
071c00
071c00
07fc00
0ff800
0e3800
0e3800
1c7000
1c7000
1c7000
38e000
000000
000000
000000
000000
000000
ENDCHAR
STARTCHAR U+0127
ENCODING 295
SWIDTH 500 0
DWIDTH 12 0
BBX 19 24 -3 -2
BITMAP 
000000
000000
000000
000000
01c000
01c000
07f800
07f800
038000
077800
077c00
07de00
0f1c00
0e1c00
0e1c00
1c3800
1c3800
1c3800
387000
000000
000000
000000
000000
000000
ENDCHAR
STARTCHAR U+0128
ENCODING 296
SWIDTH 500 0
DWIDTH 12 0
BBX 19 24 -3 -2
BITMAP 
007980
00ed80
00cf00
000000
000000
00fe00
01fc00
007000
007000
00e000
00e000
00e000
01c000
01c000
01c000
038000
038000
0fe000
1fc000
000000
000000
000000
000000
000000
ENDCHAR
STARTCHAR U+0129
ENCODING 297
SWIDTH 500 0
DWIDTH 12 0
BBX 19 24 -3 -2
BITMAP 
000000
000000
000000
000000
00f300
01d700
033c00
000000
000000
00e000
00e000
00e000
01c000
01c000
01c000
038000
038000
038000
070000
000000
000000
000000
000000
000000
ENDCHAR
STARTCHAR U+012A
ENCODING 298
SWIDTH 500 0
DWIDTH 12 0
BBX 19 24 -3 -2
BITMAP 
000000
00ff80
00ff80
000000
000000
00fe00
01fc00
007000
007000
00e000
00e000
00e000
01c000
01c000
01c000
038000
038000
0fe000
1fc000
000000
000000
000000
000000
000000
ENDCHAR
STARTCHAR U+012B
ENCODING 299
SWIDTH 500 0
DWIDTH 12 0
BBX 19 24 -3 -2
BITMAP 
000000
000000
000000
000000
000000
00fe00
01fc00
000000
000000
00e000
00e000
00e000
01c000
01c000
01c000
038000
038000
038000
070000
000000
000000
000000
000000
000000
ENDCHAR
STARTCHAR U+012C
ENCODING 300
SWIDTH 500 0
DWIDTH 12 0
BBX 19 24 -3 -2
BITMAP 
007380
007380
003f00
000000
000000
00fe00
01fc00
007000
007000
00e000
00e000
00e000
01c000
01c000
01c000
038000
038000
0fe000
1fc000
000000
000000
000000
000000
000000
ENDCHAR
STARTCHAR U+012D
ENCODING 301
SWIDTH 500 0
DWIDTH 12 0
BBX 19 24 -3 -2
BITMAP 
000000
000000
000000
000000
00ee00
00ee00
00f800
000000
000000
00e000
00e000
00e000
01c000
01c000
01c000
038000
038000
038000
070000
000000
000000
000000
000000
000000
ENDCHAR
STARTCHAR U+012E
ENCODING 302
SWIDTH 500 0
DWIDTH 12 0
BBX 19 24 -3 -2
BITMAP 
000000
000000
000000
000000
000000
00fe00
01fc00
007000
007000
00e000
00e000
00e000
01c000
01c000
01c000
038000
038000
0fe000
1fc000
070000
0f0000
380000
3e0000
1f0000
ENDCHAR
STARTCHAR U+012F
ENCODING 303
SWIDTH 500 0
DWIDTH 12 0
BBX 19 24 -3 -2
BITMAP 
000000
000000
000000
000000
000000
003800
007000
000000
000000
00e000
00e000
00e000
01c000
01c000
01c000
038000
038000
038000
070000
070000
0f0000
380000
3e0000
1f0000
ENDCHAR
STARTCHAR U+0130
ENCODING 304
SWIDTH 500 0
DWIDTH 12 0
BBX 19 24 -3 -2
BITMAP 
000000
001c00
001c00
000000
000000
00fe00
01fc00
007000
007000
00e000
00e000
00e000
01c000
01c000
01c000
038000
038000
0fe000
1fc000
000000
000000
000000
000000
000000
ENDCHAR
STARTCHAR U+0131
ENCODING 305
SWIDTH 500 0
DWIDTH 12 0
BBX 19 24 -3 -2
BITMAP 
000000
000000
000000
000000
000000
000000
000000
000000
000000
00e000
00e000
00e000
01c000
01c000
01c000
038000
038000
038000
070000
000000
000000
000000
000000
000000
ENDCHAR
STARTCHAR U+0132
ENCODING 306
SWIDTH 500 0
DWIDTH 12 0
BBX 19 24 -3 -2
BITMAP 
000000
000000
000000
000000
000000
03e380
07c700
038700
038700
070e00
070e00
070e00
0e1c00
0e1c00
0e1c00
1db800
1db800
3ef000
7de000
000000
000000
000000
000000
000000
ENDCHAR
STARTCHAR U+0133
ENCODING 307
SWIDTH 500 0
DWIDTH 12 0
BBX 19 24 -3 -2
BITMAP 
000000
000000
000000
000000
000000
01ce00
039c00
000000
000000
073800
073800
073800
0e7000
0e7000
0e7000
1ce000
1ce000
1ce000
39c000
01c000
01c000
1f8000
1e0000
000000
ENDCHAR
STARTCHAR U+0134
ENCODING 308
SWIDTH 500 0
DWIDTH 12 0
BBX 19 24 -3 -2
BITMAP 
000f00
001f80
0039c0
000000
000000
000380
000700
000700
000700
000e00
000e00
000e00
001c00
001c00
001c00
1c3800
1c7800
0ff000
0fc000
000000
000000
000000
000000
000000
ENDCHAR
STARTCHAR U+0135
ENCODING 309
SWIDTH 500 0
DWIDTH 12 0
BBX 19 24 -3 -2
BITMAP 
000000
000000
000000
000000
007800
00f800
039c00
000000
000000
00e000
00e000
00e000
01c000
01c000
01c000
038000
038000
038000
070000
070000
070000
7e0000
780000
000000
ENDCHAR
STARTCHAR U+0136
ENCODING 310
SWIDTH 500 0
DWIDTH 12 0
BBX 19 24 -3 -2
BITMAP 
000000
000000
000000
000000
000000
01c380
038e00
039c00
03b800
076000
07c000
078000
0f8000
0ec000
0ec000
1ce000
1c7000
1c3000
383000
1c0000
1c0000
0e0000
7e0000
7c0000
ENDCHAR
STARTCHAR U+0137
ENCODING 311
SWIDTH 500 0
DWIDTH 12 0
BBX 19 24 -3 -2
BITMAP 
000000
000000
000000
000000
000000
01c000
038000
038000
038e00
073c00
077800
077000
0fc000
0f8000
0fc000
1dc000
1de000
1cf000
38e000
1c0000
1c0000
0e0000
7e0000
7c0000
ENDCHAR
STARTCHAR U+0138
ENCODING 312
SWIDTH 500 0
DWIDTH 12 0
BBX 19 24 -3 -2
BITMAP 
000000
000000
000000
000000
000000
000000
000000
000000
038700
071c00
073800
077000
0fc000
0f8000
0f8000
1dc000
1ce000
1c6000
387000
000000
000000
000000
000000
000000
ENDCHAR
STARTCHAR U+0139
ENCODING 313
SWIDTH 500 0
DWIDTH 12 0
BBX 19 24 -3 -2
BITMAP 
003800
007800
00e000
000000
000000
01c000
038000
038000
038000
070000
070000
070000
0e0000
0e0000
0e0000
1c0000
1c0000
1ff800
3ff000
000000
000000
000000
000000
000000
ENDCHAR
STARTCHAR U+013A
ENCODING 314
SWIDTH 500 0
DWIDTH 12 0
BBX 19 24 -3 -2
BITMAP 
000e00
001e00
003800
000000
000000
003800
007000
007000
007000
00e000
00e000
00e000
01c000
01c000
01c000
038000
038000
03e000
03c000
000000
000000
000000
000000
000000
ENDCHAR
STARTCHAR U+013B
ENCODING 315
SWIDTH 500 0
DWIDTH 12 0
BBX 19 24 -3 -2
BITMAP 
000000
000000
000000
000000
000000
01c000
038000
038000
038000
070000
070000
070000
0e0000
0e0000
0e0000
1c0000
1c0000
1ff800
3ff000
070000
070000
038000
1f8000
1f0000
ENDCHAR
STARTCHAR U+013C
ENCODING 316
SWIDTH 500 0
DWIDTH 12 0
BBX 19 24 -3 -2
BITMAP 
000000
000000
000000
000000
000000
003800
007000
007000
007000
00e000
00e000
00e000
01c000
01c000
01c000
038000
038000
03e000
03c000
070000
070000
038000
1f8000
1f0000
ENDCHAR
STARTCHAR U+013D
ENCODING 317
SWIDTH 500 0
DWIDTH 12 0
BBX 19 24 -3 -2
BITMAP 
000000
000000
000000
000000
001e00
01de00
038c00
039c00
03b800
070000
070000
070000
0e0000
0e0000
0e0000
1c0000
1c0000
1ff800
3ff000
000000
000000
000000
000000
000000
ENDCHAR
STARTCHAR U+013E
ENCODING 318
SWIDTH 500 0
DWIDTH 12 0
BBX 19 24 -3 -2
BITMAP 
000000
000000
000000
000000
000f00
00ef00
01c600
01ce00
01dc00
038000
038000
038000
070000
070000
070000
0e0000
0e0000
0f8000
0f0000
000000
000000
000000
000000
000000
ENDCHAR
STARTCHAR U+013F
ENCODING 319
SWIDTH 500 0
DWIDTH 12 0
BBX 19 24 -3 -2
BITMAP 
000000
000000
000000
000000
000000
01c000
038000
038000
038000
070000
071800
073c00
0e3000
0e0000
0e0000
1c0000
1c0000
1ff800
3ff000
000000
000000
000000
000000
000000
ENDCHAR
STARTCHAR U+0140
ENCODING 320
SWIDTH 500 0
DWIDTH 12 0
BBX 19 24 -3 -2
BITMAP 
000000
000000
000000
000000
000000
01c000
038000
038000
038000
070000
071800
073c00
0e3000
0e0000
0e0000
1c0000
1c0000
1f0000
1e0000
000000
000000
000000
000000
000000
ENDCHAR
STARTCHAR U+0141
ENCODING 321
SWIDTH 500 0
DWIDTH 12 0
BBX 19 24 -3 -2
BITMAP 
000000
000000
000000
000000
000000
01c000
038000
039c00
03b800
076000
07c000
078000
1e0000
1e0000
0e0000
1c0000
1c0000
1ff800
3ff000
000000
000000
000000
000000
000000
ENDCHAR
STARTCHAR U+0142
ENCODING 322
SWIDTH 500 0
DWIDTH 12 0
BBX 19 24 -3 -2
BITMAP 
000000
000000
000000
000000
000000
003800
007000
007000
007000
00ec00
00f800
00f000
03c000
07c000
0ec000
038000
038000
03e000
03c000
000000
000000
000000
000000
000000
ENDCHAR
STARTCHAR U+0143
ENCODING 323
SWIDTH 500 0
DWIDTH 12 0
BBX 19 24 -3 -2
BITMAP 
000e00
001e00
003800
000000
000000
01c380
03c700
03c700
03e700
07ce00
076e00
076e00
0eec00
0eec00
0e7c00
1cf800
1c7800
1c7800
387000
000000
000000
000000
000000
000000
ENDCHAR
STARTCHAR U+0144
ENCODING 324
SWIDTH 500 0
DWIDTH 12 0
BBX 19 24 -3 -2
BITMAP 
000000
000000
000000
000000
001c00
003c00
00e000
000000
000000
077800
077c00
07ce00
0f1c00
0e1c00
0e1c00
1c3800
1c3800
1c3800
387000
000000
000000
000000
000000
000000
ENDCHAR
STARTCHAR U+0145
ENCODING 325
SWIDTH 500 0
DWIDTH 12 0
BBX 19 24 -3 -2
BITMAP 
000000
000000
000000
000000
000000
01c380
03c700
03c700
03e700
07ce00
076e00
076e00
0eec00
0eec00
0e7c00
1cf800
1c7800
1c7800
387000
1c0000
1c0000
0e0000
7e0000
7c0000
ENDCHAR
STARTCHAR U+0146
ENCODING 326
SWIDTH 500 0
DWIDTH 12 0
BBX 19 24 -3 -2
BITMAP 
000000
000000
000000
000000
000000
000000
000000
000000
000000
077800
077c00
07ce00
0f1c00
0e1c00
0e1c00
1c3800
1c3800
1c3800
387000
1c0000
1c0000
0e0000
7e0000
7c0000
ENDCHAR
STARTCHAR U+0147
ENCODING 327
SWIDTH 500 0
DWIDTH 12 0
BBX 19 24 -3 -2
BITMAP 
007700
003e00
001c00
000000
000000
01c380
03c700
03c700
03e700
07ce00
076e00
076e00
0eec00
0eec00
0e7c00
1cf800
1c7800
1c7800
387000
000000
000000
000000
000000
000000
ENDCHAR
STARTCHAR U+0148
ENCODING 328
SWIDTH 500 0
DWIDTH 12 0
BBX 19 24 -3 -2
BITMAP 
000000
000000
000000
000000
00ee00
007c00
007000
000000
000000
077800
077c00
07ce00
0f1c00
0e1c00
0e1c00
1c3800
1c3800
1c3800
387000
000000
000000
000000
000000
000000
ENDCHAR
STARTCHAR U+0149
ENCODING 329
SWIDTH 500 0
DWIDTH 12 0
BBX 19 24 -3 -2
BITMAP 
000000
000000
000000
03c000
03c000
00c000
038000
070000
000000
077800
077c00
07ce00
0f1c00
0e1c00
0e1c00
1c3800
1c3800
1c3800
387000
000000
000000
000000
000000
000000
ENDCHAR
STARTCHAR U+014A
ENCODING 330
SWIDTH 500 0
DWIDTH 12 0
BBX 19 24 -3 -2
BITMAP 
000000
000000
000000
000000
000000
01de00
03be00
03ef00
03c700
070e00
070e00
070e00
0e1c00
0e1c00
0e1c00
1c3800
1c7800
1df000
3bc000
000000
000000
000000
000000
000000
ENDCHAR
STARTCHAR U+014B
ENCODING 331
SWIDTH 500 0
DWIDTH 12 0
BBX 19 24 -3 -2
BITMAP 
000000
000000
000000
000000
000000
000000
000000
000000
000000
077800
077c00
07ce00
0f1c00
0e1c00
0e1c00
1c3800
1c3800
1c3800
387000
007000
007000
00e000
1fc000
0f8000
ENDCHAR
STARTCHAR U+014C
ENCODING 332
SWIDTH 500 0
DWIDTH 12 0
BBX 19 24 -3 -2
BITMAP 
000000
007f80
007f80
000000
000000
007e00
01fe00
03cf00
038700
070e00
070e00
070e00
0e1c00
0e1c00
0e1c00
1c3800
1e7800
0ff000
0fc000
000000
000000
000000
000000
000000
ENDCHAR
STARTCHAR U+014D
ENCODING 333
SWIDTH 500 0
DWIDTH 12 0
BBX 19 24 -3 -2
BITMAP 
000000
000000
000000
000000
000000
00ff00
01fe00
000000
000000
01f800
03fc00
079e00
0e1c00
0e1c00
0e1c00
1c3800
1e7800
0ff000
0fc000
000000
000000
000000
000000
000000
ENDCHAR
STARTCHAR U+014E
ENCODING 334
SWIDTH 500 0
DWIDTH 12 0
BBX 19 24 -3 -2
BITMAP 
007380
007380
003f00
000000
000000
007e00
01fe00
03cf00
038700
070e00
070e00
070e00
0e1c00
0e1c00
0e1c00
1c3800
1e7800
0ff000
0fc000
000000
000000
000000
000000
000000
ENDCHAR
STARTCHAR U+014F
ENCODING 335
SWIDTH 500 0
DWIDTH 12 0
BBX 19 24 -3 -2
BITMAP 
000000
000000
000000
000000
00e700
00e700
00fc00
000000
000000
01f800
03fc00
079e00
0e1c00
0e1c00
0e1c00
1c3800
1e7800
0ff000
0fc000
000000
000000
000000
000000
000000
ENDCHAR
STARTCHAR U+0150
ENCODING 336
SWIDTH 500 0
DWIDTH 12 0
BBX 19 24 -3 -2
BITMAP 
0039c0
007bc0
00e700
000000
000000
007e00
01fe00
03cf00
038700
070e00
070e00
070e00
0e1c00
0e1c00
0e1c00
1c3800
1e7800
0ff000
0fc000
000000
000000
000000
000000
000000
ENDCHAR
STARTCHAR U+0151
ENCODING 337
SWIDTH 500 0
DWIDTH 12 0
BBX 19 24 -3 -2
BITMAP 
000000
000000
000000
000000
007380
00f780
039c00
000000
000000
01f800
03fc00
079e00
0e1c00
0e1c00
0e1c00
1c3800
1e7800
0ff000
0fc000
000000
000000
000000
000000
000000
ENDCHAR
STARTCHAR U+0152
ENCODING 338
SWIDTH 500 0
DWIDTH 12 0
BBX 19 24 -3 -2
BITMAP 
000000
000000
000000
000000
000000
00f780
03ff00
07b800
073800
0e7000
0e7000
0e7c00
1cf800
1ce000
1ce000
39c000
3dc000
1ff800
1ef000
000000
000000
000000
000000
000000
ENDCHAR
STARTCHAR U+0153
ENCODING 339
SWIDTH 500 0
DWIDTH 12 0
BBX 19 24 -3 -2
BITMAP 
000000
000000
000000
000000
000000
000000
000000
000000
000000
03dc00
07fe00
0f6e00
1ddc00
1dfc00
1dfc00
3b8000
3db800
1ff800
1ee000
000000
000000
000000
000000
000000
ENDCHAR
STARTCHAR U+0154
ENCODING 340
SWIDTH 500 0
DWIDTH 12 0
BBX 19 24 -3 -2
BITMAP 
000e00
001e00
003800
000000
000000
01fe00
03fe00
038f00
038700
070e00
071e00
07fc00
0ff000
0e7000
0e7000
1c7000
1c7000
1c3800
387000
000000
000000
000000
000000
000000
ENDCHAR
STARTCHAR U+0155
ENCODING 341
SWIDTH 500 0
DWIDTH 12 0
BBX 19 24 -3 -2
BITMAP 
000000
000000
000000
000000
001c00
003c00
00e000
000000
000000
077800
077c00
07ce00
0f1c00
0e0000
0e0000
1c0000
1c0000
1c0000
380000
000000
000000
000000
000000
000000
ENDCHAR
STARTCHAR U+0156
ENCODING 342
SWIDTH 500 0
DWIDTH 12 0
BBX 19 24 -3 -2
BITMAP 
000000
000000
000000
000000
000000
01fe00
03fe00
038f00
038700
070e00
071e00
07fc00
0ff000
0e7000
0e7000
1c7000
1c7000
1c3800
387000
1c0000
1c0000
0e0000
7e0000
7c0000
ENDCHAR
STARTCHAR U+0157
ENCODING 343
SWIDTH 500 0
DWIDTH 12 0
BBX 19 24 -3 -2
BITMAP 
000000
000000
000000
000000
000000
000000
000000
000000
000000
077800
077c00
07ce00
0f1c00
0e0000
0e0000
1c0000
1c0000
1c0000
380000
1c0000
1c0000
0e0000
7e0000
7c0000
ENDCHAR
STARTCHAR U+0158
ENCODING 344
SWIDTH 500 0
DWIDTH 12 0
BBX 19 24 -3 -2
BITMAP 
007700
003e00
001c00
000000
000000
01fe00
03fe00
038f00
038700
070e00
071e00
07fc00
0ff000
0e7000
0e7000
1c7000
1c7000
1c3800
387000
000000
000000
000000
000000
000000
ENDCHAR
STARTCHAR U+0159
ENCODING 345
SWIDTH 500 0
DWIDTH 12 0
BBX 19 24 -3 -2
BITMAP 
000000
000000
000000
000000
00ee00
007c00
007000
000000
000000
077800
077c00
07ce00
0f1c00
0e0000
0e0000
1c0000
1c0000
1c0000
380000
000000
000000
000000
000000
000000
ENDCHAR
STARTCHAR U+015A
ENCODING 346
SWIDTH 500 0
DWIDTH 12 0
BBX 19 24 -3 -2
BITMAP 
000e00
001e00
003800
000000
000000
007e00
01fe00
038f00
038700
070000
078000
03f800
03f800
003c00
001c00
1c3800
1c7800
1ff000
1fc000
000000
000000
000000
000000
000000
ENDCHAR
STARTCHAR U+015B
ENCODING 347
SWIDTH 500 0
DWIDTH 12 0
BBX 19 24 -3 -2
BITMAP 
000000
000000
000000
000000
001c00
003c00
00e000
000000
000000
03fc00
07fe00
070600
0e0000
07f000
03f000
003800
1c3800
1ff800
1fe000
000000
000000
000000
000000
000000
ENDCHAR
STARTCHAR U+015C
ENCODING 348
SWIDTH 500 0
DWIDTH 12 0
BBX 19 24 -3 -2
BITMAP 
001e00
003f00
007380
000000
000000
007e00
01fe00
038f00
038700
070000
078000
03f800
03f800
003c00
001c00
1c3800
1c7800
1ff000
1fc000
000000
000000
000000
000000
000000
ENDCHAR
STARTCHAR U+015D
ENCODING 349
SWIDTH 500 0
DWIDTH 12 0
BBX 19 24 -3 -2
BITMAP 
000000
000000
000000
000000
003c00
007c00
01ce00
000000
000000
03fc00
07fe00
070600
0e0000
07f000
03f000
003800
1c3800
1ff800
1fe000
000000
000000
000000
000000
000000
ENDCHAR
STARTCHAR U+015E
ENCODING 350
SWIDTH 500 0
DWIDTH 12 0
BBX 19 24 -3 -2
BITMAP 
000000
000000
000000
000000
000000
007e00
01fe00
038f00
038700
070000
078000
03f800
03f800
003c00
001c00
1c3800
1c7800
1ff000
1fc000
070000
070000
038000
1f8000
1f0000
ENDCHAR
STARTCHAR U+015F
ENCODING 351
SWIDTH 500 0
DWIDTH 12 0
BBX 19 24 -3 -2
BITMAP 
000000
000000
000000
000000
000000
000000
000000
000000
000000
03fc00
07fe00
070600
0e0000
07f000
03f000
003800
1c3800
1ff800
1fe000
070000
070000
038000
1f8000
1f0000
ENDCHAR
STARTCHAR U+0160
ENCODING 352
SWIDTH 500 0
DWIDTH 12 0
BBX 19 24 -3 -2
BITMAP 
007700
003e00
001c00
000000
000000
007e00
01fe00
038f00
038700
070000
078000
03f800
03f800
003c00
001c00
1c3800
1c7800
1ff000
1fc000
000000
000000
000000
000000
000000
ENDCHAR
STARTCHAR U+0161
ENCODING 353
SWIDTH 500 0
DWIDTH 12 0
BBX 19 24 -3 -2
BITMAP 
000000
000000
000000
000000
00ee00
007c00
007000
000000
000000
03fc00
07fe00
070600
0e0000
07f000
03f000
003800
1c3800
1ff800
1fe000
000000
000000
000000
000000
000000
ENDCHAR
STARTCHAR U+0162
ENCODING 354
SWIDTH 500 0
DWIDTH 12 0
BBX 19 24 -3 -2
BITMAP 
000000
000000
000000
000000
000000
03ff80
07ff00
007000
007000
00e000
00e000
00e000
01c000
01c000
01c000
038000
038000
038000
070000
070000
070000
038000
1f8000
1f0000
ENDCHAR
STARTCHAR U+0163
ENCODING 355
SWIDTH 500 0
DWIDTH 12 0
BBX 19 24 -3 -2
BITMAP 
000000
000000
000000
000000
000000
000000
007000
007000
007000
03f800
03f800
00e000
01c000
01c000
01c000
038000
038000
03e000
07c000
070000
070000
038000
1f8000
1f0000
ENDCHAR
STARTCHAR U+0164
ENCODING 356
SWIDTH 500 0
DWIDTH 12 0
BBX 19 24 -3 -2
BITMAP 
007700
003e00
001c00
000000
000000
03ff80
07ff00
007000
007000
00e000
00e000
00e000
01c000
01c000
01c000
038000
038000
038000
070000
000000
000000
000000
000000
000000
ENDCHAR
STARTCHAR U+0165
ENCODING 357
SWIDTH 500 0
DWIDTH 12 0
BBX 19 24 -3 -2
BITMAP 
000000
000000
000000
000000
000780
000780
01c300
01c700
01ce00
0fe000
0fe000
038000
070000
070000
070000
0e0000
0e0000
0f8000
0f0000
000000
000000
000000
000000
000000
ENDCHAR
STARTCHAR U+0166
ENCODING 358
SWIDTH 500 0
DWIDTH 12 0
BBX 19 24 -3 -2
BITMAP 
000000
000000
000000
000000
000000
03ff80
07ff00
007000
007000
00e000
00ec00
00f800
01e000
03c000
07c000
1d8000
038000
038000
070000
000000
000000
000000
000000
000000
ENDCHAR
STARTCHAR U+0167
ENCODING 359
SWIDTH 500 0
DWIDTH 12 0
BBX 19 24 -3 -2
BITMAP 
000000
000000
000000
000000
000000
000000
007000
007000
007000
03f800
03f800
00e000
01d800
01f000
03e000
0f8000
1d8000
03e000
03c000
000000
000000
000000
000000
000000
ENDCHAR
STARTCHAR U+0168
ENCODING 360
SWIDTH 500 0
DWIDTH 12 0
BBX 19 24 -3 -2
BITMAP 
0078c0
00edc0
00cf80
000000
000000
01c380
038700
038700
038700
070e00
070e00
070e00
0e1c00
0e1c00
0e1c00
1c3800
1e7800
0ff000
0fc000
000000
000000
000000
000000
000000
ENDCHAR
STARTCHAR U+0169
ENCODING 361
SWIDTH 500 0
DWIDTH 12 0
BBX 19 24 -3 -2
BITMAP 
000000
000000
000000
000000
007980
00eb80
019e00
000000
000000
070e00
070e00
070e00
0e1c00
0e1c00
0e1c00
1c7800
1ef800
0fd800
0f7000
000000
000000
000000
000000
000000
ENDCHAR
STARTCHAR U+016A
ENCODING 362
SWIDTH 500 0
DWIDTH 12 0
BBX 19 24 -3 -2
BITMAP 
000000
007f80
007f80
000000
000000
01c380
038700
038700
038700
070e00
070e00
070e00
0e1c00
0e1c00
0e1c00
1c3800
1e7800
0ff000
0fc000
000000
000000
000000
000000
000000
ENDCHAR
STARTCHAR U+016B
ENCODING 363
SWIDTH 500 0
DWIDTH 12 0
BBX 19 24 -3 -2
BITMAP 
000000
000000
000000
000000
000000
00ff00
01fe00
000000
000000
070e00
070e00
070e00
0e1c00
0e1c00
0e1c00
1c7800
1ef800
0fd800
0f7000
000000
000000
000000
000000
000000
ENDCHAR
STARTCHAR U+016C
ENCODING 364
SWIDTH 500 0
DWIDTH 12 0
BBX 19 24 -3 -2
BITMAP 
007380
007380
003f00
000000
000000
01c380
038700
038700
038700
070e00
070e00
070e00
0e1c00
0e1c00
0e1c00
1c3800
1e7800
0ff000
0fc000
000000
000000
000000
000000
000000
ENDCHAR
STARTCHAR U+016D
ENCODING 365
SWIDTH 500 0
DWIDTH 12 0
BBX 19 24 -3 -2
BITMAP 
000000
000000
000000
000000
00e700
00e700
00fc00
000000
000000
070e00
070e00
070e00
0e1c00
0e1c00
0e1c00
1c7800
1ef800
0fd800
0f7000
000000
000000
000000
000000
000000
ENDCHAR
STARTCHAR U+016E
ENCODING 366
SWIDTH 500 0
DWIDTH 12 0
BBX 19 24 -3 -2
BITMAP 
001e00
003b00
003b00
003c00
000000
01c380
038700
038700
038700
070e00
070e00
070e00
0e1c00
0e1c00
0e1c00
1c3800
1e7800
0ff000
0fc000
000000
000000
000000
000000
000000
ENDCHAR
STARTCHAR U+016F
ENCODING 367
SWIDTH 500 0
DWIDTH 12 0
BBX 19 24 -3 -2
BITMAP 
000000
000000
000000
003c00
007600
007600
007800
000000
000000
070e00
070e00
070e00
0e1c00
0e1c00
0e1c00
1c7800
1ef800
0fd800
0f7000
000000
000000
000000
000000
000000
ENDCHAR
STARTCHAR U+0170
ENCODING 368
SWIDTH 500 0
DWIDTH 12 0
BBX 19 24 -3 -2
BITMAP 
0039c0
007bc0
00e700
000000
000000
01c380
038700
038700
038700
070e00
070e00
070e00
0e1c00
0e1c00
0e1c00
1c3800
1e7800
0ff000
0fc000
000000
000000
000000
000000
000000
ENDCHAR
STARTCHAR U+0171
ENCODING 369
SWIDTH 500 0
DWIDTH 12 0
BBX 19 24 -3 -2
BITMAP 
000000
000000
000000
000000
007380
00f780
039c00
000000
000000
070e00
070e00
070e00
0e1c00
0e1c00
0e1c00
1c7800
1ef800
0fd800
0f7000
000000
000000
000000
000000
000000
ENDCHAR
STARTCHAR U+0172
ENCODING 370
SWIDTH 500 0
DWIDTH 12 0
BBX 19 24 -3 -2
BITMAP 
000000
000000
000000
000000
000000
01c380
038700
038700
038700
070e00
070e00
070e00
0e1c00
0e1c00
0e1c00
1c3800
1e7800
0ff000
0fc000
070000
0f0000
380000
3f0000
1f0000
ENDCHAR
STARTCHAR U+0173
ENCODING 371
SWIDTH 500 0
DWIDTH 12 0
BBX 19 24 -3 -2
BITMAP 
000000
000000
000000
000000
000000
000000
000000
000000
000000
070e00
070e00
070e00
0e1c00
0e1c00
0e1c00
1c7800
1ef800
0fd800
0f7000
00e000
01e000
070000
07e000
03e000
ENDCHAR
STARTCHAR U+0174
ENCODING 372
SWIDTH 500 0
DWIDTH 12 0
BBX 19 24 -3 -2
BITMAP 
001e00
003f00
007380
000000
000000
01c380
038700
038700
038700
070e00
070e00
076e00
0eec00
0eec00
0fbc00
1f7800
1e7800
1e7800
387000
000000
000000
000000
000000
000000
ENDCHAR
STARTCHAR U+0175
ENCODING 373
SWIDTH 500 0
DWIDTH 12 0
BBX 19 24 -3 -2
BITMAP 
000000
000000
000000
000000
003c00
007c00
01ce00
000000
000000
070e00
070e00
070e00
0e1c00
0edc00
0eec00
1dd800
1f7800
1e7800
387000
000000
000000
000000
000000
000000
ENDCHAR
STARTCHAR U+0176
ENCODING 374
SWIDTH 500 0
DWIDTH 12 0
BBX 19 24 -3 -2
BITMAP 
001e00
003f00
007380
000000
000000
038380
070700
038e00
038e00
03b800
03f800
01f000
01c000
01c000
01c000
038000
038000
038000
070000
000000
000000
000000
000000
000000
ENDCHAR
STARTCHAR U+0177
ENCODING 375
SWIDTH 500 0
DWIDTH 12 0
BBX 19 24 -3 -2
BITMAP 
000000
000000
000000
000000
003c00
007c00
01ce00
000000
000000
070e00
070e00
070e00
0e1c00
0e1c00
0e1c00
1c3800
1c7800
0ff800
0fb000
007000
007000
00e000
3fc000
1f8000
ENDCHAR
STARTCHAR U+0178
ENCODING 376
SWIDTH 500 0
DWIDTH 12 0
BBX 19 24 -3 -2
BITMAP 
000000
007380
007380
000000
000000
038380
070700
038e00
038e00
03b800
03f800
01f000
01c000
01c000
01c000
038000
038000
038000
070000
000000
000000
000000
000000
000000
ENDCHAR
STARTCHAR U+0179
ENCODING 377
SWIDTH 500 0
DWIDTH 12 0
BBX 19 24 -3 -2
BITMAP 
000e00
001e00
003800
000000
000000
03ff80
07ff00
000700
000f00
003c00
007800
00f000
03c000
078000
0f0000
3c0000
380000
3ff800
7ff000
000000
000000
000000
000000
000000
ENDCHAR
STARTCHAR U+017A
ENCODING 378
SWIDTH 500 0
DWIDTH 12 0
BBX 19 24 -3 -2
BITMAP 
000000
000000
000000
000000
001c00
003c00
00e000
000000
000000
07fe00
07fe00
001c00
007000
00e000
01c000
070000
0e0000
1ff800
3ff000
000000
000000
000000
000000
000000
ENDCHAR
STARTCHAR U+017B
ENCODING 379
SWIDTH 500 0
DWIDTH 12 0
BBX 19 24 -3 -2
BITMAP 
000000
001c00
001c00
000000
000000
03ff80
07ff00
000700
000f00
003c00
007800
00f000
03c000
078000
0f0000
3c0000
380000
3ff800
7ff000
000000
000000
000000
000000
000000
ENDCHAR
STARTCHAR U+017C
ENCODING 380
SWIDTH 500 0
DWIDTH 12 0
BBX 19 24 -3 -2
BITMAP 
000000
000000
000000
000000
000000
003800
007000
000000
000000
07fe00
07fe00
001c00
007000
00e000
01c000
070000
0e0000
1ff800
3ff000
000000
000000
000000
000000
000000
ENDCHAR
STARTCHAR U+017D
ENCODING 381
SWIDTH 500 0
DWIDTH 12 0
BBX 19 24 -3 -2
BITMAP 
007700
003e00
001c00
000000
000000
03ff80
07ff00
000700
000f00
003c00
007800
00f000
03c000
078000
0f0000
3c0000
380000
3ff800
7ff000
000000
000000
000000
000000
000000
ENDCHAR
STARTCHAR U+017E
ENCODING 382
SWIDTH 500 0
DWIDTH 12 0
BBX 19 24 -3 -2
BITMAP 
000000
000000
000000
000000
00ee00
007c00
007000
000000
000000
07fe00
07fe00
001c00
007000
00e000
01c000
070000
0e0000
1ff800
3ff000
000000
000000
000000
000000
000000
ENDCHAR
STARTCHAR U+017F
ENCODING 383
SWIDTH 500 0
DWIDTH 12 0
BBX 19 24 -3 -2
BITMAP 
000000
000000
000000
000000
000000
001e00
007c00
007000
007000
00e000
01e000
01e000
01c000
01c000
01c000
038000
038000
038000
070000
000000
000000
000000
000000
000000
ENDCHAR
STARTCHAR U+0180
ENCODING 384
SWIDTH 500 0
DWIDTH 12 0
BBX 19 24 -3 -2
BITMAP 
000000
000000
000000
000000
01c000
01c000
07f000
07f000
038000
077800
077c00
07de00
0f1c00
0e1c00
0e1c00
1e3800
1f7800
1df000
3bc000
000000
000000
000000
000000
000000
ENDCHAR
STARTCHAR U+0181
ENCODING 385
SWIDTH 500 0
DWIDTH 12 0
BBX 19 24 -3 -2
BITMAP 
000000
000000
000000
000000
000000
01fc00
07fc00
076e00
076e00
0edc00
01d800
01f800
03f800
03b800
039c00
073800
077800
07f000
0fc000
000000
000000
000000
000000
000000
ENDCHAR
STARTCHAR U+0182
ENCODING 386
SWIDTH 500 0
DWIDTH 12 0
BBX 19 24 -3 -2
BITMAP 
000000
000000
000000
000000
000000
01fe00
03fc00
038000
038000
070000
070000
07f800
0ff800
0e3800
0e1c00
1c3800
1c7800
1ff000
3fc000
000000
000000
000000
000000
000000
ENDCHAR
STARTCHAR U+0183
ENCODING 387
SWIDTH 500 0
DWIDTH 12 0
BBX 19 24 -3 -2
BITMAP 
000000
000000
000000
000000
000000
01ff00
03fe00
038000
038000
077800
077c00
07de00
0f1c00
0e1c00
0e1c00
1e3800
1f7800
1df000
3bc000
000000
000000
000000
000000
000000
ENDCHAR
STARTCHAR U+0184
ENCODING 388
SWIDTH 500 0
DWIDTH 12 0
BBX 19 24 -3 -2
BITMAP 
000000
000000
000000
000000
000000
03c000
078000
038000
038000
070000
070000
07f800
0ff800
0e3800
0e1c00
1c3800
1c7800
1ff000
3fc000
000000
000000
000000
000000
000000
ENDCHAR
STARTCHAR U+0185
ENCODING 389
SWIDTH 500 0
DWIDTH 12 0
BBX 19 24 -3 -2
BITMAP 
000000
000000
000000
000000
000000
03e000
07c000
01c000
01c000
03b800
03bc00
03ee00
079c00
071c00
071c00
0f3800
0fb800
0ef000
1dc000
000000
000000
000000
000000
000000
ENDCHAR
STARTCHAR U+0186
ENCODING 390
SWIDTH 500 0
DWIDTH 12 0
BBX 19 24 -3 -2
BITMAP 
000000
000000
000000
000000
000000
007e00
01fe00
03cf00
038700
000e00
000e00
000e00
001c00
001c00
001c00
1c3800
1e7800
0ff000
0fc000
000000
000000
000000
000000
000000
ENDCHAR
STARTCHAR U+0187
ENCODING 391
SWIDTH 500 0
DWIDTH 12 0
BBX 19 24 -3 -2
BITMAP 
000000
000000
000000
000380
000780
00fe00
03f800
07bc00
071c00
0e0000
0e0000
0e0000
1c0000
1c0000
1c0000
38e000
3de000
1fc000
1f0000
000000
000000
000000
000000
000000
ENDCHAR
STARTCHAR U+0188
ENCODING 392
SWIDTH 500 0
DWIDTH 12 0
BBX 19 24 -3 -2
BITMAP 
000000
000000
000000
000000
000000
000000
000000
000700
000f00
03f800
07f000
0f3800
1c7000
1c0000
1c0000
380000
3ce000
1fe000
1f8000
000000
000000
000000
000000
000000
ENDCHAR
STARTCHAR U+0189
ENCODING 393
SWIDTH 500 0
DWIDTH 12 0
BBX 19 24 -3 -2
BITMAP 
000000
000000
000000
000000
000000
01fe00
03fe00
038f00
038700
070e00
070e00
0fee00
1fdc00
0e1c00
0e1c00
1c3800
1c7800
1ff000
3fc000
000000
000000
000000
000000
000000
ENDCHAR
STARTCHAR U+018A
ENCODING 394
SWIDTH 500 0
DWIDTH 12 0
BBX 19 24 -3 -2
BITMAP 
000000
000000
000000
000000
000000
01fe00
07fe00
076e00
076700
0ece00
01ce00
01ce00
039c00
039c00
039c00
073800
077800
07f000
0fc000
000000
000000
000000
000000
000000
ENDCHAR
STARTCHAR U+018B
ENCODING 395
SWIDTH 500 0
DWIDTH 12 0
BBX 19 24 -3 -2
BITMAP 
000000
000000
000000
000000
000000
007f80
00ff00
000700
000700
000e00
000e00
01fe00
07fc00
071c00
0e1c00
1c3800
1e3800
0ff800
0ff000
000000
000000
000000
000000
000000
ENDCHAR
STARTCHAR U+018C
ENCODING 396
SWIDTH 500 0
DWIDTH 12 0
BBX 19 24 -3 -2
BITMAP 
000000
000000
000000
000000
000000
007f80
00ff00
000700
000700
01f600
03fe00
079e00
0e1c00
0e1c00
0e1c00
1c7800
1cf800
0fd800
0f7000
000000
000000
000000
000000
000000
ENDCHAR
STARTCHAR U+018D
ENCODING 397
SWIDTH 500 0
DWIDTH 12 0
BBX 19 24 -3 -2
BITMAP 
000000
000000
000000
000000
000000
000000
00fc00
01fe00
03cf00
070e00
070e00
070e00
0f3c00
07f800
03f000
00e000
007000
07f000
0fc000
000000
000000
000000
000000
000000
ENDCHAR
STARTCHAR U+018E
ENCODING 398
SWIDTH 500 0
DWIDTH 12 0
BBX 19 24 -3 -2
BITMAP 
000000
000000
000000
000000
000000
01ff80
03ff00
000700
000700
000e00
000e00
01fe00
03fc00
001c00
001c00
003800
003800
1ff800
3ff000
000000
000000
000000
000000
000000
ENDCHAR
STARTCHAR U+018F
ENCODING 399
SWIDTH 500 0
DWIDTH 12 0
BBX 19 24 -3 -2
BITMAP 
000000
000000
000000
000000
000000
00fe00
03fe00
078f00
070700
000e00
000e00
000e00
1ffc00
1ffc00
1c1c00
383800
3c7800
1ff000
1fc000
000000
000000
000000
000000
000000
ENDCHAR
STARTCHAR U+0190
ENCODING 400
SWIDTH 500 0
DWIDTH 12 0
BBX 19 24 -3 -2
BITMAP 
000000
000000
000000
000000
000000
007e00
01fe00
038700
038700
070000
070000
03f000
07e000
0e0000
0e0000
1c3800
1c3800
0ff000
0fc000
000000
000000
000000
000000
000000
ENDCHAR
STARTCHAR U+0191
ENCODING 401
SWIDTH 500 0
DWIDTH 12 0
BBX 19 24 -3 -2
BITMAP 
000000
000000
000000
000000
000000
00ff80
01ff00
01c000
01c000
038000
038000
03f800
07f000
070000
070000
0e0000
0e0000
0e0000
1c0000
1c0000
1c0000
f80000
f00000
000000
ENDCHAR
STARTCHAR U+0192
ENCODING 402
SWIDTH 500 0
DWIDTH 12 0
BBX 19 24 -3 -2
BITMAP 
000000
000000
000000
000000
000000
001e00
007c00
007000
007000
00e000
03f800
03f800
01c000
01c000
01c000
038000
038000
038000
070000
070000
070000
3e0000
3c0000
000000
ENDCHAR
STARTCHAR U+0193
ENCODING 403
SWIDTH 500 0
DWIDTH 12 0
BBX 19 24 -3 -2
BITMAP 
000000
000000
000000
000380
000780
00fe00
03f800
07bc00
071c00
0e0000
0e0000
0e0000
1df000
1df000
1c7000
38e000
3de000
1fc000
1f0000
000000
000000
000000
000000
000000
ENDCHAR
STARTCHAR U+0194
ENCODING 404
SWIDTH 500 0
DWIDTH 12 0
BBX 19 24 -3 -2
BITMAP 
000000
000000
000000
000000
000000
01c380
038700
03cf00
01ce00
01d800
01d800
00f000
01e000
03f000
073800
0e7000
0e7000
0e7000
0fc000
078000
000000
000000
000000
000000
ENDCHAR
STARTCHAR U+0195
ENCODING 405
SWIDTH 500 0
DWIDTH 12 0
BBX 19 24 -3 -2
BITMAP 
000000
000000
000000
000000
038000
038000
070000
070000
070000
0ece00
0fee00
0f6e00
1ddc00
1ddc00
1ddc00
3bb800
3bb800
39f000
71c000
000000
000000
000000
000000
000000
ENDCHAR
STARTCHAR U+0196
ENCODING 406
SWIDTH 500 0
DWIDTH 12 0
BBX 19 24 -3 -2
BITMAP 
000000
000000
000000
000000
000000
00f800
01f000
007000
007000
00e000
00e000
00e000
01c000
01c000
01c000
038000
038000
03e000
03c000
000000
000000
000000
000000
000000
ENDCHAR
STARTCHAR U+0197
ENCODING 407
SWIDTH 500 0
DWIDTH 12 0
BBX 19 24 -3 -2
BITMAP 
000000
000000
000000
000000
000000
00fe00
01fc00
007000
007000
00e000
00e000
03f800
07f000
01c000
01c000
038000
038000
0fe000
1fc000
000000
000000
000000
000000
000000
ENDCHAR
STARTCHAR U+0198
ENCODING 408
SWIDTH 500 0
DWIDTH 12 0
BBX 19 24 -3 -2
BITMAP 
000000
000000
000000
000000
000000
01c700
039f00
03bb00
03b000
074000
07c000
078000
0f8000
0ec000
0ec000
1ce000
1c7000
1c3000
383000
000000
000000
000000
000000
000000
ENDCHAR
STARTCHAR U+0199
ENCODING 409
SWIDTH 500 0
DWIDTH 12 0
BBX 19 24 -3 -2
BITMAP 
000000
000000
000000
000000
00f000
01f000
038000
038000
038e00
073c00
077800
077000
0fc000
0f8000
0fc000
1dc000
1de000
1cf000
38e000
000000
000000
000000
000000
000000
ENDCHAR
STARTCHAR U+019A
ENCODING 410
SWIDTH 500 0
DWIDTH 12 0
BBX 19 24 -3 -2
BITMAP 
000000
000000
000000
000000
000000
003800
007000
007000
007000
00e000
00e000
03f800
07f000
01c000
01c000
038000
038000
03e000
03c000
000000
000000
000000
000000
000000
ENDCHAR
STARTCHAR U+019B
ENCODING 411
SWIDTH 500 0
DWIDTH 12 0
BBX 19 24 -3 -2
BITMAP 
000000
000000
000000
000000
000300
00f700
01ec00
007800
00f000
03b000
077000
06f800
01f000
03b000
03b800
0e7000
0e7000
1c3800
387000
000000
000000
000000
000000
000000
ENDCHAR
STARTCHAR U+019C
ENCODING 412
SWIDTH 500 0
DWIDTH 12 0
BBX 19 24 -3 -2
BITMAP 
000000
000000
000000
000000
000000
03bb80
077700
077700
077700
0eee00
0eee00
0eee00
1ddc00
1ddc00
1ddc00
3bb800
3bb800
3ff800
3db000
000000
000000
000000
000000
000000
ENDCHAR
STARTCHAR U+019D
ENCODING 413
SWIDTH 500 0
DWIDTH 12 0
BBX 19 24 -3 -2
BITMAP 
000000
000000
000000
000000
000000
00e380
01c700
01e700
01e700
03ee00
03ae00
03ae00
076c00
077c00
076c00
0e7800
0e3800
0e3800
1c7000
1c0000
7c0000
f00000
000000
000000
ENDCHAR
STARTCHAR U+019E
ENCODING 414
SWIDTH 500 0
DWIDTH 12 0
BBX 19 24 -3 -2
BITMAP 
000000
000000
000000
000000
000000
000000
000000
000000
000000
077800
077c00
07ce00
0f1c00
0e1c00
0e1c00
1c3800
1c3800
1c3800
387000
007000
007000
00e000
000000
000000
ENDCHAR
STARTCHAR U+019F
ENCODING 415
SWIDTH 500 0
DWIDTH 12 0
BBX 19 24 -3 -2
BITMAP 
000000
000000
000000
000000
000000
007e00
01fe00
03cf00
038700
070e00
076e00
07fe00
0f6c00
0e1c00
0e1c00
1c3800
1e7800
0ff000
0fc000
000000
000000
000000
000000
000000
ENDCHAR
STARTCHAR U+01A0
ENCODING 416
SWIDTH 500 0
DWIDTH 12 0
BBX 19 24 -3 -2
BITMAP 
000000
000000
0001c0
000380
000780
00ff00
03fc00
079e00
070e00
0e1c00
0e1c00
0e1c00
1c3800
1c3800
1c3800
387000
3cf000
1fe000
1f8000
000000
000000
000000
000000
000000
ENDCHAR
STARTCHAR U+01A1
ENCODING 417
SWIDTH 500 0
DWIDTH 12 0
BBX 19 24 -3 -2
BITMAP 
000000
000000
000000
000000
000000
000000
000700
000700
000f00
03fc00
07f800
0f3c00
1c3800
1c3800
1c3800
387000
3cf000
1fe000
1f8000
000000
000000
000000
000000
000000
ENDCHAR
STARTCHAR U+01A2
ENCODING 418
SWIDTH 500 0
DWIDTH 12 0
BBX 19 24 -3 -2
BITMAP 
000000
000000
000000
000000
000000
00f700
03ff00
07bb00
073b00
0e7600
0e7600
0e7600
1cec00
1cec00
1cec00
39d800
3dd800
1fb800
1e7000
007000
007000
00e000
000000
000000
ENDCHAR
STARTCHAR U+01A3
ENCODING 419
SWIDTH 500 0
DWIDTH 12 0
BBX 19 24 -3 -2
BITMAP 
000000
000000
000000
000000
000000
000000
000000
000000
000000
03dc00
07fe00
0f7600
1cec00
1cec00
1cec00
39d800
3dd800
1fb800
1e7000
007000
007000
00e000
000000
000000
ENDCHAR
STARTCHAR U+01A4
ENCODING 420
SWIDTH 500 0
DWIDTH 12 0
BBX 19 24 -3 -2
BITMAP 
000000
000000
000000
000000
000000
01fe00
07fe00
076f00
076700
0ece00
01de00
01fc00
03f000
038000
038000
070000
070000
070000
0e0000
000000
000000
000000
000000
000000
ENDCHAR
STARTCHAR U+01A5
ENCODING 421
SWIDTH 500 0
DWIDTH 12 0
BBX 19 24 -3 -2
BITMAP 
000000
000000
000000
000000
000000
000000
000000
000000
000700
0eee00
0ef800
0fb800
1e7000
1c7000
1c7000
3ce000
3ee000
3bc000
770000
700000
700000
e00000
e00000
000000
ENDCHAR
STARTCHAR U+01A6
ENCODING 422
SWIDTH 500 0
DWIDTH 12 0
BBX 19 24 -3 -2
BITMAP 
000000
000000
000000
000000
03f800
03f800
01c000
01c000
01fc00
03fc00
039c00
039c00
07f000
07e000
07e000
0ee000
0ef000
0e7800
1c7000
000000
000000
000000
000000
000000
ENDCHAR
STARTCHAR U+01A7
ENCODING 423
SWIDTH 500 0
DWIDTH 12 0
BBX 19 24 -3 -2
BITMAP 
000000
000000
000000
000000
000000
007e00
01fe00
03c700
038700
000e00
001e00
01fc00
07f000
0f0000
0e0000
1c3800
1e3800
0ff800
0fe000
000000
000000
000000
000000
000000
ENDCHAR
STARTCHAR U+01A8
ENCODING 424
SWIDTH 500 0
DWIDTH 12 0
BBX 19 24 -3 -2
BITMAP 
000000
000000
000000
000000
000000
000000
000000
000000
000000
03fc00
07fe00
060e00
001c00
03f800
07f000
1c0000
1c3800
1ff800
1fe000
000000
000000
000000
000000
000000
ENDCHAR
STARTCHAR U+01A9
ENCODING 425
SWIDTH 500 0
DWIDTH 12 0
BBX 19 24 -3 -2
BITMAP 
000000
000000
000000
000000
000000
01ff80
03ff00
03c000
01e000
01e000
00f000
007800
00f000
01e000
03c000
0f0000
1e0000
1ff800
3ff000
000000
000000
000000
000000
000000
ENDCHAR
STARTCHAR U+01AA
ENCODING 426
SWIDTH 500 0
DWIDTH 12 0
BBX 19 24 -3 -2
BITMAP 
000000
000000
000000
000000
000000
01f000
07f000
077000
077000
0fe000
07e000
00e000
01c000
01c000
01c000
038000
038000
038000
070000
070000
078000
07c000
03c000
000000
ENDCHAR
STARTCHAR U+01AB
ENCODING 427
SWIDTH 500 0
DWIDTH 12 0
BBX 19 24 -3 -2
BITMAP 
000000
000000
000000
000000
000000
000000
007000
007000
007000
03f800
03f800
00e000
01c000
01c000
01c000
038000
038000
03e000
03c000
01c000
01c000
0f8000
0f0000
000000
ENDCHAR
STARTCHAR U+01AC
ENCODING 428
SWIDTH 500 0
DWIDTH 12 0
BBX 19 24 -3 -2
BITMAP 
000000
000000
000000
000000
000000
01ff80
07ff00
077000
077000
00e000
00e000
00e000
01c000
01c000
01c000
038000
038000
038000
070000
000000
000000
000000
000000
000000
ENDCHAR
STARTCHAR U+01AD
ENCODING 429
SWIDTH 500 0
DWIDTH 12 0
BBX 19 24 -3 -2
BITMAP 
000000
000000
000000
000000
000000
001e00
007c00
007000
007000
03f800
03f800
00e000
01c000
01c000
01c000
038000
038000
03e000
03c000
000000
000000
000000
000000
000000
ENDCHAR
STARTCHAR U+01AE
ENCODING 430
SWIDTH 500 0
DWIDTH 12 0
BBX 19 24 -3 -2
BITMAP 
000000
000000
000000
000000
000000
03ff80
07ff00
007000
007000
00e000
00e000
00e000
01c000
01c000
01c000
038000
038000
038000
070000
07c000
03c000
000000
000000
000000
ENDCHAR
STARTCHAR U+01AF
ENCODING 431
SWIDTH 500 0
DWIDTH 12 0
BBX 19 24 -3 -2
BITMAP 
000000
000000
000000
000380
000380
039f80
073e00
073800
073800
0e7000
0e7000
0e7000
1ce000
1ce000
1ce000
39c000
39c000
1f8000
1e0000
000000
000000
000000
000000
000000
ENDCHAR
STARTCHAR U+01B0
ENCODING 432
SWIDTH 500 0
DWIDTH 12 0
BBX 19 24 -3 -2
BITMAP 
000000
000000
000000
000000
000000
000000
000000
000700
000700
0e7e00
0e7c00
0e7000
1ce000
1ce000
1ce000
39c000
3bc000
1fc000
1d8000
000000
000000
000000
000000
000000
ENDCHAR
STARTCHAR U+01B1
ENCODING 433
SWIDTH 500 0
DWIDTH 12 0
BBX 19 24 -3 -2
BITMAP 
000000
000000
000000
000000
000000
01f780
03ef00
00ec00
00ec00
039c00
070e00
070e00
0e1c00
0e1c00
0e1c00
1c3800
1e7800
0ff000
0fc000
000000
000000
000000
000000
000000
ENDCHAR
STARTCHAR U+01B2
ENCODING 434
SWIDTH 500 0
DWIDTH 12 0
BBX 19 24 -3 -2
BITMAP 
000000
000000
000000
000000
000000
01de00
03be00
038e00
038e00
071c00
071c00
071c00
0e7800
0e7000
0ef000
1dc000
1f8000
1f0000
3c0000
000000
000000
000000
000000
000000
ENDCHAR
STARTCHAR U+01B3
ENCODING 435
SWIDTH 500 0
DWIDTH 12 0
BBX 19 24 -3 -2
BITMAP 
000000
000000
000000
000000
000000
01c180
07c700
01c700
00ee00
01dc00
00f800
00f800
00e000
00e000
00e000
01c000
01c000
01c000
038000
000000
000000
000000
000000
000000
ENDCHAR
STARTCHAR U+01B4
ENCODING 436
SWIDTH 500 0
DWIDTH 12 0
BBX 19 24 -3 -2
BITMAP 
000000
000000
000000
000000
000000
000000
000000
000700
000f00
0e7800
0e7000
0e7000
1ce000
1ce000
1ce000
39c000
3bc000
1fc000
1d8000
038000
038000
070000
fe0000
7c0000
ENDCHAR
STARTCHAR U+01B5
ENCODING 437
SWIDTH 500 0
DWIDTH 12 0
BBX 19 24 -3 -2
BITMAP 
000000
000000
000000
000000
000000
03ff80
07ff00
000700
000f00
003c00
007800
07fc00
0ff800
078000
0f0000
3c0000
380000
3ff800
7ff000
000000
000000
000000
000000
000000
ENDCHAR
STARTCHAR U+01B6
ENCODING 438
SWIDTH 500 0
DWIDTH 12 0
BBX 19 24 -3 -2
BITMAP 
000000
000000
000000
000000
000000
000000
000000
000000
000000
07fe00
07fe00
001c00
007000
07f800
07f800
070000
0e0000
1ff800
3ff000
000000
000000
000000
000000
000000
ENDCHAR
STARTCHAR U+01B7
ENCODING 439
SWIDTH 500 0
DWIDTH 12 0
BBX 19 24 -3 -2
BITMAP 
000000
000000
000000
000000
000000
01ff00
03fe00
001c00
003800
00e000
01f800
01fc00
003c00
001c00
001c00
003800
1c7800
1ff000
1fc000
000000
000000
000000
000000
000000
ENDCHAR
STARTCHAR U+01B8
ENCODING 440
SWIDTH 500 0
DWIDTH 12 0
BBX 19 24 -3 -2
BITMAP 
000000
000000
000000
000000
000000
00ff80
01ff00
00e000
006000
007000
01f800
03f800
0f0000
0e0000
0e0000
1c0000
1e3800
0ff800
0fe000
000000
000000
000000
000000
000000
ENDCHAR
STARTCHAR U+01B9
ENCODING 441
SWIDTH 500 0
DWIDTH 12 0
BBX 19 24 -3 -2
BITMAP 
000000
000000
000000
000000
000000
000000
000000
000000
000000
03f800
03f800
038000
038000
01c000
03e000
0fc000
1e0000
1c0000
380000
380000
3ce000
3fc000
1f8000
000000
ENDCHAR
STARTCHAR U+01BA
ENCODING 442
SWIDTH 500 0
DWIDTH 12 0
BBX 19 24 -3 -2
BITMAP 
000000
000000
000000
000000
000000
000000
000000
000000
000000
03f800
03f800
003800
00e000
01c000
03e000
07e000
00f000
007000
1fe000
3fc000
780000
f0e000
7fe000
3fc000
ENDCHAR
STARTCHAR U+01BB
ENCODING 443
SWIDTH 500 0
DWIDTH 12 0
BBX 19 24 -3 -2
BITMAP 
000000
000000
000000
000000
000000
007e00
01fe00
038f00
038700
000e00
001c00
03fc00
07f800
01c000
038000
0e0000
1c0000
1ff800
3ff000
000000
000000
000000
000000
000000
ENDCHAR
STARTCHAR U+01BC
ENCODING 444
SWIDTH 500 0
DWIDTH 12 0
BBX 19 24 -3 -2
BITMAP 
000000
000000
000000
000000
000000
01ff00
03fe00
00e000
00e000
01c000
01f800
01fc00
003c00
001c00
001c00
1c3800
1c7800
0ff000
0fc000
000000
000000
000000
000000
000000
ENDCHAR
STARTCHAR U+01BD
ENCODING 445
SWIDTH 500 0
DWIDTH 12 0
BBX 19 24 -3 -2
BITMAP 
000000
000000
000000
000000
000000
000000
000000
000000
000000
07fc00
07fc00
01c000
03f000
03f800
003c00
1c3800
1c7800
0ff000
0fc000
000000
000000
000000
000000
000000
ENDCHAR
STARTCHAR U+01BE
ENCODING 446
SWIDTH 500 0
DWIDTH 12 0
BBX 19 24 -3 -2
BITMAP 
000000
000000
000000
000000
000000
003800
007000
03fe00
03fe00
00e000
00f000
007800
007000
007000
007000
00e000
0ee000
0fc000
0f0000
000000
000000
000000
000000
000000
ENDCHAR
STARTCHAR U+01BF
ENCODING 447
SWIDTH 500 0
DWIDTH 12 0
BBX 19 24 -3 -2
BITMAP 
000000
000000
000000
000000
000000
000000
000000
000000
000000
077800
077c00
07de00
0f1c00
0e1c00
0e3c00
1cf000
1de000
1dc000
3f0000
3e0000
380000
700000
700000
000000
ENDCHAR
STARTCHAR U+01C0
ENCODING 448
SWIDTH 500 0
DWIDTH 12 0
BBX 19 24 -3 -2
BITMAP 
000000
000000
000000
000000
000000
003800
007000
007000
007000
00e000
00e000
00e000
01c000
01c000
01c000
038000
038000
038000
070000
000000
000000
000000
000000
000000
ENDCHAR
STARTCHAR U+01C1
ENCODING 449
SWIDTH 500 0
DWIDTH 12 0
BBX 19 24 -3 -2
BITMAP 
000000
000000
000000
000000
000000
00ee00
01dc00
01dc00
01dc00
03b800
03b800
03b800
077000
077000
077000
0ee000
0ee000
0ee000
1dc000
000000
000000
000000
000000
000000
ENDCHAR
STARTCHAR U+01C2
ENCODING 450
SWIDTH 500 0
DWIDTH 12 0
BBX 19 24 -3 -2
BITMAP 
000000
000000
000000
000000
000000
003800
007000
007000
007000
07fc00
07fc00
00e000
01c000
0ff800
0ff800
038000
038000
038000
070000
000000
000000
000000
000000
000000
ENDCHAR
STARTCHAR U+01C3
ENCODING 451
SWIDTH 500 0
DWIDTH 12 0
BBX 19 24 -3 -2
BITMAP 
000000
000000
000000
000000
000000
003800
007000
007000
007000
00e000
00e000
00e000
01c000
01c000
01c000
000000
000000
038000
070000
000000
000000
000000
000000
000000
ENDCHAR
STARTCHAR U+01C4
ENCODING 452
SWIDTH 500 0
DWIDTH 12 0
BBX 19 24 -3 -2
BITMAP 
001dc0
000f80
000700
000000
000000
03d780
07df00
07e700
076700
0ede00
0edc00
0edc00
1db800
1db800
1db000
3b6000
3f6000
3ff800
7bf000
000000
000000
000000
000000
000000
ENDCHAR
STARTCHAR U+01C5
ENCODING 453
SWIDTH 500 0
DWIDTH 12 0
BBX 19 24 -3 -2
BITMAP 
000000
000000
000000
000000
001dc0
03cf80
07ce00
07e000
076000
0ede00
0ede00
0ece00
1d9c00
1db800
1db800
3b6000
3f6000
3ef800
79f000
000000
000000
000000
000000
000000
ENDCHAR
STARTCHAR U+01C6
ENCODING 454
SWIDTH 500 0
DWIDTH 12 0
BBX 19 24 -3 -2
BITMAP 
000000
000000
000000
000000
001dc0
007780
00ee00
00e000
00e000
07de00
0fde00
0ece00
1d9c00
1db800
1db800
3b6000
3b6000
3f7800
3af000
000000
000000
000000
000000
000000
ENDCHAR
STARTCHAR U+01C7
ENCODING 455
SWIDTH 500 0
DWIDTH 12 0
BBX 19 24 -3 -2
BITMAP 
000000
000000
000000
000000
000000
038380
070700
070700
070700
0e0e00
0e0e00
0e0e00
1c1c00
1c1c00
1c1c00
3bb800
3bb800
3ef800
7de000
000000
000000
000000
000000
000000
ENDCHAR
STARTCHAR U+01C8
ENCODING 456
SWIDTH 500 0
DWIDTH 12 0
BBX 19 24 -3 -2
BITMAP 
000000
000000
000000
000000
000000
038380
070700
070000
070000
0e0e00
0e0e00
0e0e00
1c1c00
1c1c00
1c1c00
383800
383800
3fb800
7f7000
007000
007000
07e000
078000
000000
ENDCHAR
STARTCHAR U+01C9
ENCODING 457
SWIDTH 500 0
DWIDTH 12 0
BBX 19 24 -3 -2
BITMAP 
000000
000000
000000
000000
000000
01c700
038e00
038000
038000
071c00
071c00
071c00
0e3800
0e3800
0e3800
1c7000
1c7000
1f7000
1ee000
00e000
00e000
0fc000
0f0000
000000
ENDCHAR
STARTCHAR U+01CA
ENCODING 458
SWIDTH 500 0
DWIDTH 12 0
BBX 19 24 -3 -2
BITMAP 
000000
000000
000000
000000
000000
03bb80
077700
077700
07b700
0f6e00
0f6e00
0fee00
1fdc00
1ddc00
1ddc00
3bb800
3bd800
3bf800
76e000
000000
000000
000000
000000
000000
ENDCHAR
STARTCHAR U+01CB
ENCODING 459
SWIDTH 500 0
DWIDTH 12 0
BBX 19 24 -3 -2
BITMAP 
000000
000000
000000
000000
000000
03bb80
077700
077000
07b000
0f6e00
0f6e00
0fee00
1fdc00
1ddc00
1ddc00
3bb800
3bb800
3bb800
777000
007000
007000
07e000
078000
000000
ENDCHAR
STARTCHAR U+01CC
ENCODING 460
SWIDTH 500 0
DWIDTH 12 0
BBX 19 24 -3 -2
BITMAP 
000000
000000
000000
000000
000000
000380
000700
000000
000000
0eee00
0ef600
0fb600
1eec00
1cec00
1cec00
39d800
39d800
39d800
73b000
007000
007000
07e000
078000
000000
ENDCHAR
STARTCHAR U+01CD
ENCODING 461
SWIDTH 500 0
DWIDTH 12 0
BBX 19 24 -3 -2
BITMAP 
003b80
001f00
000e00
000000
000000
007e00
01fe00
03cf00
038700
070e00
070e00
07fe00
0ffc00
0e1c00
0e1c00
1c3800
1c3800
1c3800
387000
000000
000000
000000
000000
000000
ENDCHAR
STARTCHAR U+01CE
ENCODING 462
SWIDTH 500 0
DWIDTH 12 0
BBX 19 24 -3 -2
BITMAP 
000000
000000
000000
007700
003e00
001c00
000000
000000
007c00
01fc00
038e00
000e00
01fc00
07fc00
0e1c00
1c7800
1cf800
1fd800
1f7000
000000
000000
000000
000000
000000
ENDCHAR
STARTCHAR U+01CF
ENCODING 463
SWIDTH 500 0
DWIDTH 12 0
BBX 19 24 -3 -2
BITMAP 
007700
003e00
001c00
000000
000000
00fe00
01fc00
007000
007000
00e000
00e000
00e000
01c000
01c000
01c000
038000
038000
0fe000
1fc000
000000
000000
000000
000000
000000
ENDCHAR
STARTCHAR U+01D0
ENCODING 464
SWIDTH 500 0
DWIDTH 12 0
BBX 19 24 -3 -2
BITMAP 
000000
000000
000000
000000
00ee00
007c00
007000
000000
000000
00e000
00e000
00e000
01c000
01c000
01c000
038000
038000
038000
070000
000000
000000
000000
000000
000000
ENDCHAR
STARTCHAR U+01D1
ENCODING 465
SWIDTH 500 0
DWIDTH 12 0
BBX 19 24 -3 -2
BITMAP 
007700
003e00
001c00
000000
000000
007e00
01fe00
03cf00
038700
070e00
070e00
070e00
0e1c00
0e1c00
0e1c00
1c3800
1e7800
0ff000
0fc000
000000
000000
000000
000000
000000
ENDCHAR
STARTCHAR U+01D2
ENCODING 466
SWIDTH 500 0
DWIDTH 12 0
BBX 19 24 -3 -2
BITMAP 
000000
000000
000000
000000
00ee00
007c00
007000
000000
000000
01f800
03fc00
079e00
0e1c00
0e1c00
0e1c00
1c3800
1e7800
0ff000
0fc000
000000
000000
000000
000000
000000
ENDCHAR
STARTCHAR U+01D3
ENCODING 467
SWIDTH 500 0
DWIDTH 12 0
BBX 19 24 -3 -2
BITMAP 
007700
003e00
001c00
000000
000000
01c380
038700
038700
038700
070e00
070e00
070e00
0e1c00
0e1c00
0e1c00
1c3800
1e7800
0ff000
0fc000
000000
000000
000000
000000
000000
ENDCHAR
STARTCHAR U+01D4
ENCODING 468
SWIDTH 500 0
DWIDTH 12 0
BBX 19 24 -3 -2
BITMAP 
000000
000000
000000
000000
007700
003e00
003800
000000
000000
070e00
070e00
070e00
0e1c00
0e1c00
0e1c00
1c7800
1ef800
0fd800
0f7000
000000
000000
000000
000000
000000
ENDCHAR
STARTCHAR U+01D5
ENCODING 469
SWIDTH 500 0
DWIDTH 12 0
BBX 19 24 -3 -2
BITMAP 
007f80
007f80
000000
00e700
00e700
000000
038700
038700
038700
070e00
070e00
070e00
0e1c00
0e1c00
0e1c00
1c3800
1e7800
0ff000
0fc000
000000
000000
000000
000000
000000
ENDCHAR
STARTCHAR U+01D6
ENCODING 470
SWIDTH 500 0
DWIDTH 12 0
BBX 19 24 -3 -2
BITMAP 
000000
000000
000000
00ff00
00ff00
000000
01ce00
01ce00
000000
070e00
070e00
070e00
0e1c00
0e1c00
0e1c00
1c7800
1ef800
0fd800
0f7000
000000
000000
000000
000000
000000
ENDCHAR
STARTCHAR U+01D7
ENCODING 471
SWIDTH 500 0
DWIDTH 12 0
BBX 19 24 -3 -2
BITMAP 
000700
000f00
001c00
000000
00e700
00e700
000000
038700
038700
070e00
070e00
070e00
0e1c00
0e1c00
0e1c00
1c3800
1e7800
0ff000
0fc000
000000
000000
000000
000000
000000
ENDCHAR
STARTCHAR U+01D8
ENCODING 472
SWIDTH 500 0
DWIDTH 12 0
BBX 19 24 -3 -2
BITMAP 
000000
000000
000700
001e00
003800
000000
01ce00
01ce00
000000
070e00
070e00
070e00
0e1c00
0e1c00
0e1c00
1c7800
1ef800
0fd800
0f7000
000000
000000
000000
000000
000000
ENDCHAR
STARTCHAR U+01D9
ENCODING 473
SWIDTH 500 0
DWIDTH 12 0
BBX 19 24 -3 -2
BITMAP 
007700
003e00
001c00
000000
00e700
00e700
000000
038700
038700
070e00
070e00
070e00
0e1c00
0e1c00
0e1c00
1c3800
1e7800
0ff000
0fc000
000000
000000
000000
000000
000000
ENDCHAR
STARTCHAR U+01DA
ENCODING 474
SWIDTH 500 0
DWIDTH 12 0
BBX 19 24 -3 -2
BITMAP 
000000
000000
007700
007c00
003800
000000
01ce00
01ce00
000000
070e00
070e00
070e00
0e1c00
0e1c00
0e1c00
1c7800
1ef800
0fd800
0f7000
000000
000000
000000
000000
000000
ENDCHAR
STARTCHAR U+01DB
ENCODING 475
SWIDTH 500 0
DWIDTH 12 0
BBX 19 24 -3 -2
BITMAP 
003800
003c00
000e00
000000
00e700
00e700
000000
038700
038700
070e00
070e00
070e00
0e1c00
0e1c00
0e1c00
1c3800
1e7800
0ff000
0fc000
000000
000000
000000
000000
000000
ENDCHAR
STARTCHAR U+01DC
ENCODING 476
SWIDTH 500 0
DWIDTH 12 0
BBX 19 24 -3 -2
BITMAP 
000000
000000
003800
007800
001c00
000000
01ce00
01ce00
000000
070e00
070e00
070e00
0e1c00
0e1c00
0e1c00
1c7800
1ef800
0fd800
0f7000
000000
000000
000000
000000
000000
ENDCHAR
STARTCHAR U+01DD
ENCODING 477
SWIDTH 500 0
DWIDTH 12 0
BBX 19 24 -3 -2
BITMAP 
000000
000000
000000
000000
000000
000000
000000
000000
000000
03f800
07fc00
070e00
001c00
0ffc00
0ffc00
1c3800
1c7800
0ff000
0fc000
000000
000000
000000
000000
000000
ENDCHAR
STARTCHAR U+01DE
ENCODING 478
SWIDTH 500 0
DWIDTH 12 0
BBX 19 24 -3 -2
BITMAP 
007f80
007f80
000000
00e700
00e700
000000
00fc00
01fe00
03cf00
070e00
070e00
070e00
0ffc00
0ffc00
0e1c00
1c3800
1c3800
1c3800
387000
000000
000000
000000
000000
000000
ENDCHAR
STARTCHAR U+01DF
ENCODING 479
SWIDTH 500 0
DWIDTH 12 0
BBX 19 24 -3 -2
BITMAP 
000000
000000
007f80
00ff00
000000
00e700
01ce00
000000
007c00
01fc00
038e00
000e00
01fc00
07fc00
0e1c00
1c7800
1cf800
1fd800
1f7000
000000
000000
000000
000000
000000
ENDCHAR
STARTCHAR U+01E0
ENCODING 480
SWIDTH 500 0
DWIDTH 12 0
BBX 19 24 -3 -2
BITMAP 
007f00
007f00
000000
003800
003800
000000
00fc00
01fe00
03cf00
070e00
070e00
070e00
0ffc00
0ffc00
0e1c00
1c3800
1c3800
1c3800
387000
000000
000000
000000
000000
000000
ENDCHAR
STARTCHAR U+01E1
ENCODING 481
SWIDTH 500 0
DWIDTH 12 0
BBX 19 24 -3 -2
BITMAP 
000000
000000
003f80
007f00
000000
001c00
003800
000000
007c00
01fc00
038e00
000e00
01fc00
07fc00
0e1c00
1c7800
1cf800
1fd800
1f7000
000000
000000
000000
000000
000000
ENDCHAR
STARTCHAR U+01E2
ENCODING 482
SWIDTH 500 0
DWIDTH 12 0
BBX 19 24 -3 -2
BITMAP 
000000
007f80
007f80
000000
000000
00ff80
01ff00
03b800
03b800
0e7000
0e7e00
0ffe00
1fe000
1ce000
1ce000
39c000
39c000
39f800
73f000
000000
000000
000000
000000
000000
ENDCHAR
STARTCHAR U+01E3
ENCODING 483
SWIDTH 500 0
DWIDTH 12 0
BBX 19 24 -3 -2
BITMAP 
000000
000000
000000
000000
00ff00
00ff00
000000
000000
03de00
07fe00
0cee00
00ee00
07fc00
0ff800
1dc000
3b8000
3bb800
3ff800
3fe000
000000
000000
000000
000000
000000
ENDCHAR
STARTCHAR U+01E4
ENCODING 484
SWIDTH 500 0
DWIDTH 12 0
BBX 19 24 -3 -2
BITMAP 
000000
000000
000000
000000
000000
00fc00
03fc00
079e00
070e00
0e0000
0e0000
0e7c00
1cf800
1c3800
1dfc00
3bf800
3cf000
1fe000
1f8000
000000
000000
000000
000000
000000
ENDCHAR
STARTCHAR U+01E5
ENCODING 485
SWIDTH 500 0
DWIDTH 12 0
BBX 19 24 -3 -2
BITMAP 
000000
000000
000000
000000
000000
000000
000000
000000
000000
03dc00
07ec00
0f7c00
1c7800
1c3800
1c3800
3cf000
1ff000
0fb000
00e000
07f000
07f000
01c000
3f8000
1f0000
ENDCHAR
STARTCHAR U+01E6
ENCODING 486
SWIDTH 500 0
DWIDTH 12 0
BBX 19 24 -3 -2
BITMAP 
007700
003e00
001c00
000000
000000
007e00
01fe00
03cf00
038700
070000
070000
070000
0e7c00
0e7c00
0e1c00
1c3800
1e7800
0ff000
0fc000
000000
000000
000000
000000
000000
ENDCHAR
STARTCHAR U+01E7
ENCODING 487
SWIDTH 500 0
DWIDTH 12 0
BBX 19 24 -3 -2
BITMAP 
000000
000000
000000
000000
00ee00
007c00
007000
000000
000000
01ee00
03f600
07be00
0e3c00
0e1c00
0e1c00
1c3800
1e7800
0ff800
0fb000
007000
007000
00e000
1fc000
0f8000
ENDCHAR
STARTCHAR U+01E8
ENCODING 488
SWIDTH 500 0
DWIDTH 12 0
BBX 19 24 -3 -2
BITMAP 
007700
003e00
001c00
000000
000000
01c380
038e00
039c00
03b800
076000
07c000
078000
0f8000
0ec000
0ec000
1ce000
1c7000
1c3000
383000
000000
000000
000000
000000
000000
ENDCHAR
STARTCHAR U+01E9
ENCODING 489
SWIDTH 500 0
DWIDTH 12 0
BBX 19 24 -3 -2
BITMAP 
000000
00ee00
007c00
007000
000000
000000
038000
038000
038e00
073c00
077800
077000
0fc000
0f8000
0fc000
1dc000
1de000
1cf000
38e000
000000
000000
000000
000000
000000
ENDCHAR
STARTCHAR U+01EA
ENCODING 490
SWIDTH 500 0
DWIDTH 12 0
BBX 19 24 -3 -2
BITMAP 
000000
000000
000000
000000
000000
007e00
01fe00
03cf00
038700
070e00
070e00
070e00
0e1c00
0e1c00
0e1c00
1c3800
1e7800
0ff000
0fc000
038000
078000
1c0000
1f8000
0f0000
ENDCHAR
STARTCHAR U+01EB
ENCODING 491
SWIDTH 500 0
DWIDTH 12 0
BBX 19 24 -3 -2
BITMAP 
000000
000000
000000
000000
000000
000000
000000
000000
000000
01f800
03fc00
079e00
0e1c00
0e1c00
0e1c00
1c3800
1e7800
0ff000
0fc000
038000
078000
1c0000
1f8000
0f0000
ENDCHAR
STARTCHAR U+01EC
ENCODING 492
SWIDTH 500 0
DWIDTH 12 0
BBX 19 24 -3 -2
BITMAP 
000000
007f80
007f80
000000
000000
007e00
01fe00
03cf00
038700
070e00
070e00
070e00
0e1c00
0e1c00
0e1c00
1c3800
1e7800
0ff000
0fc000
038000
078000
1c0000
1f8000
0f0000
ENDCHAR
STARTCHAR U+01ED
ENCODING 493
SWIDTH 500 0
DWIDTH 12 0
BBX 19 24 -3 -2
BITMAP 
000000
000000
000000
000000
000000
00ff00
01fe00
000000
000000
01f800
03fc00
079e00
0e1c00
0e1c00
0e1c00
1c3800
1e7800
0ff000
0fc000
038000
078000
1c0000
1f8000
0f0000
ENDCHAR
STARTCHAR U+01EE
ENCODING 494
SWIDTH 500 0
DWIDTH 12 0
BBX 19 24 -3 -2
BITMAP 
007700
003e00
001c00
000000
000000
01ff00
03fe00
001c00
003800
00e000
01f800
01fc00
003c00
001c00
001c00
003800
1c7800
1ff000
1fc000
000000
000000
000000
000000
000000
ENDCHAR
STARTCHAR U+01EF
ENCODING 495
SWIDTH 500 0
DWIDTH 12 0
BBX 19 24 -3 -2
BITMAP 
000000
000000
000000
000000
00ee00
007c00
007000
000000
000000
03f800
03f800
003800
00e000
01c000
03e000
07e000
00f000
007000
00e000
00e000
39e000
7f8000
3f0000
000000
ENDCHAR
STARTCHAR U+01F0
ENCODING 496
SWIDTH 500 0
DWIDTH 12 0
BBX 19 24 -3 -2
BITMAP 
000000
000000
000000
000000
00ee00
007c00
007000
000000
000000
00e000
00e000
00e000
01c000
01c000
01c000
038000
038000
038000
070000
070000
070000
7e0000
780000
000000
ENDCHAR
STARTCHAR U+01F1
ENCODING 497
SWIDTH 500 0
DWIDTH 12 0
BBX 19 24 -3 -2
BITMAP 
000000
000000
000000
000000
000000
03d780
07df00
076700
076700
0ede00
0edc00
0edc00
1db800
1db800
1db000
3b6000
3b6000
3ff800
7bf000
000000
000000
000000
000000
000000
ENDCHAR
STARTCHAR U+01F2
ENCODING 498
SWIDTH 500 0
DWIDTH 12 0
BBX 19 24 -3 -2
BITMAP 
000000
000000
000000
000000
000000
03c000
07c000
07e000
076000
0ede00
0ede00
0ece00
1d9c00
1db800
1db800
3b6000
3f6000
3ef800
79f000
000000
000000
000000
000000
000000
ENDCHAR
STARTCHAR U+01F3
ENCODING 499
SWIDTH 500 0
DWIDTH 12 0
BBX 19 24 -3 -2
BITMAP 
000000
000000
000000
000000
000000
007000
00e000
00e000
00e000
07de00
0fde00
0ece00
1d9c00
1db800
1db800
3b6000
3b6000
3f7800
3af000
000000
000000
000000
000000
000000
ENDCHAR
STARTCHAR U+01F4
ENCODING 500
SWIDTH 500 0
DWIDTH 12 0
BBX 19 24 -3 -2
BITMAP 
000700
000f00
001c00
000000
000000
007e00
01fe00
03cf00
038700
070000
070000
070000
0e7c00
0e7c00
0e1c00
1c3800
1e7800
0ff000
0fc000
000000
000000
000000
000000
000000
ENDCHAR
STARTCHAR U+01F5
ENCODING 501
SWIDTH 500 0
DWIDTH 12 0
BBX 19 24 -3 -2
BITMAP 
000000
000000
000000
000000
000e00
001e00
007000
000000
000000
01ee00
03f600
07be00
0e3c00
0e1c00
0e1c00
1c3800
1e7800
0ff800
0fb000
007000
007000
00e000
1fc000
0f8000
ENDCHAR
STARTCHAR U+01FA
ENCODING 506
SWIDTH 500 0
DWIDTH 12 0
BBX 19 24 -3 -2
BITMAP 
000f00
001c00
000000
003c00
007600
003c00
000000
00fc00
01fe00
079e00
070e00
070e00
0ffc00
0ffc00
0e1c00
1c3800
1c3800
1c3800
387000
000000
000000
000000
000000
000000
ENDCHAR
STARTCHAR U+01FB
ENCODING 507
SWIDTH 500 0
DWIDTH 12 0
BBX 19 24 -3 -2
BITMAP 
000700
000f00
001c00
000000
003c00
007600
007800
000000
007c00
01fc00
038e00
000e00
01fc00
07fc00
0e1c00
1c7800
1cf800
1fd800
1f7000
000000
000000
000000
000000
000000
ENDCHAR
STARTCHAR U+01FC
ENCODING 508
SWIDTH 500 0
DWIDTH 12 0
BBX 19 24 -3 -2
BITMAP 
000e00
001e00
003800
000000
000000
00ff80
01ff00
03b800
03b800
0e7000
0e7e00
0ffe00
1fe000
1ce000
1ce000
39c000
39c000
39f800
73f000
000000
000000
000000
000000
000000
ENDCHAR
STARTCHAR U+01FD
ENCODING 509
SWIDTH 500 0
DWIDTH 12 0
BBX 19 24 -3 -2
BITMAP 
000000
000000
000000
001c00
003c00
007000
000000
000000
03de00
07fe00
0cee00
00ee00
07fc00
0ff800
1dc000
3b8000
3bb800
3ff800
3fe000
000000
000000
000000
000000
000000
ENDCHAR
STARTCHAR U+01FE
ENCODING 510
SWIDTH 500 0
DWIDTH 12 0
BBX 19 24 -3 -2
BITMAP 
000700
000f00
001c00
000000
000000
007e80
01ff00
03cf00
038f00
071e00
073600
077600
0edc00
0e9c00
0f9c00
1e3800
1e7800
1ff000
37c000
000000
000000
000000
000000
000000
ENDCHAR
STARTCHAR U+01FF
ENCODING 511
SWIDTH 500 0
DWIDTH 12 0
BBX 19 24 -3 -2
BITMAP 
000000
000000
000000
000000
000e00
001e00
007000
000000
000000
01f600
03fe00
07bc00
0efc00
0eec00
0eec00
1fb800
0f7800
1ff000
3bc000
000000
000000
000000
000000
000000
ENDCHAR
STARTCHAR U+0200
ENCODING 512
SWIDTH 500 0
DWIDTH 12 0
BBX 19 24 -3 -2
BITMAP 
00e700
00f780
0039c0
000000
000000
007e00
01fe00
03cf00
038700
070e00
070e00
07fe00
0ffc00
0e1c00
0e1c00
1c3800
1c3800
1c3800
387000
000000
000000
000000
000000
000000
ENDCHAR
STARTCHAR U+0201
ENCODING 513
SWIDTH 500 0
DWIDTH 12 0
BBX 19 24 -3 -2
BITMAP 
000000
000000
000000
01ce00
01ef00
007380
000000
000000
007c00
01fc00
038e00
000e00
01fc00
07fc00
0e1c00
1c7800
1cf800
1fd800
1f7000
000000
000000
000000
000000
000000
ENDCHAR
STARTCHAR U+0202
ENCODING 514
SWIDTH 500 0
DWIDTH 12 0
BBX 19 24 -3 -2
BITMAP 
003f00
007380
007380
000000
000000
007e00
01fe00
03cf00
038700
070e00
070e00
07fe00
0ffc00
0e1c00
0e1c00
1c3800
1c3800
1c3800
387000
000000
000000
000000
000000
000000
ENDCHAR
STARTCHAR U+0203
ENCODING 515
SWIDTH 500 0
DWIDTH 12 0
BBX 19 24 -3 -2
BITMAP 
000000
000000
000000
007e00
00e700
00e700
000000
000000
007c00
01fc00
038e00
000e00
01fc00
07fc00
0e1c00
1c7800
1cf800
1fd800
1f7000
000000
000000
000000
000000
000000
ENDCHAR
STARTCHAR U+0204
ENCODING 516
SWIDTH 500 0
DWIDTH 12 0
BBX 19 24 -3 -2
BITMAP 
00e700
00f780
0039c0
000000
000000
01ff80
03ff00
038000
038000
070000
070000
07f800
0ff000
0e0000
0e0000
1c0000
1c0000
1ff800
3ff000
000000
000000
000000
000000
000000
ENDCHAR
STARTCHAR U+0205
ENCODING 517
SWIDTH 500 0
DWIDTH 12 0
BBX 19 24 -3 -2
BITMAP 
000000
000000
000000
000000
01ce00
01cf00
00e700
000000
000000
01f800
03fc00
078e00
0e1c00
0ffc00
0ffc00
1c0000
1c3800
0ff800
0fe000
000000
000000
000000
000000
000000
ENDCHAR
STARTCHAR U+0206
ENCODING 518
SWIDTH 500 0
DWIDTH 12 0
BBX 19 24 -3 -2
BITMAP 
003f00
007380
007380
000000
000000
01ff80
03ff00
038000
038000
070000
070000
07f800
0ff000
0e0000
0e0000
1c0000
1c0000
1ff800
3ff000
000000
000000
000000
000000
000000
ENDCHAR
STARTCHAR U+0207
ENCODING 519
SWIDTH 500 0
DWIDTH 12 0
BBX 19 24 -3 -2
BITMAP 
000000
000000
000000
000000
007e00
00e700
01ce00
000000
000000
01f800
03fc00
078e00
0e1c00
0ffc00
0ffc00
1c0000
1c3800
0ff800
0fe000
000000
000000
000000
000000
000000
ENDCHAR
STARTCHAR U+0208
ENCODING 520
SWIDTH 500 0
DWIDTH 12 0
BBX 19 24 -3 -2
BITMAP 
01ce00
01ef00
007380
000000
000000
00fe00
01fc00
007000
007000
00e000
00e000
00e000
01c000
01c000
01c000
038000
038000
0fe000
1fc000
000000
000000
000000
000000
000000
ENDCHAR
STARTCHAR U+0209
ENCODING 521
SWIDTH 500 0
DWIDTH 12 0
BBX 19 24 -3 -2
BITMAP 
000000
000000
000000
000000
039c00
039e00
01ce00
000000
000000
00e000
00e000
00e000
01c000
01c000
01c000
038000
038000
038000
070000
000000
000000
000000
000000
000000
ENDCHAR
STARTCHAR U+020A
ENCODING 522
SWIDTH 500 0
DWIDTH 12 0
BBX 19 24 -3 -2
BITMAP 
003e00
007700
007700
000000
000000
00fe00
01fc00
007000
007000
00e000
00e000
00e000
01c000
01c000
01c000
038000
038000
0fe000
1fc000
000000
000000
000000
000000
000000
ENDCHAR
STARTCHAR U+020B
ENCODING 523
SWIDTH 500 0
DWIDTH 12 0
BBX 19 24 -3 -2
BITMAP 
000000
000000
000000
000000
007c00
00ee00
01dc00
000000
000000
00e000
00e000
00e000
01c000
01c000
01c000
038000
038000
038000
070000
000000
000000
000000
000000
000000
ENDCHAR
STARTCHAR U+020C
ENCODING 524
SWIDTH 500 0
DWIDTH 12 0
BBX 19 24 -3 -2
BITMAP 
00e700
00f780
0039c0
000000
000000
007e00
01fe00
03cf00
038700
070e00
070e00
070e00
0e1c00
0e1c00
0e1c00
1c3800
1e7800
0ff000
0fc000
000000
000000
000000
000000
000000
ENDCHAR
STARTCHAR U+020D
ENCODING 525
SWIDTH 500 0
DWIDTH 12 0
BBX 19 24 -3 -2
BITMAP 
000000
000000
000000
000000
01ce00
01cf00
00e700
000000
000000
01f800
03fc00
079e00
0e1c00
0e1c00
0e1c00
1c3800
1e7800
0ff000
0fc000
000000
000000
000000
000000
000000
ENDCHAR
STARTCHAR U+020E
ENCODING 526
SWIDTH 500 0
DWIDTH 12 0
BBX 19 24 -3 -2
BITMAP 
003f00
007380
007380
000000
000000
007e00
01fe00
03cf00
038700
070e00
070e00
070e00
0e1c00
0e1c00
0e1c00
1c3800
1e7800
0ff000
0fc000
000000
000000
000000
000000
000000
ENDCHAR
STARTCHAR U+020F
ENCODING 527
SWIDTH 500 0
DWIDTH 12 0
BBX 19 24 -3 -2
BITMAP 
000000
000000
000000
000000
007e00
00e700
01ce00
000000
000000
01f800
03fc00
079e00
0e1c00
0e1c00
0e1c00
1c3800
1e7800
0ff000
0fc000
000000
000000
000000
000000
000000
ENDCHAR
STARTCHAR U+0210
ENCODING 528
SWIDTH 500 0
DWIDTH 12 0
BBX 19 24 -3 -2
BITMAP 
00e700
00f780
0039c0
000000
000000
01fe00
03fe00
038f00
038700
070e00
071e00
07fc00
0ff000
0e7000
0e7000
1c7000
1c7000
1c3800
387000
000000
000000
000000
000000
000000
ENDCHAR
STARTCHAR U+0211
ENCODING 529
SWIDTH 500 0
DWIDTH 12 0
BBX 19 24 -3 -2
BITMAP 
000000
000000
000000
000000
01ce00
01cf00
00e700
000000
000000
077800
077c00
07ce00
0f1c00
0e0000
0e0000
1c0000
1c0000
1c0000
380000
000000
000000
000000
000000
000000
ENDCHAR
STARTCHAR U+0212
ENCODING 530
SWIDTH 500 0
DWIDTH 12 0
BBX 19 24 -3 -2
BITMAP 
003f00
007380
007380
000000
000000
01fe00
03fe00
038f00
038700
070e00
071e00
07fc00
0ff000
0e7000
0e7000
1c7000
1c7000
1c3800
387000
000000
000000
000000
000000
000000
ENDCHAR
STARTCHAR U+0213
ENCODING 531
SWIDTH 500 0
DWIDTH 12 0
BBX 19 24 -3 -2
BITMAP 
000000
000000
000000
000000
007e00
00e700
01ce00
000000
000000
077800
077c00
07ce00
0f1c00
0e0000
0e0000
1c0000
1c0000
1c0000
380000
000000
000000
000000
000000
000000
ENDCHAR
STARTCHAR U+0214
ENCODING 532
SWIDTH 500 0
DWIDTH 12 0
BBX 19 24 -3 -2
BITMAP 
00e700
00f780
0039c0
000000
000000
01c380
038700
038700
038700
070e00
070e00
070e00
0e1c00
0e1c00
0e1c00
1c3800
1e7800
0ff000
0fc000
000000
000000
000000
000000
000000
ENDCHAR
STARTCHAR U+0215
ENCODING 533
SWIDTH 500 0
DWIDTH 12 0
BBX 19 24 -3 -2
BITMAP 
000000
000000
000000
000000
01ce00
01cf00
00e700
000000
000000
070e00
070e00
070e00
0e1c00
0e1c00
0e1c00
1c7800
1ef800
0fd800
0f7000
000000
000000
000000
000000
000000
ENDCHAR
STARTCHAR U+0216
ENCODING 534
SWIDTH 500 0
DWIDTH 12 0
BBX 19 24 -3 -2
BITMAP 
003f00
007380
007380
000000
000000
01c380
038700
038700
038700
070e00
070e00
070e00
0e1c00
0e1c00
0e1c00
1c3800
1e7800
0ff000
0fc000
000000
000000
000000
000000
000000
ENDCHAR
STARTCHAR U+0217
ENCODING 535
SWIDTH 500 0
DWIDTH 12 0
BBX 19 24 -3 -2
BITMAP 
000000
000000
000000
000000
007e00
00e700
01ce00
000000
000000
070e00
070e00
070e00
0e1c00
0e1c00
0e1c00
1c7800
1ef800
0fd800
0f7000
000000
000000
000000
000000
000000
ENDCHAR
STARTCHAR U+0250
ENCODING 592
SWIDTH 500 0
DWIDTH 12 0
BBX 19 24 -3 -2
BITMAP 
000000
000000
000000
000000
000000
000000
000000
000000
000000
077c00
07fe00
078e00
0e1c00
0ff800
0ff000
1c0000
1c3800
0ff000
0fc000
000000
000000
000000
000000
000000
ENDCHAR
STARTCHAR U+0251
ENCODING 593
SWIDTH 500 0
DWIDTH 12 0
BBX 19 24 -3 -2
BITMAP 
000000
000000
000000
000000
000000
000000
000000
000000
000000
01f600
03fe00
071e00
0e1c00
0e1c00
0e1c00
1c7800
1cf800
0fd800
0f7000
000000
000000
000000
000000
000000
ENDCHAR
STARTCHAR U+0252
ENCODING 594
SWIDTH 500 0
DWIDTH 12 0
BBX 19 24 -3 -2
BITMAP 
000000
000000
000000
000000
000000
000000
000000
000000
000000
077800
077c00
07ce00
0f1c00
0e1c00
0e1c00
1c3800
1e3800
1ff000
3bc000
000000
000000
000000
000000
000000
ENDCHAR
STARTCHAR U+0253
ENCODING 595
SWIDTH 500 0
DWIDTH 12 0
BBX 19 24 -3 -2
BITMAP 
000000
000000
000000
000000
00f000
01f000
038000
038000
038000
077800
077c00
07de00
0f1c00
0e1c00
0e1c00
1e3800
1f7800
1df000
3bc000
000000
000000
000000
000000
000000
ENDCHAR
STARTCHAR U+0254
ENCODING 596
SWIDTH 500 0
DWIDTH 12 0
BBX 19 24 -3 -2
BITMAP 
000000
000000
000000
000000
000000
000000
000000
000000
000000
03f800
07fc00
071e00
001c00
001c00
001c00
1c3800
1c7800
0ff000
1fc000
000000
000000
000000
000000
000000
ENDCHAR
STARTCHAR U+0255
ENCODING 597
SWIDTH 500 0
DWIDTH 12 0
BBX 19 24 -3 -2
BITMAP 
000000
000000
000000
000000
000000
000000
000000
000000
000000
01fc00
03fc00
078e00
0e1c00
0e0000
0e7800
1df800
1fb800
0ff800
0fe000
1c0000
000000
000000
000000
000000
ENDCHAR
STARTCHAR U+0256
ENCODING 598
SWIDTH 500 0
DWIDTH 12 0
BBX 19 24 -3 -2
BITMAP 
000000
000000
000000
000000
000000
000e00
001c00
001c00
001c00
03d800
07f800
0f7800
1c7000
1c7000
1c7000
39e000
3be000
1f6000
1df000
00f000
000000
000000
000000
000000
ENDCHAR
STARTCHAR U+0257
ENCODING 599
SWIDTH 500 0
DWIDTH 12 0
BBX 19 24 -3 -2
BITMAP 
000000
000000
000000
000000
000780
000f80
001c00
001c00
001c00
03d800
07f800
0f7800
1c7000
1c7000
1c7000
39e000
3be000
1f6000
1dc000
000000
000000
000000
000000
000000
ENDCHAR
STARTCHAR U+0258
ENCODING 600
SWIDTH 500 0
DWIDTH 12 0
BBX 19 24 -3 -2
BITMAP 
000000
000000
000000
000000
000000
000000
000000
000000
000000
01f800
03fc00
071e00
0e1c00
0ffc00
0ffc00
003800
1c3800
1ff000
1fc000
000000
000000
000000
000000
000000
ENDCHAR
STARTCHAR U+0259
ENCODING 601
SWIDTH 500 0
DWIDTH 12 0
BBX 19 24 -3 -2
BITMAP 
000000
000000
000000
000000
000000
000000
000000
000000
000000
03f800
07fc00
070e00
001c00
0ffc00
0ffc00
1c3800
1c7800
0ff000
0fc000
000000
000000
000000
000000
000000
ENDCHAR
STARTCHAR U+025A
ENCODING 602
SWIDTH 500 0
DWIDTH 12 0
BBX 19 24 -3 -2
BITMAP 
000000
000000
000000
000000
000000
000000
000000
000000
000700
07ee00
0ff800
0e6800
007000
1ff000
1ff000
38e000
39e000
1fc000
1f0000
000000
000000
000000
000000
000000
ENDCHAR
STARTCHAR U+025B
ENCODING 603
SWIDTH 500 0
DWIDTH 12 0
BBX 19 24 -3 -2
BITMAP 
000000
000000
000000
000000
000000
000000
000000
000000
000000
01f800
03fc00
070e00
0e0000
07e000
07e000
1c0000
1c3800
0ff000
0fc000
000000
000000
000000
000000
000000
ENDCHAR
STARTCHAR U+025C
ENCODING 604
SWIDTH 500 0
DWIDTH 12 0
BBX 19 24 -3 -2
BITMAP 
000000
000000
000000
000000
000000
000000
000000
000000
000000
01f800
03fc00
070e00
001c00
01f800
01f800
003800
1c3800
0ff000
0fc000
000000
000000
000000
000000
000000
ENDCHAR
STARTCHAR U+025D
ENCODING 605
SWIDTH 500 0
DWIDTH 12 0
BBX 19 24 -3 -2
BITMAP 
000000
000000
000000
000000
000000
000000
000000
000000
000700
03ee00
07f800
0e6800
007000
03e000
03e000
00e000
38e000
1fc000
1f0000
000000
000000
000000
000000
000000
ENDCHAR
STARTCHAR U+025E
ENCODING 606
SWIDTH 500 0
DWIDTH 12 0
BBX 19 24 -3 -2
BITMAP 
000000
000000
000000
000000
000000
000000
000000
000000
000000
01f800
03fc00
070e00
0e1c00
0ef800
0ef800
1c3800
1c3800
0ff000
0fc000
000000
000000
000000
000000
000000
ENDCHAR
STARTCHAR U+025F
ENCODING 607
SWIDTH 500 0
DWIDTH 12 0
BBX 19 24 -3 -2
BITMAP 
000000
000000
000000
000000
000000
000000
000000
000000
000000
00e000
00e000
00e000
01c000
01c000
01c000
038000
1ff000
1ff000
070000
070000
070000
7e0000
780000
000000
ENDCHAR
STARTCHAR U+0260
ENCODING 608
SWIDTH 500 0
DWIDTH 12 0
BBX 19 24 -3 -2
BITMAP 
000000
000000
000000
000000
000000
000000
000000
000700
000f00
03b800
07d800
0f7800
1cf000
1c7000
1c7000
38e000
3de000
1fe000
1ec000
01c000
01c000
038000
ff0000
7e0000
ENDCHAR
STARTCHAR U+0261
ENCODING 609
SWIDTH 500 0
DWIDTH 12 0
BBX 19 24 -3 -2
BITMAP 
000000
000000
000000
000000
000000
000000
000000
000000
000000
01ee00
03f600
07be00
0e3c00
0e1c00
0e1c00
1c3800
1e7800
0ff800
0fb000
007000
007000
00e000
3fc000
1f8000
ENDCHAR
STARTCHAR U+0262
ENCODING 610
SWIDTH 500 0
DWIDTH 12 0
BBX 19 24 -3 -2
BITMAP 
000000
000000
000000
000000
000000
000000
000000
000000
000000
01f800
03fc00
079e00
0e0000
0e0000
0e7c00
1cf800
1e3800
0ff800
0fe000
000000
000000
000000
000000
000000
ENDCHAR
STARTCHAR U+0263
ENCODING 611
SWIDTH 500 0
DWIDTH 12 0
BBX 19 24 -3 -2
BITMAP 
000000
000000
000000
000000
000000
000000
000000
000000
000000
070e00
079e00
01b800
01e000
03f000
073800
0e7000
0e7000
0e7000
0fc000
078000
000000
000000
000000
000000
ENDCHAR
STARTCHAR U+0264
ENCODING 612
SWIDTH 500 0
DWIDTH 12 0
BBX 19 24 -3 -2
BITMAP 
000000
000000
000000
000000
000000
000000
000000
000000
000000
070e00
079e00
039c00
03b000
03b000
01e000
07e000
076000
07e000
078000
000000
000000
000000
000000
000000
ENDCHAR
STARTCHAR U+0265
ENCODING 613
SWIDTH 500 0
DWIDTH 12 0
BBX 19 24 -3 -2
BITMAP 
000000
000000
000000
000000
000000
000000
000000
000000
000000
070e00
070e00
070e00
0e1c00
0e1c00
0e1c00
1c7800
1ef800
0fd800
0f7000
007000
007000
00e000
00e000
00e000
ENDCHAR
STARTCHAR U+0266
ENCODING 614
SWIDTH 500 0
DWIDTH 12 0
BBX 19 24 -3 -2
BITMAP 
000000
000000
000000
000000
007800
00f800
038000
038000
038000
077800
077c00
07de00
0f1c00
0e1c00
0e1c00
1c3800
1c3800
1c3800
387000
000000
000000
000000
000000
000000
ENDCHAR
STARTCHAR U+0267
ENCODING 615
SWIDTH 500 0
DWIDTH 12 0
BBX 19 24 -3 -2
BITMAP 
000000
000000
000000
000000
007800
00f800
038000
038000
038000
077800
077c00
07de00
0f1c00
0e1c00
0e1c00
1c3800
1c3800
1c3800
387000
007000
007000
00e000
0fc000
078000
ENDCHAR
STARTCHAR U+0268
ENCODING 616
SWIDTH 500 0
DWIDTH 12 0
BBX 19 24 -3 -2
BITMAP 
000000
000000
000000
000000
000000
003800
007000
000000
000000
00e000
00e000
00e000
01c000
07f000
07f000
038000
038000
038000
070000
000000
000000
000000
000000
000000
ENDCHAR
STARTCHAR U+0269
ENCODING 617
SWIDTH 500 0
DWIDTH 12 0
BBX 19 24 -3 -2
BITMAP 
000000
000000
000000
000000
000000
000000
000000
000000
000000
00e000
00e000
00e000
01c000
01c000
01c000
038000
038000
03e000
03c000
000000
000000
000000
000000
000000
ENDCHAR
STARTCHAR U+026A
ENCODING 618
SWIDTH 500 0
DWIDTH 12 0
BBX 19 24 -3 -2
BITMAP 
000000
000000
000000
000000
000000
000000
000000
000000
000000
03f800
03f800
00e000
01c000
01c000
01c000
038000
038000
0fe000
1fc000
000000
000000
000000
000000
000000
ENDCHAR
STARTCHAR U+026B
ENCODING 619
SWIDTH 500 0
DWIDTH 12 0
BBX 19 24 -3 -2
BITMAP 
000000
000000
000000
000000
000000
003800
007000
007000
007000
00e000
03ec00
076c00
0df000
01c000
01c000
038000
038000
03e000
03c000
000000
000000
000000
000000
000000
ENDCHAR
STARTCHAR U+026C
ENCODING 620
SWIDTH 500 0
DWIDTH 12 0
BBX 19 24 -3 -2
BITMAP 
000000
000000
000000
000000
000000
003800
007000
007000
007000
076000
0fe000
0ee000
1ff800
0ff800
01c000
038000
038000
03e000
03c000
000000
000000
000000
000000
000000
ENDCHAR
STARTCHAR U+026D
ENCODING 621
SWIDTH 500 0
DWIDTH 12 0
BBX 19 24 -3 -2
BITMAP 
000000
000000
000000
000000
000000
003800
007000
007000
007000
00e000
00e000
00e000
01c000
01c000
01c000
038000
038000
038000
070000
070000
03e000
03c000
000000
000000
ENDCHAR
STARTCHAR U+026E
ENCODING 622
SWIDTH 500 0
DWIDTH 12 0
BBX 19 24 -3 -2
BITMAP 
000000
000000
000000
000000
000000
01c000
038000
038000
038000
07fc00
07fc00
071c00
0e7000
0ee000
0ef000
1df000
1c7800
1f3800
1e7000
007000
00f000
1fc000
0f8000
000000
ENDCHAR
STARTCHAR U+026F
ENCODING 623
SWIDTH 500 0
DWIDTH 12 0
BBX 19 24 -3 -2
BITMAP 
000000
000000
000000
000000
000000
000000
000000
000000
000000
0eee00
0eee00
0eee00
1ddc00
1ddc00
1ddc00
3bb800
3bb800
3ff800
3db000
000000
000000
000000
000000
000000
ENDCHAR
STARTCHAR U+0270
ENCODING 624
SWIDTH 500 0
DWIDTH 12 0
BBX 19 24 -3 -2
BITMAP 
000000
000000
000000
000000
000000
000000
000000
000000
000000
0eee00
0eee00
0eee00
1ddc00
1ddc00
1ddc00
3bb800
3bb800
3ff800
3db000
007000
007000
00e000
00e000
000000
ENDCHAR
STARTCHAR U+0271
ENCODING 625
SWIDTH 500 0
DWIDTH 12 0
BBX 19 24 -3 -2
BITMAP 
000000
000000
000000
000000
000000
000000
000000
000000
000000
0edc00
0ffe00
0eee00
1ddc00
1ddc00
1ddc00
3bb800
3bb800
3bb800
777000
007000
01f000
03c000
000000
000000
ENDCHAR
STARTCHAR U+0272
ENCODING 626
SWIDTH 500 0
DWIDTH 12 0
BBX 19 24 -3 -2
BITMAP 
000000
000000
000000
000000
000000
000000
000000
000000
000000
03b800
03bc00
03ee00
079c00
071c00
071c00
0e3800
0e3800
0e3800
1c7000
1c0000
1c0000
f80000
f00000
000000
ENDCHAR
STARTCHAR U+0273
ENCODING 627
SWIDTH 500 0
DWIDTH 12 0
BBX 19 24 -3 -2
BITMAP 
000000
000000
000000
000000
000000
000000
000000
000000
000000
0ee000
0ef000
0fb800
1e7000
1c7000
1c7000
38e000
38e000
38e000
71c000
01c000
01c000
03e000
01e000
000000
ENDCHAR
STARTCHAR U+0274
ENCODING 628
SWIDTH 500 0
DWIDTH 12 0
BBX 19 24 -3 -2
BITMAP 
000000
000000
000000
000000
000000
000000
000000
000000
000000
070e00
070e00
078e00
0f9c00
0edc00
0edc00
1cf800
1c7800
1c3800
387000
000000
000000
000000
000000
000000
ENDCHAR
STARTCHAR U+0275
ENCODING 629
SWIDTH 500 0
DWIDTH 12 0
BBX 19 24 -3 -2
BITMAP 
000000
000000
000000
000000
000000
000000
000000
000000
000000
01f800
03fc00
079e00
0e1c00
0ffc00
0ffc00
1c3800
1e7800
0ff000
0fc000
000000
000000
000000
000000
000000
ENDCHAR
STARTCHAR U+0276
ENCODING 630
SWIDTH 500 0
DWIDTH 12 0
BBX 19 24 -3 -2
BITMAP 
000000
000000
000000
000000
000000
000000
000000
000000
000000
07fe00
0ffe00
0ee000
1dc000
1df800
1df800
3b8000
3b8000
3ff800
3ff000
000000
000000
000000
000000
000000
ENDCHAR
STARTCHAR U+0277
ENCODING 631
SWIDTH 500 0
DWIDTH 12 0
BBX 19 24 -3 -2
BITMAP 
000000
000000
000000
000000
000000
000000
000000
000000
000000
03f800
07fc00
0e0e00
1c1c00
1ddc00
1ddc00
3bb800
3bb800
1ff000
1dc000
000000
000000
000000
000000
000000
ENDCHAR
STARTCHAR U+0278
ENCODING 632
SWIDTH 500 0
DWIDTH 12 0
BBX 19 24 -3 -2
BITMAP 
000000
000000
000000
000000
000000
003800
007000
007000
007000
03f800
07fc00
0f6e00
1ddc00
1ddc00
1ddc00
3bb800
3db800
1ff000
1fc000
070000
070000
0e0000
0e0000
000000
ENDCHAR
STARTCHAR U+0279
ENCODING 633
SWIDTH 500 0
DWIDTH 12 0
BBX 19 24 -3 -2
BITMAP 
000000
000000
000000
000000
000000
000000
000000
000000
000000
000e00
000e00
000e00
001c00
001c00
001c00
1c7800
1cf800
0fd800
0f7000
000000
000000
000000
000000
000000
ENDCHAR
STARTCHAR U+027A
ENCODING 634
SWIDTH 500 0
DWIDTH 12 0
BBX 19 24 -3 -2
BITMAP 
000000
000000
000000
000000
000000
000380
000700
000700
000700
000e00
000e00
000e00
001c00
001c00
001c00
1c7800
1cf800
0fd800
0f7000
000000
000000
000000
000000
000000
ENDCHAR
STARTCHAR U+027B
ENCODING 635
SWIDTH 500 0
DWIDTH 12 0
BBX 19 24 -3 -2
BITMAP 
000000
000000
000000
000000
000000
000000
000000
000000
000000
003800
003800
003800
007000
007000
007000
39e000
3be000
1f6000
1cf000
007000
000000
000000
000000
000000
ENDCHAR
STARTCHAR U+027C
ENCODING 636
SWIDTH 500 0
DWIDTH 12 0
BBX 19 24 -3 -2
BITMAP 
000000
000000
000000
000000
000000
01de00
03be00
03e700
03c700
070000
070000
070000
0e0000
0e0000
0e0000
1c0000
1c0000
1c0000
380000
000000
000000
000000
000000
000000
ENDCHAR
STARTCHAR U+027D
ENCODING 637
SWIDTH 500 0
DWIDTH 12 0
BBX 19 24 -3 -2
BITMAP 
000000
000000
000000
000000
000000
000000
000000
000000
000000
077800
077c00
07ce00
0f1c00
0e0000
0e0000
1c0000
1c0000
1c0000
380000
380000
1f0000
1e0000
000000
000000
ENDCHAR
STARTCHAR U+027E
ENCODING 638
SWIDTH 500 0
DWIDTH 12 0
BBX 19 24 -3 -2
BITMAP 
000000
000000
000000
000000
000000
000000
000000
000000
000000
01f000
03f800
071c00
0e3800
0e0000
0e0000
1c0000
1c0000
1c0000
380000
000000
000000
000000
000000
000000
ENDCHAR
STARTCHAR U+027F
ENCODING 639
SWIDTH 500 0
DWIDTH 12 0
BBX 19 24 -3 -2
BITMAP 
000000
000000
000000
000000
000000
000000
000000
000000
000000
01f000
03f800
071c00
0e3800
003800
003800
007000
007000
007000
00e000
000000
000000
000000
000000
000000
ENDCHAR
STARTCHAR U+0280
ENCODING 640
SWIDTH 500 0
DWIDTH 12 0
BBX 19 24 -3 -2
BITMAP 
000000
000000
000000
000000
000000
000000
000000
000000
000000
07fc00
07fe00
070e00
0e1c00
0ffc00
0ff800
1ce000
1cf000
1c7800
387000
000000
000000
000000
000000
000000
ENDCHAR
STARTCHAR U+0281
ENCODING 641
SWIDTH 500 0
DWIDTH 12 0
BBX 19 24 -3 -2
BITMAP 
000000
000000
000000
000000
000000
000000
000000
000000
000000
070e00
071e00
073c00
0e7000
0ff800
0ffc00
1c3800
1c3800
1ff800
3fe000
000000
000000
000000
000000
000000
ENDCHAR
STARTCHAR U+0282
ENCODING 642
SWIDTH 500 0
DWIDTH 12 0
BBX 19 24 -3 -2
BITMAP 
000000
000000
000000
000000
000000
000000
000000
000000
000000
03fc00
07fe00
070600
0e0000
07f000
03f000
003800
003800
1ff800
3fe000
380000
380000
3e0000
1e0000
000000
ENDCHAR
STARTCHAR U+0283
ENCODING 643
SWIDTH 500 0
DWIDTH 12 0
BBX 19 24 -3 -2
BITMAP 
000000
000000
000000
000000
000000
000f00
003e00
007800
007000
00e000
00e000
00e000
01c000
01c000
01c000
038000
038000
038000
070000
070000
0f0000
7c0000
780000
000000
ENDCHAR
STARTCHAR U+0284
ENCODING 644
SWIDTH 500 0
DWIDTH 12 0
BBX 19 24 -3 -2
BITMAP 
000000
000000
000000
000000
000000
000f00
003e00
007800
007000
00e000
07fc00
07fc00
01c000
01c000
01c000
038000
1ff000
1ff000
070000
070000
0f0000
7c0000
780000
000000
ENDCHAR
STARTCHAR U+0285
ENCODING 645
SWIDTH 500 0
DWIDTH 12 0
BBX 19 24 -3 -2
BITMAP 
000000
000000
000000
000000
000000
000000
000000
000000
000000
078000
07c000
01e000
01c000
01c000
01c000
038000
038000
038000
070000
070000
078000
07c000
03c000
000000
ENDCHAR
STARTCHAR U+0286
ENCODING 646
SWIDTH 500 0
DWIDTH 12 0
BBX 19 24 -3 -2
BITMAP 
000000
000000
000000
000000
000000
000780
001f00
003c00
003800
007000
007000
007000
00e000
00e000
00e000
01c000
01c000
0ec000
3f8000
3b8000
3bc000
7fe000
3ce000
000000
ENDCHAR
STARTCHAR U+0287
ENCODING 647
SWIDTH 500 0
DWIDTH 12 0
BBX 19 24 -3 -2
BITMAP 
000000
000000
000000
000000
000000
000000
01e000
01f000
007000
00e000
00e000
00e000
01c000
01c000
07f000
0fe000
038000
038000
070000
000000
000000
000000
000000
000000
ENDCHAR
STARTCHAR U+0288
ENCODING 648
SWIDTH 500 0
DWIDTH 12 0
BBX 19 24 -3 -2
BITMAP 
000000
000000
000000
000000
000000
000000
007000
007000
007000
03f800
03f800
00e000
01c000
01c000
01c000
038000
038000
038000
070000
070000
03e000
03c000
000000
000000
ENDCHAR
STARTCHAR U+0289
ENCODING 649
SWIDTH 500 0
DWIDTH 12 0
BBX 19 24 -3 -2
BITMAP 
000000
000000
000000
000000
000000
000000
000000
000000
000000
071c00
071c00
071c00
1ffc00
1ffc00
0e3800
1c7000
1ef000
0ff000
0f6000
000000
000000
000000
000000
000000
ENDCHAR
STARTCHAR U+028A
ENCODING 650
SWIDTH 500 0
DWIDTH 12 0
BBX 19 24 -3 -2
BITMAP 
000000
000000
000000
000000
000000
000000
000000
000000
000000
07de00
07de00
01d800
03b000
073800
0e1c00
1c3800
1e7800
0ff000
0fc000
000000
000000
000000
000000
000000
ENDCHAR
STARTCHAR U+028B
ENCODING 651
SWIDTH 500 0
DWIDTH 12 0
BBX 19 24 -3 -2
BITMAP 
000000
000000
000000
000000
000000
000000
000000
000000
000000
079c00
079e00
038e00
071c00
071c00
073800
0e7000
0ee000
0fe000
0f0000
000000
000000
000000
000000
000000
ENDCHAR
STARTCHAR U+028C
ENCODING 652
SWIDTH 500 0
DWIDTH 12 0
BBX 19 24 -3 -2
BITMAP 
000000
000000
000000
000000
000000
000000
000000
000000
000000
00f000
00f000
01d800
03b000
073800
073800
0e7000
1c3800
1c3800
387000
000000
000000
000000
000000
000000
ENDCHAR
STARTCHAR U+028D
ENCODING 653
SWIDTH 500 0
DWIDTH 12 0
BBX 19 24 -3 -2
BITMAP 
000000
000000
000000
000000
000000
000000
000000
000000
000000
039c00
039c00
039c00
07b800
0eec00
0eec00
1dd800
1db800
1c3800
387000
000000
000000
000000
000000
000000
ENDCHAR
STARTCHAR U+028E
ENCODING 654
SWIDTH 500 0
DWIDTH 12 0
BBX 19 24 -3 -2
BITMAP 
000000
000000
000000
000000
000000
000700
001e00
001c00
003c00
007000
00f000
00f000
03f000
03b000
07b800
0e7000
1e7800
1c3800
387000
000000
000000
000000
000000
000000
ENDCHAR
STARTCHAR U+028F
ENCODING 655
SWIDTH 500 0
DWIDTH 12 0
BBX 19 24 -3 -2
BITMAP 
000000
000000
000000
000000
000000
000000
000000
000000
000000
0e0e00
0f1e00
07bc00
07f000
03e000
01c000
038000
038000
038000
070000
000000
000000
000000
000000
000000
ENDCHAR
STARTCHAR U+0290
ENCODING 656
SWIDTH 500 0
DWIDTH 12 0
BBX 19 24 -3 -2
BITMAP 
000000
000000
000000
000000
000000
000000
000000
000000
000000
07f800
07f800
003800
00e000
01c000
038000
0e0000
1c0000
1fe000
3fc000
01c000
00f000
00e000
000000
000000
ENDCHAR
STARTCHAR U+0291
ENCODING 657
SWIDTH 500 0
DWIDTH 12 0
BBX 19 24 -3 -2
BITMAP 
000000
000000
000000
000000
000000
000000
000000
000000
000000
07fc00
07fc00
003800
00e000
01c000
038000
0ef000
1dd800
1fd800
3fe000
070000
0e0000
000000
000000
000000
ENDCHAR
STARTCHAR U+0292
ENCODING 658
SWIDTH 500 0
DWIDTH 12 0
BBX 19 24 -3 -2
BITMAP 
000000
000000
000000
000000
000000
000000
000000
000000
000000
03f800
03f800
003800
00e000
01c000
03e000
07e000
00f000
007000
00e000
00e000
39e000
7f8000
3f0000
000000
ENDCHAR
STARTCHAR U+0293
ENCODING 659
SWIDTH 500 0
DWIDTH 12 0
BBX 19 24 -3 -2
BITMAP 
000000
000000
000000
000000
000000
000000
000000
000000
000000
03f800
03f800
003800
00e000
01c000
03e000
07e000
00f000
007000
1ee000
3f6000
3bc000
7fc000
3f4000
000000
ENDCHAR
STARTCHAR U+0294
ENCODING 660
SWIDTH 500 0
DWIDTH 12 0
BBX 19 24 -3 -2
BITMAP 
000000
000000
000000
000000
000000
007800
01f800
01dc00
001c00
003800
003800
003800
00f000
01e000
01c000
038000
038000
038000
070000
000000
000000
000000
000000
000000
ENDCHAR
STARTCHAR U+0295
ENCODING 661
SWIDTH 500 0
DWIDTH 12 0
BBX 19 24 -3 -2
BITMAP 
000000
000000
000000
000000
000000
003c00
00fc00
01dc00
01c000
038000
038000
038000
078000
03c000
01c000
038000
038000
038000
070000
000000
000000
000000
000000
000000
ENDCHAR
STARTCHAR U+0296
ENCODING 662
SWIDTH 500 0
DWIDTH 12 0
BBX 19 24 -3 -2
BITMAP 
000000
000000
000000
000000
000000
003800
007000
007000
007000
00e000
00f000
007800
007000
007000
007000
00e000
0ee000
0fc000
0f0000
000000
000000
000000
000000
000000
ENDCHAR
STARTCHAR U+0297
ENCODING 663
SWIDTH 500 0
DWIDTH 12 0
BBX 19 24 -3 -2
BITMAP 
000000
000000
000000
000000
000000
007c00
01fc00
03de00
038e00
070000
070000
070000
0e0000
0e0000
0e0000
1c7000
1ef000
0fe000
0f8000
000000
000000
000000
000000
000000
ENDCHAR
STARTCHAR U+0298
ENCODING 664
SWIDTH 500 0
DWIDTH 12 0
BBX 19 24 -3 -2
BITMAP 
000000
000000
000000
000000
000000
000000
000000
000000
000000
01f800
03fc00
079e00
0e1c00
0eec00
0eec00
1c3800
1e7800
0ff000
0fc000
000000
000000
000000
000000
000000
ENDCHAR
STARTCHAR U+0299
ENCODING 665
SWIDTH 500 0
DWIDTH 12 0
BBX 19 24 -3 -2
BITMAP 
000000
000000
000000
000000
000000
000000
000000
000000
000000
07f000
07f800
071c00
0e3800
0ff000
0ff800
1c7800
1c3800
1ff000
3fc000
000000
000000
000000
000000
000000
ENDCHAR
STARTCHAR U+029A
ENCODING 666
SWIDTH 500 0
DWIDTH 12 0
BBX 19 24 -3 -2
BITMAP 
000000
000000
000000
000000
000000
000000
000000
000000
000000
01f800
03fc00
070e00
0e1c00
07ec00
07ec00
1c3800
1c3800
0ff000
0fc000
000000
000000
000000
000000
000000
ENDCHAR
STARTCHAR U+029B
ENCODING 667
SWIDTH 500 0
DWIDTH 12 0
BBX 19 24 -3 -2
BITMAP 
000000
000000
000000
000000
000000
000000
000f00
001f00
001c00
03f800
07f800
0f0000
1c0000
1c0000
1cf800
39f000
3c7000
1ff000
1fc000
000000
000000
000000
000000
000000
ENDCHAR
STARTCHAR U+029C
ENCODING 668
SWIDTH 500 0
DWIDTH 12 0
BBX 19 24 -3 -2
BITMAP 
000000
000000
000000
000000
000000
000000
000000
000000
000000
070e00
070e00
070e00
0e1c00
0ffc00
0ffc00
1c3800
1c3800
1c3800
387000
000000
000000
000000
000000
000000
ENDCHAR
STARTCHAR U+029D
ENCODING 669
SWIDTH 500 0
DWIDTH 12 0
BBX 19 24 -3 -2
BITMAP 
000000
000000
000000
000000
000000
001c00
003800
000000
000000
007000
007000
007000
00e000
00e000
00e000
01c000
01c000
07f000
1fe000
3b8000
3b8000
3e0000
1c0000
000000
ENDCHAR
STARTCHAR U+029E
ENCODING 670
SWIDTH 500 0
DWIDTH 12 0
BBX 19 24 -3 -2
BITMAP 
000000
000000
000000
000000
000000
000000
000000
000000
038e00
079c00
03dc00
01ec00
01f800
00f800
01f800
07b000
0f7000
1e7000
38e000
00e000
00e000
000000
000000
000000
ENDCHAR
STARTCHAR U+029F
ENCODING 671
SWIDTH 500 0
DWIDTH 12 0
BBX 19 24 -3 -2
BITMAP 
000000
000000
000000
000000
000000
000000
000000
000000
000000
070000
070000
070000
0e0000
0e0000
0e0000
1c0000
1c0000
1ff800
3ff000
000000
000000
000000
000000
000000
ENDCHAR
STARTCHAR U+02A0
ENCODING 672
SWIDTH 500 0
DWIDTH 12 0
BBX 19 24 -3 -2
BITMAP 
000000
000000
000000
000000
000000
000000
000000
000700
000f00
03b800
07d800
0f7800
1cf000
1c7000
1c7000
39e000
3de000
1f6000
1dc000
01c000
01c000
038000
038000
000000
ENDCHAR
STARTCHAR U+02A1
ENCODING 673
SWIDTH 500 0
DWIDTH 12 0
BBX 19 24 -3 -2
BITMAP 
000000
000000
000000
000000
000000
007800
01f800
01dc00
001c00
003800
003800
003800
00f000
01e000
01c000
1ff000
1ff000
038000
070000
000000
000000
000000
000000
000000
ENDCHAR
STARTCHAR U+02A2
ENCODING 674
SWIDTH 500 0
DWIDTH 12 0
BBX 19 24 -3 -2
BITMAP 
000000
000000
000000
000000
000000
003c00
00fc00
01dc00
01c000
038000
038000
038000
078000
03c000
01c000
1ff000
1ff000
038000
070000
000000
000000
000000
000000
000000
ENDCHAR
STARTCHAR U+02A3
ENCODING 675
SWIDTH 500 0
DWIDTH 12 0
BBX 19 24 -3 -2
BITMAP 
000000
000000
000000
000000
000000
007000
00e000
00e000
00e000
07fe00
0ffe00
0ece00
1d9c00
1db800
1db800
3b6000
3b6000
3ff800
3bf000
000000
000000
000000
000000
000000
ENDCHAR
STARTCHAR U+02A4
ENCODING 676
SWIDTH 500 0
DWIDTH 12 0
BBX 19 24 -3 -2
BITMAP 
000000
000000
000000
000000
000000
007000
00e000
00e000
00e000
07fc00
0ffc00
0edc00
1db000
1de000
1df800
3b7800
3b3800
3fb800
3b7000
007000
00f000
1fc000
0f8000
000000
ENDCHAR
STARTCHAR U+02A5
ENCODING 677
SWIDTH 500 0
DWIDTH 12 0
BBX 19 24 -3 -2
BITMAP 
000000
000000
000000
000000
000000
007000
00e000
00e000
00e000
07fe00
0ffe00
0ece00
1db800
1db000
1df000
3bf800
3bd800
3ff800
3be000
038000
070000
000000
000000
000000
ENDCHAR
STARTCHAR U+02A6
ENCODING 678
SWIDTH 500 0
DWIDTH 12 0
BBX 19 24 -3 -2
BITMAP 
000000
000000
000000
000000
000000
000000
038000
038000
038000
0ffc00
0ffe00
076600
0ec000
0ef000
0e7000
1c3800
1c3800
1ff800
1fe000
000000
000000
000000
000000
000000
ENDCHAR
STARTCHAR U+02A7
ENCODING 679
SWIDTH 500 0
DWIDTH 12 0
BBX 19 24 -3 -2
BITMAP 
000000
000000
000000
000000
000380
000780
01dc00
01dc00
01dc00
0ff800
0ff800
03b800
077000
077000
077000
0ee000
0ee000
0fe000
0fc000
01c000
01c000
0f0000
0e0000
000000
ENDCHAR
STARTCHAR U+02A8
ENCODING 680
SWIDTH 500 0
DWIDTH 12 0
BBX 19 24 -3 -2
BITMAP 
000000
000000
000000
000000
000000
000000
038000
038000
038000
0fbc00
0ffe00
07a600
0ec000
0ec000
0ed800
1df800
1dd800
1ff800
1fe000
000000
000000
000000
000000
000000
ENDCHAR
STARTCHAR U+02B0
ENCODING 688
SWIDTH 500 0
DWIDTH 12 0
BBX 19 24 -3 -2
BITMAP 
007000
007000
007000
00ec00
00fe00
00f600
01dc00
01dc00
01dc00
03b800
000000
000000
000000
000000
000000
000000
000000
000000
000000
000000
000000
000000
000000
000000
ENDCHAR
STARTCHAR U+02B1
ENCODING 689
SWIDTH 500 0
DWIDTH 12 0
BBX 19 24 -3 -2
BITMAP 
003c00
007c00
007000
00ec00
00fe00
00f600
01dc00
01dc00
01dc00
03b800
000000
000000
000000
000000
000000
000000
000000
000000
000000
000000
000000
000000
000000
000000
ENDCHAR
STARTCHAR U+02B2
ENCODING 690
SWIDTH 500 0
DWIDTH 12 0
BBX 19 24 -3 -2
BITMAP 
000e00
000e00
000000
001c00
001c00
001c00
003800
003800
00f800
01e000
000000
000000
000000
000000
000000
000000
000000
000000
000000
000000
000000
000000
000000
000000
ENDCHAR
STARTCHAR U+02B3
ENCODING 691
SWIDTH 500 0
DWIDTH 12 0
BBX 19 24 -3 -2
BITMAP 
007600
007f00
007b00
00e000
00e000
00e000
01c000
01c000
000000
000000
000000
000000
000000
000000
000000
000000
000000
000000
000000
000000
000000
000000
000000
000000
ENDCHAR
STARTCHAR U+02B4
ENCODING 692
SWIDTH 500 0
DWIDTH 12 0
BBX 19 24 -3 -2
BITMAP 
000700
000700
000700
000e00
000e00
00ee00
01fc00
00ec00
000000
000000
000000
000000
000000
000000
000000
000000
000000
000000
000000
000000
000000
000000
000000
000000
ENDCHAR
STARTCHAR U+02B5
ENCODING 693
SWIDTH 500 0
DWIDTH 12 0
BBX 19 24 -3 -2
BITMAP 
000700
000700
000700
000e00
000e00
00ee00
01fc00
00ec00
001c00
003c00
001c00
000000
000000
000000
000000
000000
000000
000000
000000
000000
000000
000000
000000
000000
ENDCHAR
STARTCHAR U+02B6
ENCODING 694
SWIDTH 500 0
DWIDTH 12 0
BBX 19 24 -3 -2
BITMAP 
007380
007700
007700
00ec00
00fc00
00fc00
01dc00
01dc00
01fc00
03f000
000000
000000
000000
000000
000000
000000
000000
000000
000000
000000
000000
000000
000000
000000
ENDCHAR
STARTCHAR U+02B7
ENCODING 695
SWIDTH 500 0
DWIDTH 12 0
BBX 19 24 -3 -2
BITMAP 
00e700
00e700
00eb00
01d600
00fc00
00fc00
01d800
01d800
000000
000000
000000
000000
000000
000000
000000
000000
000000
000000
000000
000000
000000
000000
000000
000000
ENDCHAR
STARTCHAR U+02B8
ENCODING 696
SWIDTH 500 0
DWIDTH 12 0
BBX 19 24 -3 -2
BITMAP 
007700
007700
007700
00ee00
00ee00
00fe00
00ec00
001c00
01fc00
01f000
000000
000000
000000
000000
000000
000000
000000
000000
000000
000000
000000
000000
000000
000000
ENDCHAR
STARTCHAR U+02B9
ENCODING 697
SWIDTH 500 0
DWIDTH 12 0
BBX 19 24 -3 -2
BITMAP 
000000
000000
000e00
001c00
003c00
003800
00e000
00e000
01c000
030000
000000
000000
000000
000000
000000
000000
000000
000000
000000
000000
000000
000000
000000
000000
ENDCHAR
STARTCHAR U+02BA
ENCODING 698
SWIDTH 500 0
DWIDTH 12 0
BBX 19 24 -3 -2
BITMAP 
000000
000000
003b80
007700
00f700
00ee00
03b800
03b800
077000
0cc000
000000
000000
000000
000000
000000
000000
000000
000000
000000
000000
000000
000000
000000
000000
ENDCHAR
STARTCHAR U+02BB
ENCODING 699
SWIDTH 500 0
DWIDTH 12 0
BBX 19 24 -3 -2
BITMAP 
000000
000000
000000
000000
001c00
003800
00e000
00e000
00f800
01f000
00e000
000000
000000
000000
000000
000000
000000
000000
000000
000000
000000
000000
000000
000000
ENDCHAR
STARTCHAR U+02BC
ENCODING 700
SWIDTH 500 0
DWIDTH 12 0
BBX 19 24 -3 -2
BITMAP 
000000
000000
000000
000000
003800
007c00
00f800
003800
003800
00e000
01c000
000000
000000
000000
000000
000000
000000
000000
000000
000000
000000
000000
000000
000000
ENDCHAR
STARTCHAR U+02BD
ENCODING 701
SWIDTH 500 0
DWIDTH 12 0
BBX 19 24 -3 -2
BITMAP 
000000
000000
000000
000000
003800
007c00
00f800
00e000
00e000
00e000
007000
000000
000000
000000
000000
000000
000000
000000
000000
000000
000000
000000
000000
000000
ENDCHAR
STARTCHAR U+02BE
ENCODING 702
SWIDTH 500 0
DWIDTH 12 0
BBX 19 24 -3 -2
BITMAP 
000000
000000
000e00
000e00
000e00
001c00
000000
000000
000000
000000
000000
000000
000000
000000
000000
000000
000000
000000
000000
000000
000000
000000
000000
000000
ENDCHAR
STARTCHAR U+02BF
ENCODING 703
SWIDTH 500 0
DWIDTH 12 0
BBX 19 24 -3 -2
BITMAP 
000000
000000
003800
00e000
00e000
007000
000000
000000
000000
000000
000000
000000
000000
000000
000000
000000
000000
000000
000000
000000
000000
000000
000000
000000
ENDCHAR
STARTCHAR U+02C0
ENCODING 704
SWIDTH 500 0
DWIDTH 12 0
BBX 19 24 -3 -2
BITMAP 
000000
003e00
003b00
000e00
000e00
001e00
007000
007000
000000
000000
000000
000000
000000
000000
000000
000000
000000
000000
000000
000000
000000
000000
000000
000000
ENDCHAR
STARTCHAR U+02C1
ENCODING 705
SWIDTH 500 0
DWIDTH 12 0
BBX 19 24 -3 -2
BITMAP 
000000
001f00
003b00
007000
007000
007000
003800
003800
000000
000000
000000
000000
000000
000000
000000
000000
000000
000000
000000
000000
000000
000000
000000
000000
ENDCHAR
STARTCHAR U+02C2
ENCODING 706
SWIDTH 500 0
DWIDTH 12 0
BBX 19 24 -3 -2
BITMAP 
000380
000f80
003e00
01f000
01f000
007c00
003e00
000e00
000000
000000
000000
000000
000000
000000
000000
000000
000000
000000
000000
000000
000000
000000
000000
000000
ENDCHAR
STARTCHAR U+02C3
ENCODING 707
SWIDTH 500 0
DWIDTH 12 0
BBX 19 24 -3 -2
BITMAP 
00e000
00f800
003e00
001f00
001f00
007c00
03e000
038000
000000
000000
000000
000000
000000
000000
000000
000000
000000
000000
000000
000000
000000
000000
000000
000000
ENDCHAR
STARTCHAR U+02C4
ENCODING 708
SWIDTH 500 0
DWIDTH 12 0
BBX 19 24 -3 -2
BITMAP 
001c00
001c00
003e00
007c00
00ee00
00ee00
038e00
038e00
000000
000000
000000
000000
000000
000000
000000
000000
000000
000000
000000
000000
000000
000000
000000
000000
ENDCHAR
STARTCHAR U+02C5
ENCODING 709
SWIDTH 500 0
DWIDTH 12 0
BBX 19 24 -3 -2
BITMAP 
00e380
00e380
007700
00ee00
007c00
007c00
007000
007000
000000
000000
000000
000000
000000
000000
000000
000000
000000
000000
000000
000000
000000
000000
000000
000000
ENDCHAR
STARTCHAR U+02C6
ENCODING 710
SWIDTH 500 0
DWIDTH 12 0
BBX 19 24 -3 -2
BITMAP 
001e00
003f00
007380
000000
000000
000000
000000
000000
000000
000000
000000
000000
000000
000000
000000
000000
000000
000000
000000
000000
000000
000000
000000
000000
ENDCHAR
STARTCHAR U+02C7
ENCODING 711
SWIDTH 500 0
DWIDTH 12 0
BBX 19 24 -3 -2
BITMAP 
007700
003e00
001c00
000000
000000
000000
000000
000000
000000
000000
000000
000000
000000
000000
000000
000000
000000
000000
000000
000000
000000
000000
000000
000000
ENDCHAR
STARTCHAR U+02C8
ENCODING 712
SWIDTH 500 0
DWIDTH 12 0
BBX 19 24 -3 -2
BITMAP 
001c00
001c00
001c00
003800
000000
000000
000000
000000
000000
000000
000000
000000
000000
000000
000000
000000
000000
000000
000000
000000
000000
000000
000000
000000
ENDCHAR
STARTCHAR U+02C9
ENCODING 713
SWIDTH 500 0
DWIDTH 12 0
BBX 19 24 -3 -2
BITMAP 
000000
007f80
007f80
000000
000000
000000
000000
000000
000000
000000
000000
000000
000000
000000
000000
000000
000000
000000
000000
000000
000000
000000
000000
000000
ENDCHAR
STARTCHAR U+02CA
ENCODING 714
SWIDTH 500 0
DWIDTH 12 0
BBX 19 24 -3 -2
BITMAP 
000000
000e00
001e00
007000
000000
000000
000000
000000
000000
000000
000000
000000
000000
000000
000000
000000
000000
000000
000000
000000
000000
000000
000000
000000
ENDCHAR
STARTCHAR U+02CB
ENCODING 715
SWIDTH 500 0
DWIDTH 12 0
BBX 19 24 -3 -2
BITMAP 
000000
003800
003800
001c00
000000
000000
000000
000000
000000
000000
000000
000000
000000
000000
000000
000000
000000
000000
000000
000000
000000
000000
000000
000000
ENDCHAR
STARTCHAR U+02CC
ENCODING 716
SWIDTH 500 0
DWIDTH 12 0
BBX 19 24 -3 -2
BITMAP 
000000
000000
000000
000000
000000
000000
000000
000000
000000
000000
000000
000000
000000
000000
000000
000000
000000
000000
000000
070000
070000
0e0000
0e0000
000000
ENDCHAR
STARTCHAR U+02CD
ENCODING 717
SWIDTH 500 0
DWIDTH 12 0
BBX 19 24 -3 -2
BITMAP 
000000
000000
000000
000000
000000
000000
000000
000000
000000
000000
000000
000000
000000
000000
000000
000000
000000
000000
000000
000000
000000
3fc000
3fc000
000000
ENDCHAR
STARTCHAR U+02CE
ENCODING 718
SWIDTH 500 0
DWIDTH 12 0
BBX 19 24 -3 -2
BITMAP 
000000
000000
000000
000000
000000
000000
000000
000000
000000
000000
000000
000000
000000
000000
000000
000000
000000
000000
000000
000000
0e0000
1e0000
070000
000000
ENDCHAR
STARTCHAR U+02CF
ENCODING 719
SWIDTH 500 0
DWIDTH 12 0
BBX 19 24 -3 -2
BITMAP 
000000
000000
000000
000000
000000
000000
000000
000000
000000
000000
000000
000000
000000
000000
000000
000000
000000
000000
000000
000000
038000
0f0000
1c0000
000000
ENDCHAR
STARTCHAR U+02D0
ENCODING 720
SWIDTH 500 0
DWIDTH 12 0
BBX 19 24 -3 -2
BITMAP 
000000
000000
000000
000000
000000
000000
000000
000000
00fc00
00f000
00f000
006000
000000
000000
000000
018000
03c000
03c000
0fc000
000000
000000
000000
000000
000000
ENDCHAR
STARTCHAR U+02D1
ENCODING 721
SWIDTH 500 0
DWIDTH 12 0
BBX 19 24 -3 -2
BITMAP 
000000
000000
000000
000000
000000
000000
000000
000000
000000
000000
01f800
00f000
01e000
00c000
000000
000000
000000
000000
000000
000000
000000
000000
000000
000000
ENDCHAR
STARTCHAR U+02D2
ENCODING 722
SWIDTH 500 0
DWIDTH 12 0
BBX 19 24 -3 -2
BITMAP 
000000
000000
000000
000000
000000
000000
000000
000000
000000
000000
000000
007000
007000
007000
00e000
000000
000000
000000
000000
000000
000000
000000
000000
000000
ENDCHAR
STARTCHAR U+02D3
ENCODING 723
SWIDTH 500 0
DWIDTH 12 0
BBX 19 24 -3 -2
BITMAP 
000000
000000
000000
000000
000000
000000
000000
000000
000000
000000
000000
01c000
070000
070000
038000
000000
000000
000000
000000
000000
000000
000000
000000
000000
ENDCHAR
STARTCHAR U+02D4
ENCODING 724
SWIDTH 500 0
DWIDTH 12 0
BBX 19 24 -3 -2
BITMAP 
000000
000000
000000
000000
000000
000000
000000
000000
000000
000000
000000
00e000
01c000
07f000
07f000
000000
000000
000000
000000
000000
000000
000000
000000
000000
ENDCHAR
STARTCHAR U+02D5
ENCODING 725
SWIDTH 500 0
DWIDTH 12 0
BBX 19 24 -3 -2
BITMAP 
000000
000000
000000
000000
000000
000000
000000
000000
000000
000000
000000
000000
000000
07f000
07f000
038000
038000
000000
000000
000000
000000
000000
000000
000000
ENDCHAR
STARTCHAR U+02D6
ENCODING 726
SWIDTH 500 0
DWIDTH 12 0
BBX 19 24 -3 -2
BITMAP 
000000
000000
000000
000000
000000
000000
000000
000000
000000
000000
000000
00e000
01c000
07f000
07f000
038000
038000
000000
000000
000000
000000
000000
000000
000000
ENDCHAR
STARTCHAR U+02D7
ENCODING 727
SWIDTH 500 0
DWIDTH 12 0
BBX 19 24 -3 -2
BITMAP 
000000
000000
000000
000000
000000
000000
000000
000000
000000
000000
000000
000000
000000
07f000
07f000
000000
000000
000000
000000
000000
000000
000000
000000
000000
ENDCHAR
STARTCHAR U+02D8
ENCODING 728
SWIDTH 500 0
DWIDTH 12 0
BBX 19 24 -3 -2
BITMAP 
007380
007380
003f00
000000
000000
000000
000000
000000
000000
000000
000000
000000
000000
000000
000000
000000
000000
000000
000000
000000
000000
000000
000000
000000
ENDCHAR
STARTCHAR U+02D9
ENCODING 729
SWIDTH 500 0
DWIDTH 12 0
BBX 19 24 -3 -2
BITMAP 
000000
001c00
001c00
000000
000000
000000
000000
000000
000000
000000
000000
000000
000000
000000
000000
000000
000000
000000
000000
000000
000000
000000
000000
000000
ENDCHAR
STARTCHAR U+02DA
ENCODING 730
SWIDTH 500 0
DWIDTH 12 0
BBX 19 24 -3 -2
BITMAP 
001e00
003b00
003b00
003c00
000000
000000
000000
000000
000000
000000
000000
000000
000000
000000
000000
000000
000000
000000
000000
000000
000000
000000
000000
000000
ENDCHAR
STARTCHAR U+02DB
ENCODING 731
SWIDTH 500 0
DWIDTH 12 0
BBX 19 24 -3 -2
BITMAP 
000000
000000
000000
000000
000000
000000
000000
000000
000000
000000
000000
000000
000000
000000
000000
000000
000000
000000
000000
00f800
01e000
070000
07e000
03e000
ENDCHAR
STARTCHAR U+02DC
ENCODING 732
SWIDTH 500 0
DWIDTH 12 0
BBX 19 24 -3 -2
BITMAP 
007980
00ed80
00cf00
000000
000000
000000
000000
000000
000000
000000
000000
000000
000000
000000
000000
000000
000000
000000
000000
000000
000000
000000
000000
000000
ENDCHAR
STARTCHAR U+02DD
ENCODING 733
SWIDTH 500 0
DWIDTH 12 0
BBX 19 24 -3 -2
BITMAP 
0039c0
007bc0
00e700
000000
000000
000000
000000
000000
000000
000000
000000
000000
000000
000000
000000
000000
000000
000000
000000
000000
000000
000000
000000
000000
ENDCHAR
STARTCHAR U+0300
ENCODING 768
SWIDTH 500 0
DWIDTH 12 0
BBX 19 24 -3 -2
BITMAP 
000000
003800
003800
001c00
000000
000000
000000
000000
000000
000000
000000
000000
000000
000000
000000
000000
000000
000000
000000
000000
000000
000000
000000
000000
ENDCHAR
STARTCHAR U+0301
ENCODING 769
SWIDTH 500 0
DWIDTH 12 0
BBX 19 24 -3 -2
BITMAP 
000000
000e00
001e00
007000
000000
000000
000000
000000
000000
000000
000000
000000
000000
000000
000000
000000
000000
000000
000000
000000
000000
000000
000000
000000
ENDCHAR
STARTCHAR U+0302
ENCODING 770
SWIDTH 500 0
DWIDTH 12 0
BBX 19 24 -3 -2
BITMAP 
000000
000c00
001c00
007600
00e700
01c380
000000
000000
000000
000000
000000
000000
000000
000000
000000
000000
000000
000000
000000
000000
000000
000000
000000
000000
ENDCHAR
STARTCHAR U+0303
ENCODING 771
SWIDTH 500 0
DWIDTH 12 0
BBX 19 24 -3 -2
BITMAP 
000000
007980
00eb80
019e00
000000
000000
000000
000000
000000
000000
000000
000000
000000
000000
000000
000000
000000
000000
000000
000000
000000
000000
000000
000000
ENDCHAR
STARTCHAR U+0304
ENCODING 772
SWIDTH 500 0
DWIDTH 12 0
BBX 19 24 -3 -2
BITMAP 
000000
00ff80
00ff80
000000
000000
000000
000000
000000
000000
000000
000000
000000
000000
000000
000000
000000
000000
000000
000000
000000
000000
000000
000000
000000
ENDCHAR
STARTCHAR U+0305
ENCODING 773
SWIDTH 500 0
DWIDTH 12 0
BBX 19 24 -3 -2
BITMAP 
000000
03ffe0
03ffe0
000000
000000
000000
000000
000000
000000
000000
000000
000000
000000
000000
000000
000000
000000
000000
000000
000000
000000
000000
000000
000000
ENDCHAR
STARTCHAR U+0306
ENCODING 774
SWIDTH 500 0
DWIDTH 12 0
BBX 19 24 -3 -2
BITMAP 
000000
007380
007380
007e00
000000
000000
000000
000000
000000
000000
000000
000000
000000
000000
000000
000000
000000
000000
000000
000000
000000
000000
000000
000000
ENDCHAR
STARTCHAR U+0307
ENCODING 775
SWIDTH 500 0
DWIDTH 12 0
BBX 19 24 -3 -2
BITMAP 
000000
001c00
001c00
000000
000000
000000
000000
000000
000000
000000
000000
000000
000000
000000
000000
000000
000000
000000
000000
000000
000000
000000
000000
000000
ENDCHAR
STARTCHAR U+0308
ENCODING 776
SWIDTH 500 0
DWIDTH 12 0
BBX 19 24 -3 -2
BITMAP 
000000
007380
007380
000000
000000
000000
000000
000000
000000
000000
000000
000000
000000
000000
000000
000000
000000
000000
000000
000000
000000
000000
000000
000000
ENDCHAR
STARTCHAR U+0309
ENCODING 777
SWIDTH 500 0
DWIDTH 12 0
BBX 19 24 -3 -2
BITMAP 
000000
003c00
003600
001c00
003800
003800
000000
000000
000000
000000
000000
000000
000000
000000
000000
000000
000000
000000
000000
000000
000000
000000
000000
000000
ENDCHAR
STARTCHAR U+030A
ENCODING 778
SWIDTH 500 0
DWIDTH 12 0
BBX 19 24 -3 -2
BITMAP 
000000
001e00
003b00
007600
003c00
000000
000000
000000
000000
000000
000000
000000
000000
000000
000000
000000
000000
000000
000000
000000
000000
000000
000000
000000
ENDCHAR
STARTCHAR U+030B
ENCODING 779
SWIDTH 500 0
DWIDTH 12 0
BBX 19 24 -3 -2
BITMAP 
000000
0039c0
007bc0
01ce00
000000
000000
000000
000000
000000
000000
000000
000000
000000
000000
000000
000000
000000
000000
000000
000000
000000
000000
000000
000000
ENDCHAR
STARTCHAR U+030C
ENCODING 780
SWIDTH 500 0
DWIDTH 12 0
BBX 19 24 -3 -2
BITMAP 
000000
00e1c0
006380
007600
003c00
001800
000000
000000
000000
000000
000000
000000
000000
000000
000000
000000
000000
000000
000000
000000
000000
000000
000000
000000
ENDCHAR
STARTCHAR U+030D
ENCODING 781
SWIDTH 500 0
DWIDTH 12 0
BBX 19 24 -3 -2
BITMAP 
001800
001c00
001c00
003800
003800
001800
000000
000000
000000
000000
000000
000000
000000
000000
000000
000000
000000
000000
000000
000000
000000
000000
000000
000000
ENDCHAR
STARTCHAR U+030E
ENCODING 782
SWIDTH 500 0
DWIDTH 12 0
BBX 19 24 -3 -2
BITMAP 
006600
007700
007700
00ee00
00ee00
006600
000000
000000
000000
000000
000000
000000
000000
000000
000000
000000
000000
000000
000000
000000
000000
000000
000000
000000
ENDCHAR
STARTCHAR U+030F
ENCODING 783
SWIDTH 500 0
DWIDTH 12 0
BBX 19 24 -3 -2
BITMAP 
000000
00e700
00e780
007380
000000
000000
000000
000000
000000
000000
000000
000000
000000
000000
000000
000000
000000
000000
000000
000000
000000
000000
000000
000000
ENDCHAR
STARTCHAR U+0310
ENCODING 784
SWIDTH 500 0
DWIDTH 12 0
BBX 19 24 -3 -2
BITMAP 
000000
001c00
00dd80
01c700
00fe00
003800
000000
000000
000000
000000
000000
000000
000000
000000
000000
000000
000000
000000
000000
000000
000000
000000
000000
000000
ENDCHAR
STARTCHAR U+0311
ENCODING 785
SWIDTH 500 0
DWIDTH 12 0
BBX 19 24 -3 -2
BITMAP 
000000
003f00
007380
00e700
000000
000000
000000
000000
000000
000000
000000
000000
000000
000000
000000
000000
000000
000000
000000
000000
000000
000000
000000
000000
ENDCHAR
STARTCHAR U+0312
ENCODING 786
SWIDTH 500 0
DWIDTH 12 0
BBX 19 24 -3 -2
BITMAP 
000000
000000
000000
000000
001c00
003800
00e000
00e000
00f800
01f000
00e000
000000
000000
000000
000000
000000
000000
000000
000000
000000
000000
000000
000000
000000
ENDCHAR
STARTCHAR U+0313
ENCODING 787
SWIDTH 500 0
DWIDTH 12 0
BBX 19 24 -3 -2
BITMAP 
000000
000000
000000
007800
007800
001800
007000
00e000
000000
000000
000000
000000
000000
000000
000000
000000
000000
000000
000000
000000
000000
000000
000000
000000
ENDCHAR
STARTCHAR U+0314
ENCODING 788
SWIDTH 500 0
DWIDTH 12 0
BBX 19 24 -3 -2
BITMAP 
000000
000000
000000
007800
007800
006000
00e000
007000
000000
000000
000000
000000
000000
000000
000000
000000
000000
000000
000000
000000
000000
000000
000000
000000
ENDCHAR
STARTCHAR U+0315
ENCODING 789
SWIDTH 500 0
DWIDTH 12 0
BBX 19 24 -3 -2
BITMAP 
000000
000000
000000
000000
000380
0007c0
000f80
000380
000380
000e00
001c00
000000
000000
000000
000000
000000
000000
000000
000000
000000
000000
000000
000000
000000
ENDCHAR
STARTCHAR U+0316
ENCODING 790
SWIDTH 500 0
DWIDTH 12 0
BBX 19 24 -3 -2
BITMAP 
000000
000000
000000
000000
000000
000000
000000
000000
000000
000000
000000
000000
000000
000000
000000
000000
000000
000000
000000
000000
0e0000
1e0000
070000
000000
ENDCHAR
STARTCHAR U+0317
ENCODING 791
SWIDTH 500 0
DWIDTH 12 0
BBX 19 24 -3 -2
BITMAP 
000000
000000
000000
000000
000000
000000
000000
000000
000000
000000
000000
000000
000000
000000
000000
000000
000000
000000
000000
000000
038000
0f0000
1c0000
000000
ENDCHAR
STARTCHAR U+0318
ENCODING 792
SWIDTH 500 0
DWIDTH 12 0
BBX 19 24 -3 -2
BITMAP 
000000
000000
000000
000000
000000
000000
000000
000000
000000
000000
000000
000000
000000
000000
000000
000000
000000
00e000
01c000
1fc000
1fc000
038000
038000
000000
ENDCHAR
STARTCHAR U+0319
ENCODING 793
SWIDTH 500 0
DWIDTH 12 0
BBX 19 24 -3 -2
BITMAP 
000000
000000
000000
000000
000000
000000
000000
000000
000000
000000
000000
000000
000000
000000
000000
000000
000000
0e0000
1c0000
1fc000
1fc000
380000
380000
000000
ENDCHAR
STARTCHAR U+031A
ENCODING 794
SWIDTH 500 0
DWIDTH 12 0
BBX 19 24 -3 -2
BITMAP 
000000
00ff80
00ff80
000700
000700
000700
000000
000000
000000
000000
000000
000000
000000
000000
000000
000000
000000
000000
000000
000000
000000
000000
000000
000000
ENDCHAR
STARTCHAR U+031B
ENCODING 795
SWIDTH 500 0
DWIDTH 12 0
BBX 19 24 -3 -2
BITMAP 
000000
000000
000000
000380
000380
000f80
000e00
000000
000000
000000
000000
000000
000000
000000
000000
000000
000000
000000
000000
000000
000000
000000
000000
000000
ENDCHAR
STARTCHAR U+031C
ENCODING 796
SWIDTH 500 0
DWIDTH 12 0
BBX 19 24 -3 -2
BITMAP 
000000
000000
000000
000000
000000
000000
000000
000000
000000
000000
000000
000000
000000
000000
000000
000000
000000
000000
000000
0f0000
1c0000
380000
1e0000
000000
ENDCHAR
STARTCHAR U+031D
ENCODING 797
SWIDTH 500 0
DWIDTH 12 0
BBX 19 24 -3 -2
BITMAP 
000000
000000
000000
000000
000000
000000
000000
000000
000000
000000
000000
000000
000000
000000
000000
000000
000000
038000
070000
070000
070000
3f8000
3f8000
000000
ENDCHAR
STARTCHAR U+031E
ENCODING 798
SWIDTH 500 0
DWIDTH 12 0
BBX 19 24 -3 -2
BITMAP 
000000
000000
000000
000000
000000
000000
000000
000000
000000
000000
000000
000000
000000
000000
000000
000000
000000
0fe000
1fc000
070000
070000
0e0000
0e0000
000000
ENDCHAR
STARTCHAR U+031F
ENCODING 799
SWIDTH 500 0
DWIDTH 12 0
BBX 19 24 -3 -2
BITMAP 
000000
000000
000000
000000
000000
000000
000000
000000
000000
000000
000000
000000
000000
000000
000000
000000
000000
038000
070000
1fc000
1fc000
0e0000
0e0000
000000
ENDCHAR
STARTCHAR U+0320
ENCODING 800
SWIDTH 500 0
DWIDTH 12 0
BBX 19 24 -3 -2
BITMAP 
000000
000000
000000
000000
000000
000000
000000
000000
000000
000000
000000
000000
000000
000000
000000
000000
000000
000000
000000
000000
000000
3f8000
3f8000
000000
ENDCHAR
STARTCHAR U+0321
ENCODING 801
SWIDTH 500 0
DWIDTH 12 0
BBX 19 24 -3 -2
BITMAP 
000000
000000
000000
000000
000000
000000
000000
000000
000000
000000
000000
000000
000000
000000
000000
000000
003800
003800
007000
007000
03b000
03e000
01c000
000000
ENDCHAR
STARTCHAR U+0322
ENCODING 802
SWIDTH 500 0
DWIDTH 12 0
BBX 19 24 -3 -2
BITMAP 
000000
000000
000000
000000
000000
000000
000000
000000
000000
000000
000000
000000
000000
000000
000000
000000
00e000
00e000
01c000
01c000
01c000
03f000
01e000
000000
ENDCHAR
STARTCHAR U+0323
ENCODING 803
SWIDTH 500 0
DWIDTH 12 0
BBX 19 24 -3 -2
BITMAP 
000000
000000
000000
000000
000000
000000
000000
000000
000000
000000
000000
000000
000000
000000
000000
000000
000000
000000
000000
000000
000000
0e0000
0e0000
000000
ENDCHAR
STARTCHAR U+0324
ENCODING 804
SWIDTH 500 0
DWIDTH 12 0
BBX 19 24 -3 -2
BITMAP 
000000
000000
000000
000000
000000
000000
000000
000000
000000
000000
000000
000000
000000
000000
000000
000000
000000
000000
000000
000000
000000
39c000
39c000
000000
ENDCHAR
STARTCHAR U+0325
ENCODING 805
SWIDTH 500 0
DWIDTH 12 0
BBX 19 24 -3 -2
BITMAP 
000000
000000
000000
000000
000000
000000
000000
000000
000000
000000
000000
000000
000000
000000
000000
000000
000000
000000
000000
078000
0ec000
1d8000
0f0000
000000
ENDCHAR
STARTCHAR U+0326
ENCODING 806
SWIDTH 500 0
DWIDTH 12 0
BBX 19 24 -3 -2
BITMAP 
000000
000000
000000
000000
000000
000000
000000
000000
000000
000000
000000
000000
000000
000000
000000
000000
000000
000000
0f0000
0f0000
030000
0e0000
1c0000
000000
ENDCHAR
STARTCHAR U+0327
ENCODING 807
SWIDTH 500 0
DWIDTH 12 0
BBX 19 24 -3 -2
BITMAP 
000000
000000
000000
000000
000000
000000
000000
000000
000000
000000
000000
000000
000000
000000
000000
000000
000000
000000
070000
070000
070000
038000
1f8000
1f0000
ENDCHAR
STARTCHAR U+0328
ENCODING 808
SWIDTH 500 0
DWIDTH 12 0
BBX 19 24 -3 -2
BITMAP 
000000
000000
000000
000000
000000
000000
000000
000000
000000
000000
000000
000000
000000
000000
000000
000000
000000
000000
01c000
038000
038000
07e000
03c000
000000
ENDCHAR
STARTCHAR U+0329
ENCODING 809
SWIDTH 500 0
DWIDTH 12 0
BBX 19 24 -3 -2
BITMAP 
000000
000000
000000
000000
000000
000000
000000
000000
000000
000000
000000
000000
000000
000000
000000
000000
000000
000000
000000
070000
070000
0e0000
0e0000
000000
ENDCHAR
STARTCHAR U+032A
ENCODING 810
SWIDTH 500 0
DWIDTH 12 0
BBX 19 24 -3 -2
BITMAP 
000000
000000
000000
000000
000000
000000
000000
000000
000000
000000
000000
000000
000000
000000
000000
000000
000000
000000
000000
3fe000
3fe000
71c000
71c000
000000
ENDCHAR
STARTCHAR U+032B
ENCODING 811
SWIDTH 500 0
DWIDTH 12 0
BBX 19 24 -3 -2
BITMAP 
000000
000000
000000
000000
000000
000000
000000
000000
000000
000000
000000
000000
000000
000000
000000
000000
000000
000000
777000
777000
777000
7fc000
3b8000
000000
ENDCHAR
STARTCHAR U+032C
ENCODING 812
SWIDTH 500 0
DWIDTH 12 0
BBX 19 24 -3 -2
BITMAP 
000000
000000
000000
000000
000000
000000
000000
000000
000000
000000
000000
000000
000000
000000
000000
000000
000000
000000
387000
1ce000
0dc000
0f0000
060000
000000
ENDCHAR
STARTCHAR U+032D
ENCODING 813
SWIDTH 500 0
DWIDTH 12 0
BBX 19 24 -3 -2
BITMAP 
000000
000000
000000
000000
000000
000000
000000
000000
000000
000000
000000
000000
000000
000000
000000
000000
000000
000000
030000
078000
0e8000
39c000
70e000
000000
ENDCHAR
STARTCHAR U+032E
ENCODING 814
SWIDTH 500 0
DWIDTH 12 0
BBX 19 24 -3 -2
BITMAP 
000000
000000
000000
000000
000000
000000
000000
000000
000000
000000
000000
000000
000000
000000
000000
000000
000000
000000
000000
000000
1ce000
39c000
1f8000
000000
ENDCHAR
STARTCHAR U+032F
ENCODING 815
SWIDTH 500 0
DWIDTH 12 0
BBX 19 24 -3 -2
BITMAP 
000000
000000
000000
000000
000000
000000
000000
000000
000000
000000
000000
000000
000000
000000
000000
000000
000000
000000
000000
000000
0fc000
39c000
39c000
000000
ENDCHAR
STARTCHAR U+0330
ENCODING 816
SWIDTH 500 0
DWIDTH 12 0
BBX 19 24 -3 -2
BITMAP 
000000
000000
000000
000000
000000
000000
000000
000000
000000
000000
000000
000000
000000
000000
000000
000000
000000
000000
000000
000000
000000
3c6000
76e000
67c000
ENDCHAR
STARTCHAR U+0331
ENCODING 817
SWIDTH 500 0
DWIDTH 12 0
BBX 19 24 -3 -2
BITMAP 
000000
000000
000000
000000
000000
000000
000000
000000
000000
000000
000000
000000
000000
000000
000000
000000
000000
000000
000000
000000
000000
7fc000
7fc000
000000
ENDCHAR
STARTCHAR U+0332
ENCODING 818
SWIDTH 500 0
DWIDTH 12 0
BBX 19 24 -3 -2
BITMAP 
000000
000000
000000
000000
000000
000000
000000
000000
000000
000000
000000
000000
000000
000000
000000
000000
000000
000000
000000
000000
fff800
fff000
000000
000000
ENDCHAR
STARTCHAR U+0333
ENCODING 819
SWIDTH 500 0
DWIDTH 12 0
BBX 19 24 -3 -2
BITMAP 
000000
000000
000000
000000
000000
000000
000000
000000
000000
000000
000000
000000
000000
000000
000000
000000
000000
000000
3ff000
3ff000
000000
7fe000
7fe000
000000
ENDCHAR
STARTCHAR U+0334
ENCODING 820
SWIDTH 500 0
DWIDTH 12 0
BBX 19 24 -3 -2
BITMAP 
000000
000000
000000
000000
000000
000000
000000
000000
000000
000000
07c600
0ee600
19ec00
18f800
000000
000000
000000
000000
000000
000000
000000
000000
000000
000000
ENDCHAR
STARTCHAR U+0335
ENCODING 821
SWIDTH 500 0
DWIDTH 12 0
BBX 19 24 -3 -2
BITMAP 
000000
000000
000000
000000
000000
000000
000000
000000
000000
000000
000000
07fc00
0ff800
000000
000000
000000
000000
000000
000000
000000
000000
000000
000000
000000
ENDCHAR
STARTCHAR U+0336
ENCODING 822
SWIDTH 500 0
DWIDTH 12 0
BBX 19 24 -3 -2
BITMAP 
000000
000000
000000
000000
000000
000000
000000
000000
000000
000000
000000
1fff00
3ffe00
000000
000000
000000
000000
000000
000000
000000
000000
000000
000000
000000
ENDCHAR
STARTCHAR U+0337
ENCODING 823
SWIDTH 500 0
DWIDTH 12 0
BBX 19 24 -3 -2
BITMAP 
000000
000000
000000
000000
000000
000000
000000
000000
000600
001c00
003800
007000
01c000
038000
070000
0c0000
180000
000000
000000
000000
000000
000000
000000
000000
ENDCHAR
STARTCHAR U+0338
ENCODING 824
SWIDTH 500 0
DWIDTH 12 0
BBX 19 24 -3 -2
BITMAP 
000000
000000
000000
000000
000300
000300
000600
000c00
001c00
003000
007000
006000
00c000
018000
038000
060000
0e0000
0c0000
180000
300000
300000
000000
000000
000000
ENDCHAR
STARTCHAR U+0339
ENCODING 825
SWIDTH 500 0
DWIDTH 12 0
BBX 19 24 -3 -2
BITMAP 
000000
000000
000000
000000
000000
000000
000000
000000
000000
000000
000000
000000
000000
000000
000000
000000
000000
000000
000000
078000
01c000
038000
0f0000
000000
ENDCHAR
STARTCHAR U+033A
ENCODING 826
SWIDTH 500 0
DWIDTH 12 0
BBX 19 24 -3 -2
BITMAP 
000000
000000
000000
000000
000000
000000
000000
000000
000000
000000
000000
000000
000000
000000
000000
000000
000000
000000
000000
38e000
38e000
7fc000
7fc000
000000
ENDCHAR
STARTCHAR U+033B
ENCODING 827
SWIDTH 500 0
DWIDTH 12 0
BBX 19 24 -3 -2
BITMAP 
000000
000000
000000
000000
000000
000000
000000
000000
000000
000000
000000
000000
000000
000000
000000
000000
000000
000000
000000
0f8000
0d8000
1b0000
1f0000
000000
ENDCHAR
STARTCHAR U+033C
ENCODING 828
SWIDTH 500 0
DWIDTH 12 0
BBX 19 24 -3 -2
BITMAP 
000000
000000
000000
000000
000000
000000
000000
000000
000000
000000
000000
000000
000000
000000
000000
000000
000000
000000
000000
1dc000
7ff000
ce6000
0e0000
000000
ENDCHAR
STARTCHAR U+033D
ENCODING 829
SWIDTH 500 0
DWIDTH 12 0
BBX 19 24 -3 -2
BITMAP 
00c180
007700
003c00
00e600
018300
000000
000000
000000
000000
000000
000000
000000
000000
000000
000000
000000
000000
000000
000000
000000
000000
000000
000000
000000
ENDCHAR
STARTCHAR U+033E
ENCODING 830
SWIDTH 500 0
DWIDTH 12 0
BBX 19 24 -3 -2
BITMAP 
001c00
003800
003800
003800
003800
007000
000000
000000
000000
000000
000000
000000
000000
000000
000000
000000
000000
000000
000000
000000
000000
000000
000000
000000
ENDCHAR
STARTCHAR U+033F
ENCODING 831
SWIDTH 500 0
DWIDTH 12 0
BBX 19 24 -3 -2
BITMAP 
000000
01ffc0
01ffc0
000000
03ff80
03ff80
000000
000000
000000
000000
000000
000000
000000
000000
000000
000000
000000
000000
000000
000000
000000
000000
000000
000000
ENDCHAR
STARTCHAR U+0340
ENCODING 832
SWIDTH 500 0
DWIDTH 12 0
BBX 19 24 -3 -2
BITMAP 
000000
003800
003800
001c00
000000
000000
000000
000000
000000
000000
000000
000000
000000
000000
000000
000000
000000
000000
000000
000000
000000
000000
000000
000000
ENDCHAR
STARTCHAR U+0341
ENCODING 833
SWIDTH 500 0
DWIDTH 12 0
BBX 19 24 -3 -2
BITMAP 
000000
000e00
001e00
007000
000000
000000
000000
000000
000000
000000
000000
000000
000000
000000
000000
000000
000000
000000
000000
000000
000000
000000
000000
000000
ENDCHAR
STARTCHAR U+0342
ENCODING 834
SWIDTH 500 0
DWIDTH 12 0
BBX 19 24 -3 -2
BITMAP 
007b00
006f00
000000
000000
000000
000000
000000
000000
000000
000000
000000
000000
000000
000000
000000
000000
000000
000000
000000
000000
000000
000000
000000
000000
ENDCHAR
STARTCHAR U+0343
ENCODING 835
SWIDTH 500 0
DWIDTH 12 0
BBX 19 24 -3 -2
BITMAP 
000000
000000
000000
007800
007800
001800
007000
00e000
000000
000000
000000
000000
000000
000000
000000
000000
000000
000000
000000
000000
000000
000000
000000
000000
ENDCHAR
STARTCHAR U+0344
ENCODING 836
SWIDTH 500 0
DWIDTH 12 0
BBX 19 24 -3 -2
BITMAP 
000000
001800
00db00
03d700
01b600
003000
000000
000000
000000
000000
000000
000000
000000
000000
000000
000000
000000
000000
000000
000000
000000
000000
000000
000000
ENDCHAR
STARTCHAR U+0345
ENCODING 837
SWIDTH 500 0
DWIDTH 12 0
BBX 19 24 -3 -2
BITMAP 
000000
000000
000000
000000
000000
000000
000000
000000
000000
000000
000000
000000
000000
000000
000000
000000
000000
000000
000000
000000
0e0000
1c0000
1c0000
0f0000
ENDCHAR
STARTCHAR U+0346
ENCODING 838
SWIDTH 500 0
DWIDTH 12 0
BBX 19 24 -3 -2
BITMAP 
000000
007f00
007f00
00ee00
00ee00
000000
000000
000000
000000
000000
000000
000000
000000
000000
000000
000000
000000
000000
000000
000000
000000
000000
000000
000000
ENDCHAR
STARTCHAR U+0347
ENCODING 839
SWIDTH 500 0
DWIDTH 12 0
BBX 19 24 -3 -2
BITMAP 
000000
000000
000000
000000
000000
000000
000000
000000
000000
000000
000000
000000
000000
000000
000000
000000
000000
000000
1fc000
1fc000
000000
3f8000
3f8000
000000
ENDCHAR
STARTCHAR U+0348
ENCODING 840
SWIDTH 500 0
DWIDTH 12 0
BBX 19 24 -3 -2
BITMAP 
000000
000000
000000
000000
000000
000000
000000
000000
000000
000000
000000
000000
000000
000000
000000
000000
000000
000000
1dc000
1dc000
1dc000
3b8000
3b8000
000000
ENDCHAR
STARTCHAR U+0349
ENCODING 841
SWIDTH 500 0
DWIDTH 12 0
BBX 19 24 -3 -2
BITMAP 
000000
000000
000000
000000
000000
000000
000000
000000
000000
000000
000000
000000
000000
000000
000000
000000
000000
000000
000000
1fc000
1fc000
038000
038000
000000
ENDCHAR
STARTCHAR U+034A
ENCODING 842
SWIDTH 500 0
DWIDTH 12 0
BBX 19 24 -3 -2
BITMAP 
000000
000600
007d80
00db00
01be00
006000
000000
000000
000000
000000
000000
000000
000000
000000
000000
000000
000000
000000
000000
000000
000000
000000
000000
000000
ENDCHAR
STARTCHAR U+034B
ENCODING 843
SWIDTH 500 0
DWIDTH 12 0
BBX 19 24 -3 -2
BITMAP 
000e00
000e00
00f8c0
01bb80
031f00
007000
00e000
000000
000000
000000
000000
000000
000000
000000
000000
000000
000000
000000
000000
000000
000000
000000
000000
000000
ENDCHAR
STARTCHAR U+034C
ENCODING 844
SWIDTH 500 0
DWIDTH 12 0
BBX 19 24 -3 -2
BITMAP 
000000
007800
00dd80
00f600
019b00
000e00
000000
000000
000000
000000
000000
000000
000000
000000
000000
000000
000000
000000
000000
000000
000000
000000
000000
000000
ENDCHAR
STARTCHAR U+034D
ENCODING 845
SWIDTH 500 0
DWIDTH 12 0
BBX 19 24 -3 -2
BITMAP 
000000
000000
000000
000000
000000
000000
000000
000000
000000
000000
000000
000000
000000
000000
000000
000000
000000
1c6000
306000
7ff000
7ff000
60c000
318000
000000
ENDCHAR
STARTCHAR U+034E
ENCODING 846
SWIDTH 500 0
DWIDTH 12 0
BBX 19 24 -3 -2
BITMAP 
000000
000000
000000
000000
000000
000000
000000
000000
000000
000000
000000
000000
000000
000000
000000
000000
000000
038000
0f8000
1fc000
1b4000
0e0000
0e0000
000000
ENDCHAR
STARTCHAR U+0374
ENCODING 884
SWIDTH 500 0
DWIDTH 12 0
BBX 19 24 -3 -2
BITMAP 
000000
000000
000000
000000
000000
003c00
007800
00f000
00e000
018000
030000
000000
000000
000000
000000
000000
000000
000000
000000
000000
000000
000000
000000
000000
ENDCHAR
STARTCHAR U+0375
ENCODING 885
SWIDTH 500 0
DWIDTH 12 0
BBX 19 24 -3 -2
BITMAP 
000000
000000
000000
000000
000000
000000
000000
000000
000000
000000
000000
000000
000000
000000
000000
000000
000000
03c000
078000
0f0000
0e0000
180000
300000
000000
ENDCHAR
STARTCHAR U+037A
ENCODING 890
SWIDTH 500 0
DWIDTH 12 0
BBX 19 24 -3 -2
BITMAP 
000000
000000
000000
000000
000000
000000
000000
000000
000000
000000
000000
000000
000000
000000
000000
000000
000000
000000
000000
000000
0e0000
1c0000
1c0000
0f0000
ENDCHAR
STARTCHAR U+037E
ENCODING 894
SWIDTH 500 0
DWIDTH 12 0
BBX 19 24 -3 -2
BITMAP 
000000
000000
000000
000000
000000
000000
000000
000000
000000
000000
000000
00e000
01c000
000000
000000
000000
000000
000000
0e0000
0f0000
070000
060000
0e0000
0c0000
ENDCHAR
STARTCHAR U+0384
ENCODING 900
SWIDTH 500 0
DWIDTH 12 0
BBX 19 24 -3 -2
BITMAP 
001c00
001c00
001c00
003800
000000
000000
000000
000000
000000
000000
000000
000000
000000
000000
000000
000000
000000
000000
000000
000000
000000
000000
000000
000000
ENDCHAR
STARTCHAR U+0385
ENCODING 901
SWIDTH 500 0
DWIDTH 12 0
BBX 19 24 -3 -2
BITMAP 
001c00
001c00
001c00
003800
000000
000000
01dc00
01dc00
000000
000000
000000
000000
000000
000000
000000
000000
000000
000000
000000
000000
000000
000000
000000
000000
ENDCHAR
STARTCHAR U+0386
ENCODING 902
SWIDTH 500 0
DWIDTH 12 0
BBX 19 24 -3 -2
BITMAP 
01c000
01c000
01c000
038000
000000
003c00
007800
007800
00ec00
01d800
01d800
039c00
073800
07f800
07f800
1c3800
1c3800
1c3800
387000
000000
000000
000000
000000
000000
ENDCHAR
STARTCHAR U+0387
ENCODING 903
SWIDTH 500 0
DWIDTH 12 0
BBX 19 24 -3 -2
BITMAP 
000000
000000
000000
000000
000000
000000
000000
000000
000000
000000
000000
00c000
03c000
018000
000000
000000
000000
000000
000000
000000
000000
000000
000000
000000
ENDCHAR
STARTCHAR U+0388
ENCODING 904
SWIDTH 500 0
DWIDTH 12 0
BBX 19 24 -3 -2
BITMAP 
01c000
01c000
01c000
038000
000000
01ff80
03ff00
038000
038000
070000
070000
07f800
0ff000
0e0000
0e0000
1c0000
1c0000
1ff800
3ff000
000000
000000
000000
000000
000000
ENDCHAR
STARTCHAR U+0389
ENCODING 905
SWIDTH 500 0
DWIDTH 12 0
BBX 19 24 -3 -2
BITMAP 
01c000
01c000
01c000
038000
000000
01c380
038700
038700
038700
070e00
070e00
07fe00
0ffc00
0e1c00
0e1c00
1c3800
1c3800
1c3800
387000
000000
000000
000000
000000
000000
ENDCHAR
STARTCHAR U+038A
ENCODING 906
SWIDTH 500 0
DWIDTH 12 0
BBX 19 24 -3 -2
BITMAP 
01c000
01c000
01c000
038000
000000
00fe00
01fc00
007000
007000
00e000
00e000
00e000
01c000
01c000
01c000
038000
038000
0fe000
1fc000
000000
000000
000000
000000
000000
ENDCHAR
STARTCHAR U+038C
ENCODING 908
SWIDTH 500 0
DWIDTH 12 0
BBX 19 24 -3 -2
BITMAP 
01c000
01c000
01c000
038000
000000
007e00
01fe00
03cf00
038700
070e00
070e00
070e00
0e1c00
0e1c00
0e1c00
1c3800
1e7800
0ff000
0fc000
000000
000000
000000
000000
000000
ENDCHAR
STARTCHAR U+038E
ENCODING 910
SWIDTH 500 0
DWIDTH 12 0
BBX 19 24 -3 -2
BITMAP 
01c000
01c000
01c000
038000
000000
038380
070700
038e00
038e00
03b800
03f800
01f000
01c000
01c000
01c000
038000
038000
038000
070000
000000
000000
000000
000000
000000
ENDCHAR
STARTCHAR U+038F
ENCODING 911
SWIDTH 500 0
DWIDTH 12 0
BBX 19 24 -3 -2
BITMAP 
01c000
01c000
01c000
038000
000000
007e00
01fe00
03cf00
038700
070e00
070e00
070e00
0e1c00
0e1c00
0f3c00
0e7000
076000
076000
3ef000
3ef000
000000
000000
000000
000000
ENDCHAR
STARTCHAR U+0390
ENCODING 912
SWIDTH 500 0
DWIDTH 12 0
BBX 19 24 -3 -2
BITMAP 
001c00
001c00
001c00
003800
000000
000000
01dc00
01dc00
000000
00e000
00e000
00e000
01c000
01c000
01c000
038000
038000
03e000
03c000
000000
000000
000000
000000
000000
ENDCHAR
STARTCHAR U+0391
ENCODING 913
SWIDTH 500 0
DWIDTH 12 0
BBX 19 24 -3 -2
BITMAP 
000000
000000
000000
000000
000000
003c00
007800
007800
00ec00
01d800
01d800
039c00
073800
07f800
07f800
1c3800
1c3800
1c3800
387000
000000
000000
000000
000000
000000
ENDCHAR
STARTCHAR U+0392
ENCODING 914
SWIDTH 500 0
DWIDTH 12 0
BBX 19 24 -3 -2
BITMAP 
000000
000000
000000
000000
000000
01fc00
03fc00
039e00
038e00
071c00
073800
07f800
0ff800
0e3800
0e1c00
1c3800
1c7800
1ff000
3fc000
000000
000000
000000
000000
000000
ENDCHAR
STARTCHAR U+0393
ENCODING 915
SWIDTH 500 0
DWIDTH 12 0
BBX 19 24 -3 -2
BITMAP 
000000
000000
000000
000000
000000
01ff80
03ff00
038000
038000
070000
070000
070000
0e0000
0e0000
0e0000
1c0000
1c0000
1c0000
380000
000000
000000
000000
000000
000000
ENDCHAR
STARTCHAR U+0394
ENCODING 916
SWIDTH 500 0
DWIDTH 12 0
BBX 19 24 -3 -2
BITMAP 
000000
000000
000000
000000
000000
003c00
007800
007800
00ec00
01d800
01d800
039c00
073800
073800
0e1c00
1c3800
1c3800
1ff800
3ff000
000000
000000
000000
000000
000000
ENDCHAR
STARTCHAR U+0395
ENCODING 917
SWIDTH 500 0
DWIDTH 12 0
BBX 19 24 -3 -2
BITMAP 
000000
000000
000000
000000
000000
01ff80
03ff00
038000
038000
070000
070000
07f800
0ff000
0e0000
0e0000
1c0000
1c0000
1ff800
3ff000
000000
000000
000000
000000
000000
ENDCHAR
STARTCHAR U+0396
ENCODING 918
SWIDTH 500 0
DWIDTH 12 0
BBX 19 24 -3 -2
BITMAP 
000000
000000
000000
000000
000000
03ff80
07ff00
000700
000f00
003c00
007800
00f000
03c000
078000
0f0000
3c0000
380000
3ff800
7ff000
000000
000000
000000
000000
000000
ENDCHAR
STARTCHAR U+0397
ENCODING 919
SWIDTH 500 0
DWIDTH 12 0
BBX 19 24 -3 -2
BITMAP 
000000
000000
000000
000000
000000
01c380
038700
038700
038700
070e00
070e00
07fe00
0ffc00
0e1c00
0e1c00
1c3800
1c3800
1c3800
387000
000000
000000
000000
000000
000000
ENDCHAR
STARTCHAR U+0398
ENCODING 920
SWIDTH 500 0
DWIDTH 12 0
BBX 19 24 -3 -2
BITMAP 
000000
000000
000000
000000
000000
007e00
01fe00
03cf00
038700
070e00
070e00
077600
0eec00
0e1c00
0e1c00
1c3800
1e7800
0ff000
0fc000
000000
000000
000000
000000
000000
ENDCHAR
STARTCHAR U+0399
ENCODING 921
SWIDTH 500 0
DWIDTH 12 0
BBX 19 24 -3 -2
BITMAP 
000000
000000
000000
000000
000000
00fe00
01fc00
007000
007000
00e000
00e000
00e000
01c000
01c000
01c000
038000
038000
0fe000
1fc000
000000
000000
000000
000000
000000
ENDCHAR
STARTCHAR U+039A
ENCODING 922
SWIDTH 500 0
DWIDTH 12 0
BBX 19 24 -3 -2
BITMAP 
000000
000000
000000
000000
000000
01c380
038e00
039c00
03b800
076000
07c000
078000
0f8000
0ec000
0ec000
1ce000
1c7000
1c3000
383000
000000
000000
000000
000000
000000
ENDCHAR
STARTCHAR U+039B
ENCODING 923
SWIDTH 500 0
DWIDTH 12 0
BBX 19 24 -3 -2
BITMAP 
000000
000000
000000
000000
000000
003c00
007800
007800
00ec00
01d800
01d800
039c00
073800
073800
073800
1c3800
1c3800
1c3800
387000
000000
000000
000000
000000
000000
ENDCHAR
STARTCHAR U+039C
ENCODING 924
SWIDTH 500 0
DWIDTH 12 0
BBX 19 24 -3 -2
BITMAP 
000000
000000
000000
000000
000000
01c380
03cf00
03cf00
03ef00
07fe00
077600
077600
0edc00
0e1c00
0e1c00
1c3800
1c3800
1c3800
387000
000000
000000
000000
000000
000000
ENDCHAR
STARTCHAR U+039D
ENCODING 925
SWIDTH 500 0
DWIDTH 12 0
BBX 19 24 -3 -2
BITMAP 
000000
000000
000000
000000
000000
01c380
03c700
03c700
03e700
07ce00
076e00
076e00
0eec00
0eec00
0e7c00
1cf800
1c7800
1c7800
387000
000000
000000
000000
000000
000000
ENDCHAR
STARTCHAR U+039E
ENCODING 926
SWIDTH 500 0
DWIDTH 12 0
BBX 19 24 -3 -2
BITMAP 
000000
000000
000000
000000
000000
01ff80
03ff00
000000
000000
000000
000000
03fc00
07f800
000000
000000
000000
000000
1ff800
3ff000
000000
000000
000000
000000
000000
ENDCHAR
STARTCHAR U+039F
ENCODING 927
SWIDTH 500 0
DWIDTH 12 0
BBX 19 24 -3 -2
BITMAP 
000000
000000
000000
000000
000000
007e00
01fe00
03c700
038700
070e00
070e00
070e00
0e1c00
0e1c00
0e1c00
1c3800
1e7800
0ff000
0fc000
000000
000000
000000
000000
000000
ENDCHAR
STARTCHAR U+03A0
ENCODING 928
SWIDTH 500 0
DWIDTH 12 0
BBX 19 24 -3 -2
BITMAP 
000000
000000
000000
000000
000000
03ff80
07ff00
038e00
038e00
071c00
071c00
071c00
0e3800
0e3800
0e3800
1c7000
1c7000
1c7000
38e000
000000
000000
000000
000000
000000
ENDCHAR
STARTCHAR U+03A1
ENCODING 929
SWIDTH 500 0
DWIDTH 12 0
BBX 19 24 -3 -2
BITMAP 
000000
000000
000000
000000
000000
01fe00
03fe00
038f00
038700
070e00
071e00
07fc00
0ff000
0e0000
0e0000
1c0000
1c0000
1c0000
380000
000000
000000
000000
000000
000000
ENDCHAR
STARTCHAR U+03A3
ENCODING 931
SWIDTH 500 0
DWIDTH 12 0
BBX 19 24 -3 -2
BITMAP 
000000
000000
000000
000000
000000
01ff80
03ff00
03c000
01e000
01e000
00f000
007800
00f000
01e000
03c000
0f0000
1e0000
1ff800
3ff000
000000
000000
000000
000000
000000
ENDCHAR
STARTCHAR U+03A4
ENCODING 932
SWIDTH 500 0
DWIDTH 12 0
BBX 19 24 -3 -2
BITMAP 
000000
000000
000000
000000
000000
03ff80
07ff00
007000
007000
00e000
00e000
00e000
01c000
01c000
01c000
038000
038000
038000
070000
000000
000000
000000
000000
000000
ENDCHAR
STARTCHAR U+03A5
ENCODING 933
SWIDTH 500 0
DWIDTH 12 0
BBX 19 24 -3 -2
BITMAP 
000000
000000
000000
000000
000000
038380
070700
038e00
038e00
03b800
03f800
01f000
01c000
01c000
01c000
038000
038000
038000
070000
000000
000000
000000
000000
000000
ENDCHAR
STARTCHAR U+03A6
ENCODING 934
SWIDTH 500 0
DWIDTH 12 0
BBX 19 24 -3 -2
BITMAP 
000000
000000
000000
000000
000000
003800
007000
01fc00
03fc00
0eee00
0eee00
0eee00
1ddc00
1ddc00
1ddc00
1ff000
0fe000
038000
070000
000000
000000
000000
000000
000000
ENDCHAR
STARTCHAR U+03A7
ENCODING 935
SWIDTH 500 0
DWIDTH 12 0
BBX 19 24 -3 -2
BITMAP 
000000
000000
000000
000000
000000
01c380
038700
01ce00
01ce00
01d800
01d800
00f000
01e000
03b000
03b000
0e7000
0e7000
1c3800
387000
000000
000000
000000
000000
000000
ENDCHAR
STARTCHAR U+03A8
ENCODING 936
SWIDTH 500 0
DWIDTH 12 0
BBX 19 24 -3 -2
BITMAP 
000000
000000
000000
000000
000000
03bb80
077700
077700
077700
0eee00
0eee00
0f6e00
0ff800
07f000
01c000
038000
038000
038000
070000
000000
000000
000000
000000
000000
ENDCHAR
STARTCHAR U+03A9
ENCODING 937
SWIDTH 500 0
DWIDTH 12 0
BBX 19 24 -3 -2
BITMAP 
000000
000000
000000
000000
000000
007e00
01fe00
03cf00
038700
070e00
070e00
070e00
0e1c00
0f3c00
073800
076000
076000
1f7800
3ef000
000000
000000
000000
000000
000000
ENDCHAR
STARTCHAR U+03AA
ENCODING 938
SWIDTH 500 0
DWIDTH 12 0
BBX 19 24 -3 -2
BITMAP 
000000
007700
007700
000000
000000
00fe00
01fc00
007000
007000
00e000
00e000
00e000
01c000
01c000
01c000
038000
038000
0fe000
1fc000
000000
000000
000000
000000
000000
ENDCHAR
STARTCHAR U+03AB
ENCODING 939
SWIDTH 500 0
DWIDTH 12 0
BBX 19 24 -3 -2
BITMAP 
000000
007700
007700
000000
000000
038380
070700
038e00
038e00
03b800
03f800
01f000
01c000
01c000
01c000
038000
038000
038000
070000
000000
000000
000000
000000
000000
ENDCHAR
STARTCHAR U+03AC
ENCODING 940
SWIDTH 500 0
DWIDTH 12 0
BBX 19 24 -3 -2
BITMAP 
000000
000000
000000
003800
003800
003800
007000
000000
000000
03ce00
07ee00
0e6c00
1c7800
1c7000
1c7000
38f000
39d000
1fb800
1e7000
000000
000000
000000
000000
000000
ENDCHAR
STARTCHAR U+03AD
ENCODING 941
SWIDTH 500 0
DWIDTH 12 0
BBX 19 24 -3 -2
BITMAP 
000000
000000
000000
003800
003800
003800
007000
000000
000000
01f800
03fc00
070000
0e0000
0ff000
0ff000
1c0000
1c0000
0ff000
0fc000
000000
000000
000000
000000
000000
ENDCHAR
STARTCHAR U+03AE
ENCODING 942
SWIDTH 500 0
DWIDTH 12 0
BBX 19 24 -3 -2
BITMAP 
000000
000000
000000
003800
003800
003800
007000
000000
000000
077800
077c00
07ce00
0f1c00
0e1c00
0e1c00
1c3800
1c3800
1c3800
387000
007000
007000
00e000
00e000
00e000
ENDCHAR
STARTCHAR U+03AF
ENCODING 943
SWIDTH 500 0
DWIDTH 12 0
BBX 19 24 -3 -2
BITMAP 
000000
000000
000000
003800
003800
003800
007000
000000
000000
00e000
00e000
00e000
01c000
01c000
01c000
038000
038000
03e000
03c000
000000
000000
000000
000000
000000
ENDCHAR
STARTCHAR U+03B0
ENCODING 944
SWIDTH 500 0
DWIDTH 12 0
BBX 19 24 -3 -2
BITMAP 
001c00
001c00
001c00
003800
000000
00e700
01ce00
000000
000000
070e00
070e00
070e00
0e1c00
0e1c00
0e1c00
1c3800
1e7800
0ff000
0fc000
000000
000000
000000
000000
000000
ENDCHAR
STARTCHAR U+03B1
ENCODING 945
SWIDTH 500 0
DWIDTH 12 0
BBX 19 24 -3 -2
BITMAP 
000000
000000
000000
000000
000000
000000
000000
000000
000000
03ce00
07ee00
0e6c00
1c7800
1c7000
1c7000
38f000
39d000
1fb800
1e7000
000000
000000
000000
000000
000000
ENDCHAR
STARTCHAR U+03B2
ENCODING 946
SWIDTH 500 0
DWIDTH 12 0
BBX 19 24 -3 -2
BITMAP 
000000
000000
000000
000000
000000
007800
01fc00
03de00
038e00
071c00
071c00
07f800
0ff800
0e1c00
0e1c00
1c3800
1c7800
1ff000
3fc000
380000
380000
700000
700000
000000
ENDCHAR
STARTCHAR U+03B3
ENCODING 947
SWIDTH 500 0
DWIDTH 12 0
BBX 19 24 -3 -2
BITMAP 
000000
000000
000000
000000
000000
000000
000000
000000
000000
03ce00
07ce00
076c00
01d800
00f000
00f000
01c000
01c000
038000
070000
0e0000
0e0000
000000
000000
000000
ENDCHAR
STARTCHAR U+03B4
ENCODING 948
SWIDTH 500 0
DWIDTH 12 0
BBX 19 24 -3 -2
BITMAP 
000000
000000
000000
000000
000000
007e00
01fc00
01c000
01c000
01c000
01f800
03fc00
0f3c00
0e1c00
0e1c00
1c3800
1e7800
0ff000
0fc000
000000
000000
000000
000000
000000
ENDCHAR
STARTCHAR U+03B5
ENCODING 949
SWIDTH 500 0
DWIDTH 12 0
BBX 19 24 -3 -2
BITMAP 
000000
000000
000000
000000
000000
000000
000000
000000
000000
01f800
03fc00
078000
0e0000
0ff000
0ff000
1c0000
1e0000
0ff000
0fc000
000000
000000
000000
000000
000000
ENDCHAR
STARTCHAR U+03B6
ENCODING 950
SWIDTH 500 0
DWIDTH 12 0
BBX 19 24 -3 -2
BITMAP 
000000
000000
000000
000000
000000
00fe00
01fc00
007800
007000
01e000
01c000
03c000
070000
070000
0e0000
1c0000
1c0000
1fe000
1fe000
007000
007000
00e000
0fc000
0f8000
ENDCHAR
STARTCHAR U+03B7
ENCODING 951
SWIDTH 500 0
DWIDTH 12 0
BBX 19 24 -3 -2
BITMAP 
000000
000000
000000
000000
000000
000000
000000
000000
000000
077800
077c00
07ce00
0f1c00
0e1c00
0e1c00
1c3800
1c3800
1c3800
387000
007000
007000
00e000
00e000
00e000
ENDCHAR
STARTCHAR U+03B8
ENCODING 952
SWIDTH 500 0
DWIDTH 12 0
BBX 19 24 -3 -2
BITMAP 
000000
000000
000000
000000
000000
007c00
01fc00
01dc00
038e00
071c00
071c00
07fc00
0ff800
0e3800
0e3800
1c7000
0ee000
0fe000
0f8000
000000
000000
000000
000000
000000
ENDCHAR
STARTCHAR U+03B9
ENCODING 953
SWIDTH 500 0
DWIDTH 12 0
BBX 19 24 -3 -2
BITMAP 
000000
000000
000000
000000
000000
000000
000000
000000
000000
00e000
00e000
00e000
01c000
01c000
01c000
038000
038000
03e000
03c000
000000
000000
000000
000000
000000
ENDCHAR
STARTCHAR U+03BA
ENCODING 954
SWIDTH 500 0
DWIDTH 12 0
BBX 19 24 -3 -2
BITMAP 
000000
000000
000000
000000
000000
000000
000000
000000
000000
071c00
073c00
077800
0ee000
0fc000
0fc000
1dc000
1de000
1cf000
38e000
000000
000000
000000
000000
000000
ENDCHAR
STARTCHAR U+03BB
ENCODING 955
SWIDTH 500 0
DWIDTH 12 0
BBX 19 24 -3 -2
BITMAP 
000000
000000
000000
000000
000000
00f000
01e000
007000
007000
007000
007000
00f800
01f000
03b000
03b800
0e7000
0e7000
1c3800
387000
000000
000000
000000
000000
000000
ENDCHAR
STARTCHAR U+03BC
ENCODING 956
SWIDTH 500 0
DWIDTH 12 0
BBX 19 24 -3 -2
BITMAP 
000000
000000
000000
000000
000000
000000
000000
000000
000000
070e00
070e00
070e00
0e1c00
0e1c00
0f3c00
1f7800
1ff800
1dd800
387000
380000
380000
700000
700000
700000
ENDCHAR
STARTCHAR U+03BD
ENCODING 957
SWIDTH 500 0
DWIDTH 12 0
BBX 19 24 -3 -2
BITMAP 
000000
000000
000000
000000
000000
000000
000000
000000
000000
070e00
070e00
070e00
0e1c00
0e3c00
0e3800
1cf000
1de000
1fc000
3e0000
000000
000000
000000
000000
000000
ENDCHAR
STARTCHAR U+03BE
ENCODING 958
SWIDTH 500 0
DWIDTH 12 0
BBX 19 24 -3 -2
BITMAP 
000000
000000
000000
000000
000000
00e000
01c000
00fe00
01fe00
070000
070000
070000
07fc00
07fc00
0e0000
1c0000
1c0000
0fe000
0fe000
007000
007000
00e000
1fc000
1f8000
ENDCHAR
STARTCHAR U+03BF
ENCODING 959
SWIDTH 500 0
DWIDTH 12 0
BBX 19 24 -3 -2
BITMAP 
000000
000000
000000
000000
000000
000000
000000
000000
000000
01f800
03fc00
079e00
0e1c00
0e1c00
0e1c00
1c3800
1e7800
0ff000
0fc000
000000
000000
000000
000000
000000
ENDCHAR
STARTCHAR U+03C0
ENCODING 960
SWIDTH 500 0
DWIDTH 12 0
BBX 19 24 -3 -2
BITMAP 
000000
000000
000000
000000
000000
000000
000000
000000
000000
0ffe00
0ffe00
03b800
077000
077000
077000
0ee000
0ee000
0ee000
1dc000
000000
000000
000000
000000
000000
ENDCHAR
STARTCHAR U+03C1
ENCODING 961
SWIDTH 500 0
DWIDTH 12 0
BBX 19 24 -3 -2
BITMAP 
000000
000000
000000
000000
000000
000000
000000
000000
000000
01f800
03fc00
079e00
0e1c00
0e1c00
0e1c00
1c3800
1e7800
1ff000
3bc000
380000
380000
700000
700000
700000
ENDCHAR
STARTCHAR U+03C2
ENCODING 962
SWIDTH 500 0
DWIDTH 12 0
BBX 19 24 -3 -2
BITMAP 
000000
000000
000000
000000
000000
000000
000000
000000
000000
01fc00
03fe00
078e00
0e0000
0e0000
0e0000
1e0000
0f0000
07f000
07f000
007000
1ff000
3fc000
000000
000000
ENDCHAR
STARTCHAR U+03C3
ENCODING 963
SWIDTH 500 0
DWIDTH 12 0
BBX 19 24 -3 -2
BITMAP 
000000
000000
000000
000000
000000
000000
000000
000000
000000
03fe00
07fe00
0f7000
1c7000
1c7000
1c7000
38e000
3de000
1fc000
1f0000
000000
000000
000000
000000
000000
ENDCHAR
STARTCHAR U+03C4
ENCODING 964
SWIDTH 500 0
DWIDTH 12 0
BBX 19 24 -3 -2
BITMAP 
000000
000000
000000
000000
000000
000000
000000
000000
000000
07fc00
07fc00
00e000
01c000
01c000
01c000
038000
038000
038000
070000
000000
000000
000000
000000
000000
ENDCHAR
STARTCHAR U+03C5
ENCODING 965
SWIDTH 500 0
DWIDTH 12 0
BBX 19 24 -3 -2
BITMAP 
000000
000000
000000
000000
000000
000000
000000
000000
000000
070e00
070e00
070e00
0e1c00
0e1c00
0e1c00
1c3800
1e7800
0ff000
0fc000
000000
000000
000000
000000
000000
ENDCHAR
STARTCHAR U+03C6
ENCODING 966
SWIDTH 500 0
DWIDTH 12 0
BBX 19 24 -3 -2
BITMAP 
000000
000000
000000
000000
000000
000000
000000
000000
000000
03f800
07fc00
0f6e00
1ddc00
1ddc00
1ddc00
3bb800
3db800
1ff000
1fc000
070000
070000
0e0000
0e0000
0e0000
ENDCHAR
STARTCHAR U+03C7
ENCODING 967
SWIDTH 500 0
DWIDTH 12 0
BBX 19 24 -3 -2
BITMAP 
000000
000000
000000
000000
000000
000000
000000
000000
000000
070e00
070e00
039c00
073800
03b000
03b000
03c000
03c000
03c000
0ec000
0ec000
1ce000
39c000
70e000
70e000
ENDCHAR
STARTCHAR U+03C8
ENCODING 968
SWIDTH 500 0
DWIDTH 12 0
BBX 19 24 -3 -2
BITMAP 
000000
000000
000000
000000
000000
000000
007000
007000
007000
0eee00
0eee00
0eee00
1ddc00
1ddc00
1ddc00
3bb800
3db800
1ff000
1fc000
070000
070000
0e0000
0e0000
0e0000
ENDCHAR
STARTCHAR U+03C9
ENCODING 969
SWIDTH 500 0
DWIDTH 12 0
BBX 19 24 -3 -2
BITMAP 
000000
000000
000000
000000
000000
000000
000000
000000
000000
071c00
071c00
0e0e00
1ddc00
1ddc00
1ddc00
3bb800
3bb800
1ff000
1dc000
000000
000000
000000
000000
000000
ENDCHAR
STARTCHAR U+03CA
ENCODING 970
SWIDTH 500 0
DWIDTH 12 0
BBX 19 24 -3 -2
BITMAP 
000000
000000
000000
000000
000000
00ee00
01dc00
000000
000000
00e000
00e000
00e000
01c000
01c000
01c000
038000
038000
03e000
03c000
000000
000000
000000
000000
000000
ENDCHAR
STARTCHAR U+03CB
ENCODING 971
SWIDTH 500 0
DWIDTH 12 0
BBX 19 24 -3 -2
BITMAP 
000000
000000
000000
000000
000000
00e700
01ce00
000000
000000
070e00
070e00
070e00
0e1c00
0e1c00
0e1c00
1c3800
1e7800
0ff000
0fc000
000000
000000
000000
000000
000000
ENDCHAR
STARTCHAR U+03CC
ENCODING 972
SWIDTH 500 0
DWIDTH 12 0
BBX 19 24 -3 -2
BITMAP 
000000
000000
000000
003800
003800
003800
007000
000000
000000
01f800
03fc00
079e00
0e1c00
0e1c00
0e1c00
1c3800
1e7800
0ff000
0fc000
000000
000000
000000
000000
000000
ENDCHAR
STARTCHAR U+03CD
ENCODING 973
SWIDTH 500 0
DWIDTH 12 0
BBX 19 24 -3 -2
BITMAP 
000000
000000
000000
003800
003800
003800
007000
000000
000000
070e00
070e00
070e00
0e1c00
0e1c00
0e1c00
1c3800
1e7800
0ff000
0fc000
000000
000000
000000
000000
000000
ENDCHAR
STARTCHAR U+03CE
ENCODING 974
SWIDTH 500 0
DWIDTH 12 0
BBX 19 24 -3 -2
BITMAP 
000000
000000
000000
003800
003800
003800
007000
000000
000000
071c00
071c00
0e0e00
1c1c00
1ddc00
1ddc00
3bb800
3bb800
1ff000
1dc000
000000
000000
000000
000000
000000
ENDCHAR
STARTCHAR U+0401
ENCODING 1025
SWIDTH 500 0
DWIDTH 12 0
BBX 19 24 -3 -2
BITMAP 
000000
007380
007380
000000
000000
01ff80
03ff00
038000
038000
070000
070000
07f800
0ff000
0e0000
0e0000
1c0000
1c0000
1ff800
3ff000
000000
000000
000000
000000
000000
ENDCHAR
STARTCHAR U+0402
ENCODING 1026
SWIDTH 500 0
DWIDTH 12 0
BBX 19 24 -3 -2
BITMAP 
000000
000000
000000
000000
000000
03ff00
07fe00
00e000
00e000
01c000
01c000
01fc00
03fc00
039c00
039c00
073800
073800
07f800
0fe000
000000
000000
000000
000000
000000
ENDCHAR
STARTCHAR U+0403
ENCODING 1027
SWIDTH 500 0
DWIDTH 12 0
BBX 19 24 -3 -2
BITMAP 
000e00
001e00
003800
000000
000000
01ff80
03ff00
038000
038000
070000
070000
070000
0e0000
0e0000
0e0000
1c0000
1c0000
1c0000
380000
000000
000000
000000
000000
000000
ENDCHAR
STARTCHAR U+0404
ENCODING 1028
SWIDTH 500 0
DWIDTH 12 0
BBX 19 24 -3 -2
BITMAP 
000000
000000
000000
000000
000000
007e00
01fe00
03ce00
038700
070000
070000
07f800
0ff000
0e0000
0e0000
1c3800
1e7800
0ff000
0fc000
000000
000000
000000
000000
000000
ENDCHAR
STARTCHAR U+0405
ENCODING 1029
SWIDTH 500 0
DWIDTH 12 0
BBX 19 24 -3 -2
BITMAP 
000000
000000
000000
000000
000000
007e00
01fe00
038f00
038700
070000
078000
03f800
03f800
003c00
001c00
1c3800
1c7800
1ff000
1fc000
000000
000000
000000
000000
000000
ENDCHAR
STARTCHAR U+0406
ENCODING 1030
SWIDTH 500 0
DWIDTH 12 0
BBX 19 24 -3 -2
BITMAP 
000000
000000
000000
000000
000000
00fe00
01fc00
007000
007000
00e000
00e000
00e000
01c000
01c000
01c000
038000
038000
0fe000
1fc000
000000
000000
000000
000000
000000
ENDCHAR
STARTCHAR U+0407
ENCODING 1031
SWIDTH 500 0
DWIDTH 12 0
BBX 19 24 -3 -2
BITMAP 
000000
007700
007700
000000
000000
00fe00
01fc00
007000
007000
00e000
00e000
00e000
01c000
01c000
01c000
038000
038000
0fe000
1fc000
000000
000000
000000
000000
000000
ENDCHAR
STARTCHAR U+0408
ENCODING 1032
SWIDTH 500 0
DWIDTH 12 0
BBX 19 24 -3 -2
BITMAP 
000000
000000
000000
000000
000000
000380
000700
000700
000700
000e00
000e00
000e00
001c00
001c00
001c00
1c3800
1c7800
0ff000
0fc000
000000
000000
000000
000000
000000
ENDCHAR
STARTCHAR U+0409
ENCODING 1033
SWIDTH 500 0
DWIDTH 12 0
BBX 19 24 -3 -2
BITMAP 
000000
000000
000000
000000
000000
00fc00
01f800
01d800
01d800
03b000
03b000
03bc00
077c00
076c00
076c00
0ed800
0ed800
3ef800
73e000
000000
000000
000000
000000
000000
ENDCHAR
STARTCHAR U+040A
ENCODING 1034
SWIDTH 500 0
DWIDTH 12 0
BBX 19 24 -3 -2
BITMAP 
000000
000000
000000
000000
000000
03b800
077000
077000
077000
0ee000
0ee000
0ffc00
1ffc00
1ddc00
1ddc00
3bb800
3bb800
3bf800
77e000
000000
000000
000000
000000
000000
ENDCHAR
STARTCHAR U+040B
ENCODING 1035
SWIDTH 500 0
DWIDTH 12 0
BBX 19 24 -3 -2
BITMAP 
000000
000000
000000
000000
000000
03ff00
07fe00
00e000
00e000
01c000
01c000
01dc00
03fc00
03dc00
039c00
073800
073800
073800
0e7000
000000
000000
000000
000000
000000
ENDCHAR
STARTCHAR U+040C
ENCODING 1036
SWIDTH 500 0
DWIDTH 12 0
BBX 19 24 -3 -2
BITMAP 
000e00
001e00
003800
000000
000000
01c380
038f00
039c00
039c00
077000
077000
07e000
0fc000
0ee000
0e7000
1ce000
1c7000
1c3800
387000
000000
000000
000000
000000
000000
ENDCHAR
STARTCHAR U+040E
ENCODING 1038
SWIDTH 500 0
DWIDTH 12 0
BBX 19 24 -3 -2
BITMAP 
007380
007380
003f00
000000
000000
01c380
038700
038700
03cf00
039c00
03dc00
01d800
03f000
01e000
01e000
038000
078000
1f0000
3c0000
000000
000000
000000
000000
000000
ENDCHAR
STARTCHAR U+040F
ENCODING 1039
SWIDTH 500 0
DWIDTH 12 0
BBX 19 24 -3 -2
BITMAP 
000000
000000
000000
000000
000000
01c700
038e00
038e00
038e00
071c00
071c00
071c00
0e3800
0ff800
0ff800
038000
038000
038000
070000
000000
000000
000000
000000
000000
ENDCHAR
STARTCHAR U+0410
ENCODING 1040
SWIDTH 500 0
DWIDTH 12 0
BBX 19 24 -3 -2
BITMAP 
000000
000000
000000
000000
000000
007e00
01fe00
03cf00
038700
070e00
070e00
07fe00
0ffc00
0e1c00
0e1c00
1c3800
1c3800
1c3800
387000
000000
000000
000000
000000
000000
ENDCHAR
STARTCHAR U+0411
ENCODING 1041
SWIDTH 500 0
DWIDTH 12 0
BBX 19 24 -3 -2
BITMAP 
000000
000000
000000
000000
000000
01fe00
03fc00
038000
038000
070000
070000
07f800
0ff800
0e3c00
0e1c00
1c3800
1c7800
1ff000
3fc000
000000
000000
000000
000000
000000
ENDCHAR
STARTCHAR U+0412
ENCODING 1042
SWIDTH 500 0
DWIDTH 12 0
BBX 19 24 -3 -2
BITMAP 
000000
000000
000000
000000
000000
01fc00
03fc00
039e00
038e00
071c00
073800
07f800
0ff800
0e3800
0e1c00
1c3800
1c7800
1ff000
3fc000
000000
000000
000000
000000
000000
ENDCHAR
STARTCHAR U+0413
ENCODING 1043
SWIDTH 500 0
DWIDTH 12 0
BBX 19 24 -3 -2
BITMAP 
000000
000000
000000
000000
000000
01ff80
03ff00
038000
038000
070000
070000
070000
0e0000
0e0000
0e0000
1c0000
1c0000
1c0000
380000
000000
000000
000000
000000
000000
ENDCHAR
STARTCHAR U+0414
ENCODING 1044
SWIDTH 500 0
DWIDTH 12 0
BBX 19 24 -3 -2
BITMAP 
000000
000000
000000
000000
000000
003f00
00fe00
00ee00
00ee00
039c00
039c00
039c00
0e3800
0e3800
0e3800
387000
387000
3ff000
7fe000
007000
003000
000000
000000
000000
ENDCHAR
STARTCHAR U+0415
ENCODING 1045
SWIDTH 500 0
DWIDTH 12 0
BBX 19 24 -3 -2
BITMAP 
000000
000000
000000
000000
000000
01ff80
03ff00
038000
038000
070000
070000
07f800
0ff000
0e0000
0e0000
1c0000
1c0000
1ff800
3ff000
000000
000000
000000
000000
000000
ENDCHAR
STARTCHAR U+0416
ENCODING 1046
SWIDTH 500 0
DWIDTH 12 0
BBX 19 24 -3 -2
BITMAP 
000000
000000
000000
000000
000000
03bb80
077700
03b600
03b600
076c00
03f800
03f800
03e000
07f000
07f000
1db000
1db000
3bb800
777000
000000
000000
000000
000000
000000
ENDCHAR
STARTCHAR U+0417
ENCODING 1047
SWIDTH 500 0
DWIDTH 12 0
BBX 19 24 -3 -2
BITMAP 
000000
000000
000000
000000
000000
007e00
01fe00
038700
038700
000e00
001c00
00f800
01f000
003800
001c00
1c3800
1c3800
0ff000
0fc000
000000
000000
000000
000000
000000
ENDCHAR
STARTCHAR U+0418
ENCODING 1048
SWIDTH 500 0
DWIDTH 12 0
BBX 19 24 -3 -2
BITMAP 
000000
000000
000000
000000
000000
01c380
038f00
038f00
039f00
073e00
077600
077600
0edc00
0edc00
0f9c00
1f3800
1e3800
1e3800
387000
000000
000000
000000
000000
000000
ENDCHAR
STARTCHAR U+0419
ENCODING 1049
SWIDTH 500 0
DWIDTH 12 0
BBX 19 24 -3 -2
BITMAP 
007380
007380
003f00
000000
000000
01c380
038f00
038f00
039f00
073e00
077600
077600
0edc00
0edc00
0f9c00
1f3800
1e3800
1e3800
387000
000000
000000
000000
000000
000000
ENDCHAR
STARTCHAR U+041A
ENCODING 1050
SWIDTH 500 0
DWIDTH 12 0
BBX 19 24 -3 -2
BITMAP 
000000
000000
000000
000000
000000
01c380
038f00
039c00
039c00
077000
077000
07e000
0fc000
0ee000
0e7000
1ce000
1c7000
1c3800
387000
000000
000000
000000
000000
000000
ENDCHAR
ENDFONT
